<?xml version="1.0" standalone="no"?>
<!DOCTYPE svg PUBLIC "-//W3C//DTD SVG 1.1//EN" "http://www.w3.org/Graphics/SVG/1.1/DTD/svg11.dtd" >
<svg>
<metadata>
Created by FontForge 20090622 at Wed Aug 17 06:05:08 2016
 By deploy user
Copyright (c) 2015 by Richard Miller. All rights reserved.
</metadata>
<defs>
<font id="UniformRnd-Bold" horiz-adv-x="615" >
  <font-face 
    font-family="Uniform Rnd Bold"
    font-weight="700"
    font-stretch="normal"
    units-per-em="1000"
    panose-1="0 0 8 0 0 0 0 0 0 0"
    ascent="750"
    descent="-250"
    x-height="517"
    cap-height="705"
    bbox="-155 -231 1210 950"
    underline-thickness="50"
    underline-position="-50"
    unicode-range="U+0020-U+FB02"
  />
<missing-glyph horiz-adv-x="691" 
d="M576 700q41 0 68 -27t27 -68v-510q0 -41 -27 -68t-68 -27h-461q-41 0 -68 27t-27 68v510q0 41 27 68t68 27h461zM186 155l159 159l159 -159l36 36l-159 159l159 158l-36 36l-159 -158l-158 159l-36 -36l158 -159l-159 -159z" />
    <glyph glyph-name="ellipsis" unicode="&#x2e;&#x2e;&#x2e;" horiz-adv-x="949" 
d="M50 82q0 38 27 64.5t65 26.5t64.5 -26.5t26.5 -64.5t-26.5 -65t-64.5 -27t-65 27t-27 65zM383 82q0 38 27 64.5t65 26.5q37 0 64 -26.5t27 -64.5t-26.5 -65t-64.5 -27t-65 27t-27 65zM716 82q0 38 27 64.5t65 26.5t64.5 -26.5t26.5 -64.5t-26.5 -65t-64.5 -27t-65 27
t-27 65z" />
    <glyph glyph-name="ff" unicode="ff" horiz-adv-x="801" 
d="M15 428q0 26 16.5 42.5t42.5 16.5h41v40q0 87 48 135t132 48q51 0 81 -10q53 -13 53 -56q0 -25 -15.5 -40.5t-40.5 -15.5q-4 0 -16.5 2t-20.5 2q-76 0 -76 -76v-29h101q26 0 42.5 -16.5t16.5 -42.5t-16.5 -42.5t-42.5 -16.5h-101v-301q0 -32 -20 -52.5t-52 -20.5
t-52.5 20.5t-20.5 52.5v301h-41q-26 0 -42.5 16.5t-16.5 42.5zM480 510q0 96 49 148t139 52q42 0 74 -10q53 -14 53 -56q0 -25 -16 -40.5t-41 -15.5q-4 0 -16 2t-20 2q-36 0 -56 -22.5t-20 -63.5v-19h100q26 0 42.5 -16.5t16.5 -42.5t-16.5 -42.5t-42.5 -16.5h-100v-301
q0 -32 -20.5 -52.5t-52.5 -20.5t-52.5 20.5t-20.5 52.5v442z" />
    <glyph glyph-name="ft" unicode="ft" horiz-adv-x="815" 
d="M336 592q-76 0 -76 -76v-29h101q26 0 42.5 -16.5t16.5 -42.5t-16.5 -42.5t-42.5 -16.5h-101v-301q0 -32 -20 -52.5t-52 -20.5t-52.5 20.5t-20.5 52.5v301h-41q-26 0 -42.5 16.5t-16.5 42.5t16.5 42.5t42.5 16.5h41v40q0 87 48 135t132 48q51 0 81 -10q53 -13 53 -56
q0 -25 -15.5 -40.5t-40.5 -15.5q-4 0 -16.5 2t-20.5 2zM727 127q28 0 45.5 -16t17.5 -44q0 -47 -51 -65q-42 -12 -90 -12q-78 0 -123.5 43t-45.5 121v419q0 32 20.5 52t52.5 20t52.5 -20t20.5 -52v-56h105q27 0 43 -16.5t16 -43.5q0 -28 -16 -44.5t-43 -16.5h-105v-205
q0 -68 61 -68q11 0 24 2t16 2z" />
    <glyph glyph-name="rf" unicode="rf" horiz-adv-x="783" 
d="M463 510q0 96 49 148t138 52q44 0 74 -10q53 -13 53 -56q0 -25 -15.5 -40.5t-40.5 -15.5q-4 0 -16.5 2t-20.5 2q-36 0 -56 -22.5t-20 -63.5v-19h101q26 0 42.5 -16.5t16.5 -42.5t-16.5 -42.5t-42.5 -16.5h-101v-301q0 -32 -20.5 -52.5t-52.5 -20.5t-52 20.5t-20 52.5v442
zM60 68v390q0 28 18 46t46 18q29 0 47 -18t18 -46l1 -42q48 111 145 111q33 0 54 -21t21 -53q0 -34 -21 -54.5t-54 -20.5q-60 0 -95 -38t-35 -112v-160q0 -32 -20 -52.5t-52 -20.5t-52.5 20.5t-20.5 52.5z" />
    <glyph glyph-name="rt" unicode="rt" horiz-adv-x="798" 
d="M463 573q0 32 20 52t52 20t52.5 -20t20.5 -52v-56h105q27 0 43.5 -16.5t16.5 -43.5q0 -28 -16.5 -44.5t-43.5 -16.5h-105v-205q0 -68 61 -68q11 0 24 2t16 2q28 0 45.5 -16t17.5 -44q0 -47 -51 -65q-40 -12 -90 -12q-78 0 -123 43t-45 121v419zM60 68v390q0 28 18 46
t46 18q29 0 47 -18t18 -46l1 -42q48 111 145 111q33 0 54 -21t21 -53q0 -34 -21 -54.5t-54 -20.5q-60 0 -95 -38t-35 -112v-160q0 -32 -20 -52.5t-52 -20.5t-52.5 20.5t-20.5 52.5z" />
    <glyph glyph-name="tf" unicode="tf" horiz-adv-x="806" 
d="M485 510q0 96 49 148t139 52q42 0 74 -10q53 -14 53 -56q0 -25 -16 -40.5t-41 -15.5q-4 0 -16 2t-20 2q-36 0 -56 -22.5t-20 -63.5v-19h100q26 0 42.5 -16.5t16.5 -42.5t-16.5 -42.5t-42.5 -16.5h-100v-301q0 -32 -20.5 -52.5t-52.5 -20.5t-52.5 20.5t-20.5 52.5v442z
M15 458q0 26 16 42.5t43 16.5h41v56q0 32 20.5 52t52.5 20t52 -20t20 -52v-56h107q26 0 42 -16.5t16 -42.5t-16 -42.5t-42 -16.5h-107v-208q0 -68 61 -68q12 0 25 2t15 2q29 0 46 -16t17 -44q0 -47 -50 -65q-42 -12 -90 -12q-78 0 -123.5 43t-45.5 121v245h-41
q-27 0 -43 16.5t-16 42.5z" />
    <glyph glyph-name="tt" unicode="tt" horiz-adv-x="820" 
d="M367 399h-107v-208q0 -68 61 -68q12 0 25 2t15 2q29 0 46 -16t17 -44q0 -47 -50 -65q-42 -12 -90 -12q-78 0 -123.5 43t-45.5 121v245h-41q-27 0 -43 16.5t-16 42.5t16 42.5t43 16.5h41v56q0 32 20.5 52t52.5 20t52 -20t20 -52v-56h107q26 0 42 -16.5t16 -42.5t-16 -42.5
t-42 -16.5zM732 127q28 0 45.5 -16t17.5 -44q0 -47 -51 -65q-42 -12 -90 -12q-78 0 -123.5 43t-45.5 121v419q0 32 20.5 52t52.5 20t52.5 -20t20.5 -52v-56h106q26 0 42 -16.5t16 -42.5t-16 -42.5t-42 -16.5h-106v-208q0 -68 61 -68q11 0 24 2t16 2z" />
    <glyph glyph-name="rtf" unicode="rtf" horiz-adv-x="1153" 
d="M833 510q0 96 49 148t138 52q44 0 74 -10q53 -13 53 -56q0 -25 -15.5 -40.5t-40.5 -15.5q-4 0 -16.5 2t-20.5 2q-36 0 -56 -22.5t-20 -63.5v-19h101q26 0 42.5 -16.5t16.5 -42.5t-16.5 -42.5t-42.5 -16.5h-101v-301q0 -32 -20.5 -52.5t-52.5 -20.5t-52 20.5t-20 52.5v442
zM463 573q0 32 20 52t52 20t52.5 -20t20.5 -52v-56h105q27 0 43.5 -16.5t16.5 -43.5q0 -28 -16.5 -44.5t-43.5 -16.5h-105v-205q0 -68 61 -68q11 0 24 2t16 2q28 0 45.5 -16t17.5 -44q0 -47 -51 -65q-40 -12 -90 -12q-78 0 -123 43t-45 121v419zM60 68v390q0 28 18 46t46 18
q29 0 47 -18t18 -46l1 -42q48 111 145 111q33 0 54 -21t21 -53q0 -34 -21 -54.5t-54 -20.5q-60 0 -95 -38t-35 -112v-160q0 -32 -20 -52.5t-52 -20.5t-52.5 20.5t-20.5 52.5z" />
    <glyph glyph-name=".notdef" horiz-adv-x="691" 
d="M576 700q41 0 68 -27t27 -68v-510q0 -41 -27 -68t-68 -27h-461q-41 0 -68 27t-27 68v510q0 41 27 68t68 27h461zM186 155l159 159l159 -159l36 36l-159 159l159 158l-36 36l-159 -158l-158 159l-36 -36l158 -159l-159 -159z" />
    <glyph glyph-name=".null" horiz-adv-x="0" 
 />
    <glyph glyph-name="nonmarkingreturn" horiz-adv-x="333" 
 />
    <glyph glyph-name="space" unicode=" " horiz-adv-x="277" 
 />
    <glyph glyph-name="exclam" unicode="!" horiz-adv-x="323" 
d="M79 620q-2 36 21.5 60.5t60.5 24.5q38 0 61.5 -24.5t20.5 -60.5l-21 -322q-2 -27 -19 -44.5t-42 -17.5q-26 0 -42 17.5t-18 44.5zM70 82q0 38 27 64.5t64 26.5q38 0 65 -26.5t27 -64.5t-27 -65t-65 -27t-64.5 27t-26.5 65z" />
    <glyph glyph-name="quotedbl" unicode="&#x22;" horiz-adv-x="403" 
d="M107 705q25 0 41 -15.5t16 -41.5v-196q0 -26 -16 -41.5t-41 -15.5t-41 15.5t-16 41.5v196q0 26 16 41.5t41 15.5zM296 705q26 0 41.5 -15.5t15.5 -41.5v-196q0 -26 -15.5 -41.5t-41.5 -15.5t-41.5 15.5t-15.5 41.5v196q0 26 15.5 41.5t41.5 15.5z" />
    <glyph glyph-name="numbersign" unicode="#" 
d="M35 193q0 19 11.5 31t31.5 12h66l26 128h-52q-20 0 -31.5 12t-11.5 32t11.5 31.5t31.5 11.5h69l24 114q8 40 47 40q21 0 33 -12.5t12 -32.5q0 -11 -2 -18l-18 -91h109l24 114q8 40 47 40q21 0 33 -12.5t12 -32.5q0 -11 -2 -18l-18 -91h49q20 0 31.5 -11.5t11.5 -31.5
t-11.5 -32t-31.5 -12h-67l-25 -128h52q20 0 31.5 -11.5t11.5 -31.5t-11.5 -32t-31.5 -12h-70l-21 -109q-9 -45 -48 -45q-22 0 -34 12.5t-12 34.5q0 8 3 19l17 88h-110l-21 -109q-4 -20 -17 -32.5t-31 -12.5q-22 0 -34 12.5t-12 34.5q0 8 3 19l17 88h-49q-20 0 -31.5 12
t-11.5 32zM240 236h109l26 128h-110z" />
    <glyph glyph-name="dollar" unicode="$" horiz-adv-x="560" 
d="M44 143q0 28 18 46t46 18q31 0 51 -23q60 -68 127 -68q36 0 58 19t22 48q0 33 -30.5 61.5t-107.5 65.5q-158 75 -158 207q0 73 49.5 123.5t129.5 61.5v61q0 18 11.5 30t30.5 12t30.5 -12t11.5 -30v-60q86 -10 148 -72q26 -24 26 -55q0 -28 -17.5 -46t-45.5 -18
q-25 0 -52 25q-38 47 -98 47q-34 0 -54.5 -17t-20.5 -43q0 -31 25.5 -54.5t89.5 -54.5q181 -87 181 -221q0 -78 -50 -130.5t-132 -65.5v-60q0 -19 -11.5 -31t-30.5 -12t-30.5 12t-11.5 31v57q-67 6 -115 36t-71 61q-19 27 -19 51z" />
    <glyph glyph-name="percent" unicode="%" horiz-adv-x="775" 
d="M199 303q-67 0 -112 43t-45 110q0 66 46 110t113 44t111.5 -43t44.5 -109q0 -67 -45.5 -111t-112.5 -44zM192 -5q-17 0 -27.5 11t-10.5 28q0 15 12 30l381 520q16 21 36 21q17 0 27.5 -11t10.5 -28q0 -14 -11 -30l-383 -520q-15 -21 -35 -21zM200 391q27 0 45 19t18 47
t-18 46.5t-45 18.5q-28 0 -46 -18.5t-18 -46.5q0 -29 18 -47.5t46 -18.5zM574 -10q-67 0 -111.5 43t-44.5 109q0 67 45.5 111t112.5 44t112 -43t45 -110q0 -66 -46 -110t-113 -44zM575 78q28 0 46 18.5t18 46.5q0 29 -18 47.5t-46 18.5q-27 0 -45 -19t-18 -47t18 -46.5
t45 -18.5z" />
    <glyph glyph-name="ampersand" unicode="&#x26;" horiz-adv-x="696" 
d="M35 190q0 125 145 206q-70 81 -70 150t55.5 116.5t145.5 47.5q91 0 144 -48.5t53 -114.5q0 -103 -134 -179l96 -99l95 115q18 21 45 21q25 0 40.5 -15.5t15.5 -40.5q0 -20 -19 -45l-97 -121l83 -86q20 -20 20 -46q0 -25 -16 -40.5t-41 -15.5q-28 0 -46 20l-78 78
q-53 -57 -102 -80t-114 -23q-91 0 -156 57.5t-65 142.5zM244 542q0 -23 12.5 -43t44.5 -54q84 39 84 92q0 28 -19.5 47t-51.5 19q-31 0 -50.5 -18t-19.5 -43zM173 205q0 -40 27.5 -66.5t70.5 -26.5q61 0 119 67l-134 136q-83 -47 -83 -110z" />
    <glyph glyph-name="quotesingle" unicode="'" horiz-adv-x="214" 
d="M107 705q25 0 41 -15.5t16 -41.5v-196q0 -26 -16 -41.5t-41 -15.5t-41 15.5t-16 41.5v196q0 26 16 41.5t41 15.5z" />
    <glyph glyph-name="parenleft" unicode="(" horiz-adv-x="427" 
d="M55 347q0 83 24 156.5t55.5 119.5t71 84t61 52t35.5 21q20 12 39 12q26 0 43.5 -17t17.5 -43q0 -30 -33 -57q-172 -132 -172 -325q0 -53 14 -102t30 -80t44 -63.5t40.5 -43.5t35.5 -29q4 -4 6 -5q35 -30 35 -58q0 -26 -17 -43.5t-44 -17.5q-19 0 -42 14
q-19 10 -37.5 22.5t-59.5 50.5t-70.5 81.5t-53 116t-23.5 154.5z" />
    <glyph glyph-name="parenright" unicode=")" horiz-adv-x="427" 
d="M372 353q0 -83 -24 -156.5t-55.5 -119.5t-71.5 -84t-61.5 -52t-35.5 -21q-20 -12 -39 -12q-26 0 -43 17t-17 43q0 31 33 57q172 132 172 325q0 65 -17.5 121t-49.5 97t-50.5 59t-47.5 41q-4 4 -6 5q-34 29 -34 58q0 26 17 43.5t43 17.5q20 0 43 -14q19 -10 37.5 -22.5
t59.5 -50.5t70.5 -81.5t53 -116t23.5 -154.5z" />
    <glyph glyph-name="asterisk" unicode="*" horiz-adv-x="499" 
d="M50 546q0 21 13.5 35t35.5 14q12 0 30 -8l78 -31l-6 94q-2 23 11 39t38 16t37.5 -15.5t10.5 -39.5l-7 -94l80 31q18 8 29 8q22 0 35.5 -13.5t13.5 -34.5q0 -40 -46 -50l-86 -22l59 -70q16 -18 16 -36q0 -22 -13.5 -35.5t-35.5 -13.5q-29 0 -45 28l-48 77l-49 -77
q-15 -28 -45 -28q-21 0 -35 13.5t-14 35.5q0 18 15 36l59 70l-90 23q-18 4 -29.5 17t-11.5 31z" />
    <glyph glyph-name="plus" unicode="+" 
d="M513 412q26 0 41.5 -15.5t15.5 -40.5q0 -26 -15.5 -41.5t-41.5 -15.5h-147v-153q0 -26 -16 -42.5t-42 -16.5t-42.5 16.5t-16.5 42.5v153h-147q-26 0 -41.5 15.5t-15.5 41.5q0 25 15.5 40.5t41.5 15.5h147v154q0 26 16.5 42t42.5 16t42 -16t16 -42v-154h147z" />
    <glyph glyph-name="comma" unicode="," horiz-adv-x="263" 
d="M46 -76q0 17 17 181q3 31 22.5 50.5t48.5 19.5q31 0 51 -19.5t20 -51.5q0 -24 -40 -187q-13 -52 -59 -52q-26 0 -43 16.5t-17 42.5z" />
    <glyph glyph-name="hyphen" unicode="-" horiz-adv-x="420" 
d="M311 420q28 0 46 -18t18 -46t-18 -46.5t-46 -18.5h-202q-28 0 -46 18.5t-18 46.5t18 46t46 18h202z" />
    <glyph glyph-name="period" unicode="." horiz-adv-x="283" 
d="M50 82q0 38 27 64.5t65 26.5t64.5 -26.5t26.5 -64.5t-26.5 -65t-64.5 -27t-65 27t-27 65z" />
    <glyph glyph-name="slash" unicode="/" horiz-adv-x="504" 
d="M10 -30q0 17 10 34l368 745q16 36 52 36q24 0 39 -15t15 -39q0 -15 -9 -33l-370 -750q-17 -33 -51 -33q-25 0 -39.5 15t-14.5 40z" />
    <glyph glyph-name="zero" unicode="0" 
d="M57 455q0 118 71.5 186.5t181.5 68.5q111 0 179.5 -66t68.5 -184v-215q0 -118 -71.5 -186.5t-181.5 -68.5q-111 0 -179.5 66t-68.5 184v215zM203 230q0 -48 29 -77.5t76 -29.5t75.5 29.5t28.5 77.5v240q0 48 -28.5 77.5t-75.5 29.5t-76 -29.5t-29 -77.5v-240z" />
    <glyph glyph-name="one" unicode="1" horiz-adv-x="483" 
d="M22 500q2 34 32 54l188 131q28 20 58 20q36 0 60 -24t24 -60v-553q0 -32 -20.5 -52.5t-52.5 -20.5t-52.5 20.5t-20.5 52.5v462l-118 -78q-19 -12 -38 -12q-26 1 -42.5 17.5t-17.5 42.5z" />
    <glyph glyph-name="two" unicode="2" horiz-adv-x="565" 
d="M44 74q0 34 30 62l217 214q44 44 60.5 73.5t16.5 65.5q0 39 -27 65t-70 26q-57 0 -109 -59q-24 -28 -53 -28q-28 0 -45.5 17.5t-17.5 46.5q0 23 19 48q16 23 38.5 43.5t72 41t109.5 20.5q99 0 164 -58.5t65 -145.5q0 -68 -29 -121t-97 -117l-147 -143h211
q27 0 44.5 -17.5t17.5 -44.5q0 -28 -17.5 -45.5t-44.5 -17.5h-334q-33 0 -53.5 21t-20.5 53z" />
    <glyph glyph-name="three" unicode="3" horiz-adv-x="552" 
d="M24 130q0 28 17 45.5t46 17.5q31 0 54 -29q38 -48 104 -48q50 0 81 27.5t31 66.5q0 42 -32 68.5t-91 26.5h-19q-25 0 -40 15t-15 40t15 40t40 15h20q49 0 75.5 23t26.5 62q0 38 -26.5 61t-68.5 23q-48 0 -83 -39q-23 -25 -50 -25t-43.5 17t-16.5 43q0 24 18 46
q26 34 73.5 59t113.5 25q96 0 162 -52.5t66 -136.5q0 -102 -98 -156q55 -25 86.5 -69t31.5 -102q0 -91 -71.5 -147.5t-182.5 -56.5q-129 0 -204 90q-20 22 -20 50z" />
    <glyph glyph-name="four" unicode="4" 
d="M27 237q0 29 20 55l269 374q29 39 77 39q39 0 64.5 -25.5t25.5 -64.5v-346h48q25 0 41 -15.5t16 -41.5t-16 -41.5t-41 -15.5h-48v-91q0 -31 -19.5 -50t-49.5 -19q-31 0 -50 19t-19 50v91h-234q-38 0 -61 22.5t-23 59.5zM154 269h191v261z" />
    <glyph glyph-name="five" unicode="5" horiz-adv-x="590" 
d="M62 121q0 29 18 47.5t47 18.5q24 0 53 -23q52 -41 99 -41q52 0 84 32t32 81q0 43 -29.5 73t-76.5 30q-37 0 -78 -31q-29 -23 -58 -23q-35 0 -56.5 22t-21.5 58v259q0 33 21.5 54.5t54.5 21.5h297q28 0 45 -17.5t17 -44.5q0 -28 -17 -45.5t-45 -17.5h-243v-146
q49 36 111 36q100 0 162 -65t62 -160q0 -109 -72.5 -179.5t-186.5 -70.5q-109 0 -192 76q-27 25 -27 55z" />
    <glyph glyph-name="six" unicode="6" 
d="M50 236q0 104 71 203l171 235q21 31 59 31q29 0 47 -18.5t18 -47.5q0 -25 -21 -51l-108 -142q22 12 54 12q92 0 158 -63t66 -158q0 -107 -75.5 -177t-184.5 -70q-105 0 -180 70t-75 176zM195 235q0 -48 31.5 -80t81.5 -32t81 32t31 80t-31 80t-81 32t-81.5 -32t-31.5 -80
z" />
    <glyph glyph-name="seven" unicode="7" horiz-adv-x="535" 
d="M27 636q0 28 18.5 46t46.5 18h342q33 0 53.5 -20t20.5 -52q0 -18 -11 -40l-253 -546q-22 -47 -67 -47q-31 0 -51 19.5t-20 50.5q0 16 10 38l223 468h-247q-29 0 -47 18t-18 47z" />
    <glyph glyph-name="eight" unicode="8" 
d="M76 513q0 85 67 141t167 56t164.5 -53.5t64.5 -138.5q0 -87 -80 -143q49 -28 77.5 -71.5t28.5 -95.5q0 -94 -74 -156t-186 -62t-183.5 59.5t-71.5 153.5q0 51 28.5 95.5t77.5 72.5q-80 54 -80 142zM218 504q0 -37 25 -60.5t65 -23.5q39 0 64 23.5t25 60.5t-25 60.5
t-64 23.5q-40 0 -65 -23.5t-25 -60.5zM195 216q0 -46 31.5 -75t81.5 -29q49 0 80.5 29t31.5 75t-31.5 75.5t-80.5 29.5q-50 0 -81.5 -29.5t-31.5 -75.5z" />
    <glyph glyph-name="nine" unicode="9" 
d="M565 464q0 -104 -71 -203l-171 -235q-21 -31 -59 -31q-29 0 -47 18.5t-18 47.5q0 25 21 51l108 142q-22 -12 -54 -12q-92 0 -158 63t-66 158q0 107 75.5 177t184.5 70q105 0 180 -70t75 -176zM420 465q0 48 -31.5 80t-81.5 32t-81 -32t-31 -80t31 -80t81 -32t81.5 32
t31.5 80z" />
    <glyph glyph-name="colon" unicode=":" horiz-adv-x="283" 
d="M142 344q-38 0 -65 26.5t-27 64.5t27 65t65 27t64.5 -27t26.5 -65t-26.5 -64.5t-64.5 -26.5zM142 -10q-38 0 -65 27t-27 65t27 64.5t65 26.5t64.5 -26.5t26.5 -64.5t-26.5 -65t-64.5 -27z" />
    <glyph glyph-name="semicolon" unicode=";" horiz-adv-x="283" 
d="M50 435q0 38 27 65t65 27t64.5 -27t26.5 -65t-26.5 -64.5t-64.5 -26.5t-65 26.5t-27 64.5zM46 -76q0 17 17 181q3 31 22.5 50.5t48.5 19.5q31 0 51 -19.5t20 -51.5q0 -24 -40 -187q-13 -52 -59 -52q-26 0 -43 16.5t-17 42.5z" />
    <glyph glyph-name="less" unicode="&#x3c;" 
d="M512 99q-15 0 -31 7l-369 162q-67 29 -67 87t67 87l372 163q19 7 30 7q25 0 40.5 -16t15.5 -41q0 -39 -42 -56l-348 -142l345 -141q45 -18 45 -57q0 -26 -16.5 -43t-41.5 -17z" />
    <glyph glyph-name="equal" unicode="=" 
d="M102 395q-25 0 -41 16t-16 41t16 41t41 16h411q25 0 41 -16t16 -41t-16 -41t-41 -16h-411zM513 295q25 0 41 -16t16 -41t-16 -41t-41 -16h-411q-25 0 -41 16t-16 41t16 41t41 16h411z" />
    <glyph glyph-name="greater" unicode="&#x3e;" 
d="M103 612q15 0 31 -7l369 -162q67 -30 67 -87q0 -60 -67 -87l-372 -163q-19 -7 -30 -7q-25 0 -40.5 15.5t-15.5 40.5q0 40 42 56l348 143l-345 140q-45 21 -45 58q0 26 16.5 43t41.5 17z" />
    <glyph glyph-name="question" unicode="?" horiz-adv-x="531" 
d="M253 236q-25 0 -40 15t-15 39q1 30 22 56.5t45.5 43.5t45 44t20.5 58q0 34 -22.5 56.5t-57.5 22.5q-52 0 -92 -50q-22 -27 -54 -27q-29 0 -47 18.5t-18 47.5q0 25 18 48q15 22 36 42t67 40t101 20q93 0 156 -57t63 -137q0 -57 -24 -99t-74 -88t-61 -60q-40 -33 -69 -33z
M251 -10q-38 0 -65 27t-27 65t27 64.5t65 26.5t64.5 -26.5t26.5 -64.5t-26.5 -65t-64.5 -27z" />
    <glyph glyph-name="at" unicode="@" horiz-adv-x="981" 
d="M492 710q189 0 316.5 -124.5t127.5 -307.5q0 -127 -67 -216t-167 -91q-67 -1 -101.5 39t-30.5 111q-51 -46 -127 -46q-92 0 -147 66t-42 161q12 87 75 139t145 52t126 -53l1 6q16 42 57 42q29 0 45 -19t12 -49l-42 -291q-4 -30 9 -47.5t39 -17.5q43 0 80.5 59.5
t37.5 146.5q0 156 -97.5 252.5t-251.5 96.5q-147 0 -247.5 -99t-100.5 -243q0 -140 100.5 -237t247.5 -97q18 0 37 2t23 2q19 0 31 -11t12 -29q0 -35 -38 -45q-29 -6 -66 -6q-190 0 -317 121t-127 298q0 182 129 308.5t318 126.5zM574 275q6 44 -21 75.5t-72 31.5
q-42 0 -69.5 -24t-33.5 -65q-7 -44 19.5 -75.5t70.5 -31.5q42 0 70.5 24t35.5 65z" />
    <glyph glyph-name="A" unicode="A" horiz-adv-x="692" 
d="M12 67q0 16 11 43l219 517q34 78 106 78q74 0 105 -78l215 -509q11 -27 11 -46q0 -34 -21 -55.5t-55 -21.5q-55 0 -76 58l-38 94h-293l-37 -93q-22 -59 -73 -59q-32 0 -53 20.5t-21 51.5zM241 268h203l-101 260z" />
    <glyph glyph-name="B" unicode="B" horiz-adv-x="690" 
d="M80 77v547q0 33 21.5 54.5t54.5 21.5h238q100 0 160 -50t60 -129q0 -50 -25.5 -90.5t-71.5 -64.5q60 -20 94 -66t34 -106q0 -83 -65.5 -138.5t-167.5 -55.5h-256q-33 0 -54.5 21.5t-21.5 55.5zM233 415h128q46 0 73 24t27 59q0 36 -27 60t-73 24h-128v-167zM233 118h151
q50 0 79 27t29 67t-29 66.5t-79 26.5h-151v-187z" />
    <glyph glyph-name="C" unicode="C" horiz-adv-x="703" 
d="M45 347q0 152 107 257.5t263 105.5q122 0 213 -63q42 -28 42 -69q0 -31 -20.5 -51.5t-50.5 -20.5q-26 0 -51 18q-62 45 -136 45q-92 0 -153 -63t-61 -156t61 -156t153 -63q80 0 143 51q25 21 53 21q31 0 50.5 -19.5t19.5 -50.5q0 -33 -27 -58q-88 -85 -241 -85
q-156 0 -260.5 102.5t-104.5 254.5z" />
    <glyph glyph-name="D" unicode="D" horiz-adv-x="760" 
d="M80 77v547q0 33 21.5 54.5t54.5 21.5h174q168 0 276.5 -98.5t108.5 -248.5t-111 -251.5t-279 -101.5h-169q-33 0 -54.5 21.5t-21.5 55.5zM233 133h100q100 0 164.5 61.5t64.5 155.5t-64.5 155.5t-164.5 61.5h-100v-434z" />
    <glyph glyph-name="E" unicode="E" horiz-adv-x="650" 
d="M80 77v547q0 33 21.5 54.5t54.5 21.5h378q29 0 47.5 -18.5t18.5 -47.5q0 -30 -18.5 -48.5t-47.5 -18.5h-301v-145h255q28 0 45 -17t17 -45t-17 -45t-45 -17h-255v-165h311q29 0 47.5 -18.5t18.5 -47.5q0 -30 -18.5 -48.5t-47.5 -18.5h-388q-33 0 -54.5 21.5t-21.5 55.5z
" />
    <glyph glyph-name="F" unicode="F" horiz-adv-x="610" 
d="M80 73v551q0 33 21.5 54.5t54.5 21.5h368q29 0 47.5 -18.5t18.5 -47.5q0 -30 -18.5 -48.5t-47.5 -18.5h-291v-176h243q28 0 46 -18t18 -46t-18 -46.5t-46 -18.5h-243v-189q0 -34 -21.5 -55.5t-55.5 -21.5q-33 0 -54.5 21.5t-21.5 55.5z" />
    <glyph glyph-name="G" unicode="G" horiz-adv-x="792" 
d="M410 -10q-156 0 -260.5 102.5t-104.5 254.5t107 257.5t263 105.5q122 0 212 -62q39 -27 39 -65q0 -31 -21 -52t-52 -21q-25 0 -45 14q-72 45 -136 45q-92 0 -153 -63t-61 -158t61 -158t153 -63q73 0 123 38.5t63 104.5h-142q-25 0 -40.5 15.5t-15.5 40.5q0 23 15.5 38.5
t40.5 15.5h236q28 0 46 -17.5t18 -44.5q-1 -131 -100 -229.5t-246 -98.5z" />
    <glyph glyph-name="H" unicode="H" horiz-adv-x="770" 
d="M614 705q33 0 54.5 -21.5t21.5 -54.5v-557q0 -34 -21.5 -55.5t-54.5 -21.5q-34 0 -55.5 21.5t-21.5 55.5v223h-304v-223q0 -34 -21.5 -55.5t-55.5 -21.5q-33 0 -54.5 21.5t-21.5 55.5v557q0 33 21.5 54.5t54.5 21.5q34 0 55.5 -21.5t21.5 -54.5v-198h304v198
q0 33 21.5 54.5t55.5 21.5z" />
    <glyph glyph-name="I" unicode="I" horiz-adv-x="327" 
d="M164 705q34 0 56 -22t22 -56v-554q0 -34 -22 -56t-56 -22q-35 0 -57 22t-22 56v554q0 34 22 56t57 22z" />
    <glyph glyph-name="J" unicode="J" horiz-adv-x="485" 
d="M12 71q0 31 20 50.5t52 19.5q7 0 23.5 -3t30.5 -3q54 0 87 36t33 99v357q0 34 22 56t57 22q34 0 56 -22t22 -56v-366q0 -123 -74 -197t-190 -74q-48 0 -84 12q-55 17 -55 69z" />
    <glyph glyph-name="K" unicode="K" horiz-adv-x="660" 
d="M80 72v557q0 33 21.5 54.5t54.5 21.5q34 0 55.5 -21.5t21.5 -54.5v-248l263 290q27 34 62 34q31 0 50 -19.5t19 -49.5q0 -29 -22 -53l-216 -216l237 -252q19 -22 19 -50q0 -30 -19.5 -50t-50.5 -20q-34 0 -61 32l-281 312v-267q0 -34 -21.5 -55.5t-55.5 -21.5
q-33 0 -54.5 21.5t-21.5 55.5z" />
    <glyph glyph-name="L" unicode="L" horiz-adv-x="589" 
d="M80 77v552q0 33 21.5 54.5t54.5 21.5q34 0 55.5 -21.5t21.5 -54.5v-492h279q30 0 49 -19t19 -50q0 -30 -19 -49t-49 -19h-356q-33 0 -54.5 21.5t-21.5 55.5z" />
    <glyph glyph-name="M" unicode="M" horiz-adv-x="890" 
d="M80 69v541q0 41 27 68t68 27q58 0 92 -64l182 -346l188 355q28 55 84 55q39 0 64 -25.5t25 -64.5v-546q0 -32 -20.5 -53t-52.5 -21q-33 0 -54 21t-21 53v372l-149 -281q-25 -51 -67 -51t-69 51l-149 281v-372q0 -32 -21 -53t-53 -21q-33 0 -53.5 21t-20.5 53z" />
    <glyph glyph-name="N" unicode="N" horiz-adv-x="790" 
d="M80 70v535q0 43 28 71.5t72 28.5q53 0 87 -50l294 -414v390q0 32 21 53t54 21t53.5 -21t20.5 -53v-542q0 -41 -26 -67.5t-67 -26.5q-52 0 -87 51l-301 425v-401q0 -33 -20.5 -54t-53.5 -21q-34 0 -54.5 21t-20.5 54z" />
    <glyph glyph-name="O" unicode="O" horiz-adv-x="825" 
d="M45 347q0 152 107 257.5t263 105.5t260.5 -102.5t104.5 -254.5t-107 -257.5t-263 -105.5t-260.5 102.5t-104.5 254.5zM198 350q0 -93 61 -156t153 -63q93 0 154 63t61 156t-61 156t-154 63q-92 0 -153 -63t-61 -156z" />
    <glyph glyph-name="P" unicode="P" horiz-adv-x="684" 
d="M383 700q118 0 190 -65.5t72 -171.5q0 -105 -74.5 -173t-192.5 -68h-145v-150q0 -34 -21.5 -55.5t-55.5 -21.5q-33 0 -54.5 21.5t-21.5 55.5v552q0 33 21.5 54.5t54.5 21.5h227zM368 348q56 0 90 31t34 80t-34 80.5t-90 31.5h-135v-223h135z" />
    <glyph glyph-name="Q" unicode="Q" horiz-adv-x="825" 
d="M45 347q0 152 107 257.5t263 105.5t260.5 -102.5t104.5 -254.5q0 -98 -47 -179.5t-128 -128.5l55 -69q14 -19 14 -43q0 -30 -20 -49.5t-50 -19.5q-38 0 -58 28l-76 104q-28 -6 -60 -6q-156 0 -260.5 102.5t-104.5 254.5zM198 350q0 -93 61 -156t153 -63q93 0 154 63
t61 156t-61 156t-154 63q-92 0 -153 -63t-61 -156z" />
    <glyph glyph-name="R" unicode="R" horiz-adv-x="690" 
d="M156 -5q-33 0 -54.5 21.5t-21.5 55.5v552q0 33 21.5 54.5t54.5 21.5h237q112 0 182 -63t70 -164q0 -73 -39 -127.5t-106 -78.5l109 -146q21 -29 21 -53q0 -32 -20.5 -52.5t-52.5 -20.5q-37 0 -61 32l-158 214h-105v-169q0 -34 -21.5 -55.5t-55.5 -21.5zM233 359h141
q55 0 86.5 29.5t31.5 76.5t-31.5 76.5t-86.5 29.5h-141v-212z" />
    <glyph glyph-name="S" unicode="S" horiz-adv-x="578" 
d="M25 121q0 29 18 47t48 18q23 0 49 -20q72 -52 148 -52q39 0 63.5 19.5t24.5 49.5q0 35 -33.5 63t-125.5 64q-167 66 -167 201q0 87 67.5 143t176.5 56q106 0 187 -56q37 -24 37 -60q0 -29 -17.5 -47.5t-44.5 -18.5q-22 0 -48 19q-53 39 -115 39q-40 0 -63 -19t-23 -44
q0 -31 26.5 -53.5t99.5 -50.5q200 -78 200 -219q0 -90 -70 -150t-183 -60q-134 0 -226 75q-29 24 -29 56z" />
    <glyph glyph-name="T" unicode="T" horiz-adv-x="588" 
d="M513 700q29 0 47.5 -18.5t18.5 -47.5q0 -30 -18.5 -48.5t-47.5 -18.5h-143v-495q0 -34 -21.5 -55.5t-54.5 -21.5q-34 0 -55.5 21.5t-21.5 55.5v495h-141q-30 0 -48.5 18.5t-18.5 48.5q0 29 18.5 47.5t48.5 18.5h437z" />
    <glyph glyph-name="U" unicode="U" horiz-adv-x="740" 
d="M595 704q33 0 54 -21.5t21 -53.5v-339q0 -135 -84 -217.5t-219 -82.5q-134 0 -215.5 80.5t-81.5 214.5v344q0 34 21.5 55.5t55.5 21.5t56 -21.5t22 -55.5v-338q0 -73 41 -116.5t107 -43.5t106.5 43.5t40.5 116.5v338q0 32 21.5 53.5t53.5 21.5z" />
    <glyph glyph-name="V" unicode="V" horiz-adv-x="682" 
d="M12 627q0 34 22.5 56t57.5 22q55 0 78 -62l174 -449l177 457q20 54 74 54q32 0 53.5 -21t21.5 -53q0 -20 -11 -44l-212 -508q-34 -84 -107 -84t-107 84l-213 510q-8 20 -8 38z" />
    <glyph glyph-name="W" unicode="W" horiz-adv-x="973" 
d="M12 626q0 34 22 56.5t57 22.5q27 0 47.5 -15.5t28.5 -41.5l131 -415l123 416q7 26 25 41t43 15t43.5 -14.5t25.5 -39.5l123 -418l132 418q8 25 27.5 39.5t45.5 14.5q32 0 53 -21t21 -54q0 -18 -6 -32l-183 -540q-9 -28 -32 -45.5t-53 -17.5t-53.5 18t-32.5 48l-115 381
l-113 -378q-10 -32 -33 -50.5t-54 -18.5q-30 0 -53 17.5t-32 46.5l-182 535q-6 18 -6 32z" />
    <glyph glyph-name="X" unicode="X" horiz-adv-x="639" 
d="M15 62q0 29 18 50l196 242l-181 227q-19 24 -19 52q0 32 20.5 52t52.5 20q38 0 62 -33l159 -209l166 215q22 27 56 27q31 0 50.5 -19t19.5 -49q0 -26 -16 -47l-187 -231l191 -240q21 -25 21 -53q0 -31 -20.5 -51t-52.5 -20q-38 0 -62 33l-171 222l-171 -219
q-27 -36 -63 -36q-31 0 -50 18.5t-19 48.5z" />
    <glyph glyph-name="Y" unicode="Y" horiz-adv-x="624" 
d="M12 631q0 32 21 53t54 21q43 0 67 -39l161 -261l161 262q21 38 65 38q31 0 50.5 -19.5t19.5 -51.5q0 -23 -13 -44l-211 -330v-188q0 -34 -21.5 -55.5t-54.5 -21.5q-34 0 -55.5 21.5t-21.5 55.5v188l-209 326q-13 21 -13 45z" />
    <glyph glyph-name="Z" unicode="Z" horiz-adv-x="655" 
d="M29 75q0 31 23 58l356 438h-295q-29 0 -46.5 18t-17.5 47q0 28 18 46t46 18h429q34 0 55.5 -21t21.5 -55q0 -31 -21 -55l-359 -440h316q28 0 46 -18t18 -46t-18 -46.5t-46 -18.5h-450q-34 0 -55 21t-21 54z" />
    <glyph glyph-name="bracketleft" unicode="[" horiz-adv-x="435" 
d="M80 -9v718q0 31 20 51t51 20h194q27 0 43.5 -17t16.5 -44t-16.5 -44t-43.5 -17h-123v-616h123q27 0 43.5 -17t16.5 -44t-16.5 -44t-43.5 -17h-194q-31 0 -51 20t-20 51z" />
    <glyph glyph-name="backslash" unicode="\" horiz-adv-x="504" 
d="M494 -30q0 -25 -15 -40t-39 -15q-34 0 -51 33l-370 750q-9 18 -9 33q0 24 14.5 39t38.5 15q36 0 53 -36l368 -745q10 -20 10 -34z" />
    <glyph glyph-name="bracketright" unicode="]" horiz-adv-x="435" 
d="M355 709v-718q0 -31 -19.5 -51t-51.5 -20h-194q-27 0 -43.5 17t-16.5 44t16.5 44t43.5 17h123v616h-123q-27 0 -43.5 17t-16.5 44t16.5 44t43.5 17h194q32 0 51.5 -20t19.5 -51z" />
    <glyph glyph-name="asciicircum" unicode="^" horiz-adv-x="552" 
d="M55 374q0 16 10 36l126 235q32 60 85 60q52 0 85 -60l126 -237q10 -20 10 -34q0 -25 -17 -42t-41 -17q-40 0 -58 39l-105 218l-102 -214q-22 -43 -59 -43q-26 0 -43 17t-17 42z" />
    <glyph glyph-name="underscore" unicode="_" horiz-adv-x="600" 
d="M-45 -96q0 21 12.5 33.5t32.5 12.5h600q20 0 32.5 -12.5t12.5 -33.5q0 -20 -12.5 -33t-32.5 -13h-600q-20 0 -32.5 13t-12.5 33z" />
    <glyph glyph-name="grave" unicode="`" horiz-adv-x="370" 
d="M274 618q0 -22 -14 -36.5t-36 -14.5q-16 0 -33 13l-65 60q-29 20 -29 54q0 24 16 41.5t40 17.5q26 0 50 -26l52 -66q19 -21 19 -43z" />
    <glyph glyph-name="a" unicode="a" horiz-adv-x="571" 
d="M284 527q109 0 171.5 -62t62.5 -172v-232q0 -29 -18.5 -47.5t-47.5 -18.5q-50 0 -62 46q-58 -51 -154 -51q-91 0 -145 44t-54 113q0 70 56 116t147 46q79 0 132 -37v22q0 53 -32.5 82t-84.5 29q-47 0 -91 -24q-16 -8 -34 -8q-25 0 -40.5 15.5t-15.5 39.5q0 34 34 54
q68 45 176 45zM278 82q45 0 72 20.5t27 50.5t-27 50.5t-72 20.5q-42 0 -68.5 -20.5t-26.5 -50.5t26.5 -50.5t68.5 -20.5z" />
    <glyph glyph-name="b" unicode="b" horiz-adv-x="649" 
d="M365 527q103 0 176 -77t73 -189q0 -113 -75 -192t-179 -79q-103 0 -166 79v-7q0 -29 -19 -48t-48 -19q-30 0 -48.5 19t-18.5 48v571q0 32 20.5 52t52.5 20q31 0 51.5 -20.5t20.5 -51.5v-180q62 74 160 74zM334 123q57 0 95.5 39t38.5 96t-38.5 96t-95.5 39t-95.5 -39
t-38.5 -96t38.5 -96t95.5 -39z" />
    <glyph glyph-name="c" unicode="c" horiz-adv-x="533" 
d="M35 256q0 114 81 192.5t201 78.5q84 0 149 -44q39 -25 39 -63q0 -30 -18.5 -49t-48.5 -19q-17 0 -43 15q-38 26 -80 26q-58 0 -96.5 -39t-38.5 -96t38.5 -96t96.5 -39q47 0 85 30q24 15 43 15q28 0 46.5 -19t18.5 -48q0 -32 -30 -56q-67 -55 -166 -55q-120 0 -198.5 76
t-78.5 190z" />
    <glyph glyph-name="d" unicode="d" horiz-adv-x="649" 
d="M516 705q32 0 52.5 -20t20.5 -52v-571q0 -29 -19 -48t-48 -19q-30 0 -48.5 19t-18.5 48v13q-66 -85 -171 -85q-103 0 -176 77t-73 189q0 113 75 192t179 79q96 0 154 -69v175q0 32 20.5 52t52.5 20zM314 123q57 0 95.5 39t38.5 96t-38.5 96t-95.5 39t-95.5 -39t-38.5 -96
t38.5 -96t95.5 -39z" />
    <glyph glyph-name="e" unicode="e" horiz-adv-x="601" 
d="M35 256q0 114 80 192.5t198 78.5q106 0 181.5 -71.5t75.5 -163.5q0 -28 -16.5 -45t-44.5 -17h-326q7 -51 45 -82.5t94 -31.5q58 0 111 41q20 13 40 13q26 0 42.5 -16t16.5 -42q0 -30 -32 -57q-73 -65 -188 -65q-120 0 -198.5 76t-78.5 190zM183 318h247q-7 42 -41 71.5
t-78 29.5q-48 0 -83 -28.5t-45 -72.5z" />
    <glyph glyph-name="f" unicode="f" horiz-adv-x="436" 
d="M15 428q0 26 16.5 42.5t42.5 16.5h41v40q0 87 48 135t132 48q51 0 81 -10q53 -13 53 -56q0 -25 -15.5 -40.5t-40.5 -15.5q-3 0 -15 2t-22 2q-76 0 -76 -76v-29h101q26 0 42.5 -16.5t16.5 -42.5t-16.5 -42.5t-42.5 -16.5h-101v-301q0 -32 -20 -52.5t-52 -20.5t-52.5 20.5
t-20.5 52.5v301h-41q-26 0 -42.5 16.5t-16.5 42.5z" />
    <glyph glyph-name="g" unicode="g" horiz-adv-x="649" 
d="M522 522q29 0 48 -19t19 -49v-325q0 -137 -77 -218t-216 -81q-132 0 -221 57q-36 21 -36 56q0 26 16 42.5t42 16.5q15 0 39 -11q75 -39 148 -39q75 0 117 37.5t42 107.5v11q-56 -63 -155 -63q-107 0 -180 69.5t-73 168.5q0 104 72.5 174t185.5 70q99 0 162 -68
q2 28 20.5 45.5t46.5 17.5zM314 160q57 0 95.5 35.5t38.5 86.5t-38.5 86.5t-95.5 35.5t-95.5 -35.5t-38.5 -86.5t38.5 -86.5t95.5 -35.5z" />
    <glyph glyph-name="h" unicode="h" horiz-adv-x="614" 
d="M366 527q83 0 138.5 -56.5t55.5 -155.5v-247q0 -32 -20.5 -52.5t-52.5 -20.5t-52 20.5t-20 52.5v200q0 62 -28 93.5t-73 31.5q-47 0 -77.5 -31t-31.5 -92v-202q0 -32 -20 -52.5t-52 -20.5t-52.5 20.5t-20.5 52.5v565q0 32 20.5 52t52.5 20q31 0 51.5 -20.5t20.5 -51.5
v-188q56 82 161 82z" />
    <glyph glyph-name="i" unicode="i" horiz-adv-x="277" 
d="M139 575q-39 0 -63.5 23.5t-24.5 60.5q0 36 24.5 60t63.5 24q38 0 62.5 -24t24.5 -60q0 -37 -24.5 -60.5t-62.5 -23.5zM139 522q32 0 52.5 -21t20.5 -53v-379q0 -32 -20.5 -53t-52.5 -21q-33 0 -53.5 21t-20.5 53v379q0 32 20.5 53t53.5 21z" />
    <glyph glyph-name="j" unicode="j" horiz-adv-x="277" 
d="M139 575q-39 0 -63.5 23.5t-24.5 60.5q0 36 24.5 60t63.5 24q38 0 62.5 -24t24.5 -60q0 -37 -24.5 -60.5t-62.5 -23.5zM139 522q32 0 52.5 -21t20.5 -53v-405q0 -104 -49.5 -158.5t-137.5 -54.5q-26 0 -41 5q-25 6 -41.5 22.5t-16.5 40.5q0 27 17 43.5t44 16.5
q1 0 5.5 -1t9.5 -1q63 0 63 74v418q0 32 20.5 53t53.5 21z" />
    <glyph glyph-name="k" unicode="k" horiz-adv-x="548" 
d="M60 68v565q0 32 20.5 52t52.5 20q31 0 51.5 -20.5t20.5 -51.5v-342l205 207q22 24 52 24q28 0 45 -17.5t17 -45.5q0 -29 -20 -49l-148 -132l159 -168q18 -21 18 -48q0 -29 -18.5 -48t-48.5 -19q-35 0 -59 31l-202 231v-189q0 -32 -20 -52.5t-52 -20.5t-52.5 20.5
t-20.5 52.5z" />
    <glyph glyph-name="l" unicode="l" horiz-adv-x="277" 
d="M139 705q32 0 52.5 -20.5t20.5 -52.5v-563q0 -32 -20.5 -53t-52.5 -21q-33 0 -53.5 21t-20.5 53v563q0 32 20.5 52.5t53.5 20.5z" />
    <glyph glyph-name="m" unicode="m" horiz-adv-x="949" 
d="M705 527q83 0 136.5 -56.5t53.5 -154.5v-248q0 -32 -20.5 -52.5t-52.5 -20.5t-52.5 20.5t-20.5 52.5v201q0 62 -26 93t-69 31q-44 0 -73.5 -29.5t-30.5 -89.5v-206q0 -32 -20.5 -52.5t-52.5 -20.5t-52 20.5t-20 52.5v201q0 62 -26.5 93t-69.5 31q-44 0 -73 -29.5
t-31 -89.5v-206q0 -32 -20 -52.5t-52 -20.5t-52.5 20.5t-20.5 52.5v386q0 29 19 48.5t49 19.5q29 0 48 -19.5t19 -48.5v-17q26 43 70 66.5t96 23.5q57 0 101.5 -28t67.5 -81q24 52 70.5 80.5t104.5 28.5z" />
    <glyph glyph-name="n" unicode="n" horiz-adv-x="614" 
d="M366 527q85 0 139.5 -56.5t54.5 -155.5v-247q0 -32 -20.5 -52.5t-52.5 -20.5t-52 20.5t-20 52.5v200q0 62 -28 93.5t-73 31.5q-48 0 -78.5 -32.5t-30.5 -97.5v-195q0 -32 -20 -52.5t-52 -20.5t-52.5 20.5t-20.5 52.5v386q0 29 19 48.5t49 19.5q29 0 48 -19.5t19 -48.5
v-18q27 45 72.5 68t98.5 23z" />
    <glyph glyph-name="o" unicode="o" horiz-adv-x="629" 
d="M35 256q0 114 81 192.5t201 78.5t198.5 -76t78.5 -190t-81 -192.5t-201 -78.5t-198.5 76t-78.5 190zM180 258q0 -57 38.5 -96t96.5 -39q57 0 95.5 39t38.5 96t-38.5 96t-95.5 39q-58 0 -96.5 -39t-38.5 -96z" />
    <glyph glyph-name="p" unicode="p" horiz-adv-x="649" 
d="M365 527q103 0 176 -77t73 -189q0 -113 -75 -192t-179 -79q-95 0 -155 68v-151q0 -31 -20.5 -51.5t-51.5 -20.5q-32 0 -52.5 20t-20.5 52v547q0 30 18.5 49t48.5 19q29 0 48 -19t19 -49v-12q65 85 171 85zM334 123q57 0 95.5 39t38.5 96t-38.5 96t-95.5 39t-95.5 -39
t-38.5 -96t38.5 -96t95.5 -39z" />
    <glyph glyph-name="q" unicode="q" horiz-adv-x="649" 
d="M522 522q29 0 48 -19t19 -49v-547q0 -32 -20.5 -52t-52.5 -20t-52.5 20t-20.5 52v156q-60 -73 -159 -73q-103 0 -176 77t-73 189q0 113 75 192t179 79q105 0 166 -80v7q0 30 18.5 49t48.5 19zM314 123q57 0 95.5 39t38.5 96t-38.5 96t-95.5 39t-95.5 -39t-38.5 -96
t38.5 -96t95.5 -39z" />
    <glyph glyph-name="r" unicode="r" horiz-adv-x="414" 
d="M60 68v390q0 28 18 46t46 18q29 0 47 -18t18 -46l1 -42q48 111 145 111q33 0 54 -21t21 -53q0 -34 -21 -54.5t-54 -20.5q-60 0 -95 -38t-35 -112v-160q0 -32 -20 -52.5t-52 -20.5t-52.5 20.5t-20.5 52.5z" />
    <glyph glyph-name="s" unicode="s" horiz-adv-x="469" 
d="M20 93q0 24 14.5 39t39.5 15q18 0 35 -10q55 -39 117 -39q31 0 47.5 12.5t16.5 31.5q0 21 -21.5 38t-87.5 38q-143 46 -143 155q0 64 53 109t146 45q85 0 149 -41q35 -21 35 -52q0 -25 -15 -40t-38 -15q-15 0 -39 13q-43 27 -87 27q-29 0 -44.5 -11.5t-15.5 -27.5
q0 -19 19 -34.5t75 -32.5q77 -23 117.5 -64t40.5 -96q0 -72 -55 -117.5t-152 -45.5q-111 0 -176 51q-31 24 -31 52z" />
    <glyph glyph-name="t" unicode="t" horiz-adv-x="450" 
d="M15 458q0 26 16 42.5t43 16.5h41v56q0 32 20.5 52t52.5 20t52 -20t20 -52v-56h107q26 0 42 -16.5t16 -42.5t-16 -42.5t-42 -16.5h-107v-208q0 -68 61 -68q12 0 25 2t15 2q29 0 46 -16t17 -44q0 -47 -50 -65q-42 -12 -90 -12q-78 0 -123.5 43t-45.5 121v245h-41
q-27 0 -43 16.5t-16 42.5z" />
    <glyph glyph-name="u" unicode="u" horiz-adv-x="614" 
d="M481 522q32 0 52.5 -20.5t20.5 -52.5v-386q0 -29 -19 -48.5t-49 -19.5q-29 0 -48 19.5t-19 48.5v18q-27 -44 -72.5 -67.5t-98.5 -23.5q-85 0 -139.5 56.5t-54.5 155.5v247q0 32 20.5 52.5t52.5 20.5t52 -20.5t20 -52.5v-200q0 -62 28 -93.5t73 -31.5q48 0 78.5 32.5
t30.5 97.5v195q0 32 20 52.5t52 20.5z" />
    <glyph glyph-name="v" unicode="v" horiz-adv-x="529" 
d="M12 448q0 33 21 53.5t53 20.5q50 0 72 -58l109 -278l110 282q20 54 70 54q30 0 50 -20t20 -49q0 -14 -8 -34l-147 -347q-31 -77 -99 -77q-66 0 -99 77l-144 339q-8 22 -8 37z" />
    <glyph glyph-name="w" unicode="w" horiz-adv-x="776" 
d="M12 449q0 32 20.5 52.5t52.5 20.5q26 0 45 -14t26 -39l85 -273l82 272q16 54 69 54q25 0 43 -14.5t25 -39.5l81 -268l85 269q8 24 26.5 38.5t42.5 14.5q31 0 50.5 -19.5t19.5 -50.5q0 -14 -6 -31l-124 -361q-22 -65 -87 -65q-67 0 -87 66l-74 235l-73 -236
q-9 -31 -32 -48t-55 -17q-65 0 -87 65l-123 360q-5 15 -5 29z" />
    <glyph glyph-name="x" unicode="x" horiz-adv-x="522" 
d="M15 59q0 27 19 46l139 157l-127 145q-19 23 -19 48q0 29 19.5 48t49.5 19q36 0 58 -29l111 -137l112 135q24 31 57 31q28 0 46.5 -18t18.5 -46q0 -25 -20 -49l-128 -142l138 -157q19 -25 19 -48q0 -29 -19.5 -47.5t-49.5 -19.5q-37 2 -58 29l-122 148l-122 -147
q-24 -30 -57 -30q-28 0 -46.5 18t-18.5 46z" />
    <glyph glyph-name="y" unicode="y" horiz-adv-x="529" 
d="M2 -94q0 27 17 44t44 17q9 0 26.5 -3.5t28.5 -3.5q51 0 72 48l-168 400q-10 28 -10 40q0 33 21 53.5t55 20.5q49 0 71 -60l108 -291l109 296q20 55 70 55q31 0 51 -20t20 -49q0 -17 -9 -37l-178 -421q-36 -84 -85.5 -124.5t-123.5 -40.5q-39 0 -75 16q-44 18 -44 60z" />
    <glyph glyph-name="z" unicode="z" horiz-adv-x="529" 
d="M30 69q0 30 23 55l239 270h-186q-27 0 -44 17.5t-17 44.5q0 26 17 43.5t44 17.5h318q31 0 51 -19.5t20 -49.5q0 -32 -25 -57l-237 -269h201q27 0 44 -17t17 -44t-17 -44t-44 -17h-334q-31 0 -50.5 19t-19.5 50z" />
    <glyph glyph-name="braceleft" unicode="{" horiz-adv-x="475" 
d="M387 38q26 0 42 -16.5t16 -42.5t-16 -42.5t-42 -16.5h-81q-86 0 -126 40t-40 126v163q0 48 -48 48h-9q-25 0 -39 14.5t-14 38.5t14 38.5t39 14.5h9q48 0 48 48v163q0 86 40 126t126 40h81q25 0 41.5 -16t16.5 -42q0 -27 -16 -43.5t-42 -16.5h-46q-31 0 -45 -14.5
t-14 -45.5v-140q0 -54 -23 -82t-65 -30q88 -3 88 -112v-140q0 -31 14 -45.5t45 -14.5h46z" />
    <glyph glyph-name="bar" unicode="|" horiz-adv-x="335" 
d="M168 805q26 0 41.5 -15.5t15.5 -41.5v-799q0 -26 -15.5 -42t-41.5 -16t-42 16t-16 42v799q0 26 16 41.5t42 15.5z" />
    <glyph glyph-name="braceright" unicode="}" horiz-adv-x="475" 
d="M392 403q25 0 39 -14.5t14 -38.5t-14 -38.5t-39 -14.5h-9q-48 0 -48 -48v-163q0 -86 -40.5 -126t-125.5 -40h-81q-26 0 -42 16t-16 42q0 27 16 43.5t42 16.5h46q31 0 45 14.5t14 45.5v140q0 54 23 82t65 30q-88 3 -88 112v140q0 31 -14 45.5t-45 14.5h-46q-26 0 -42 16.5
t-16 42.5t16 42.5t42 16.5h81q85 0 125.5 -40t40.5 -126v-163q0 -48 48 -48h9z" />
    <glyph glyph-name="asciitilde" unicode="~" 
d="M416 214q-37 0 -69 16.5t-50.5 36.5t-42.5 36.5t-47 16.5q-18 0 -30 -10t-16.5 -19.5t-9.5 -24.5q-18 -46 -53 -46q-23 0 -38.5 16.5t-15.5 41.5q0 5 2 19q11 57 48 103t104 46q37 0 69.5 -16.5t51.5 -36.5t43 -36.5t46 -16.5q13 0 23 4.5t16.5 15t9 16t7.5 18.5
q19 46 53 46q23 0 38.5 -16.5t15.5 -41.5q0 -5 -2 -19q-5 -25 -15 -48t-27.5 -47.5t-46 -39t-64.5 -14.5z" />
    <glyph glyph-name="exclamdown" unicode="&#xa1;" horiz-adv-x="323" 
d="M253 618q0 -38 -27 -64.5t-65 -26.5q-37 0 -64 26.5t-27 64.5t26.5 65t64.5 27t65 -27t27 -65zM243 80q3 -36 -20.5 -60.5t-61.5 -24.5q-37 0 -60.5 24.5t-21.5 60.5l22 322q2 27 18.5 44.5t41.5 17.5q26 0 42.5 -17.5t18.5 -44.5z" />
    <glyph glyph-name="cent" unicode="&#xa2;" horiz-adv-x="553" 
d="M45 439q0 100 64 174.5t164 91.5v58q0 19 11.5 30.5t30.5 11.5t30.5 -11.5t11.5 -30.5v-55q65 -4 119 -41q39 -26 39 -64q0 -29 -18.5 -48t-48.5 -19q-17 0 -43 14q-37 27 -80 27q-58 0 -96.5 -39t-38.5 -96t38.5 -96t96.5 -39q45 0 85 29q24 15 43 15q29 0 47 -18.5
t18 -47.5q0 -32 -29 -56q-53 -45 -132 -53v-55q0 -20 -11.5 -31.5t-30.5 -11.5t-30.5 12t-11.5 31v56q-101 16 -164.5 88.5t-63.5 173.5z" />
    <glyph glyph-name="sterling" unicode="&#xa3;" horiz-adv-x="600" 
d="M30 342q0 20 11 31t31 11h48v81q0 114 68.5 179.5t174.5 65.5q63 0 106.5 -23t63.5 -47q29 -31 29 -59q0 -30 -18.5 -48t-47.5 -18q-28 0 -54 26q-36 36 -82 36q-42 0 -68.5 -27t-26.5 -70v-96h169q19 0 30 -11.5t11 -30.5t-11 -30t-30 -11h-169v-176h233q27 0 44.5 -17
t17.5 -45t-17.5 -45.5t-44.5 -17.5h-305q-32 0 -52.5 20.5t-20.5 52.5v228h-48q-19 0 -30.5 11t-11.5 30z" />
    <glyph glyph-name="currency" unicode="&#xa4;" horiz-adv-x="668" 
d="M45 100q0 18 17 33l72 68q-50 64 -50 147q0 81 51 148l-76 74q-14 11 -14 31q0 17 11 28.5t29 11.5q17 0 33 -16l76 -74q63 44 142 44q78 0 139 -42l75 72q16 16 33 16q18 0 29 -11.5t11 -28.5q0 -18 -17 -35l-71 -68q50 -66 50 -146q0 -81 -52 -149l73 -69
q17 -17 17 -34q0 -18 -11 -29.5t-29 -11.5q-17 0 -31 14l-78 76q-63 -44 -142 -44t-140 42l-74 -72q-16 -16 -33 -16q-18 0 -29 11.5t-11 29.5zM208 350q0 -54 36.5 -90.5t89.5 -36.5q54 0 90 36.5t36 90.5t-36 90.5t-90 36.5q-53 0 -89.5 -36.5t-36.5 -90.5z" />
    <glyph glyph-name="yen" unicode="&#xa5;" horiz-adv-x="635" 
d="M22 216q0 17 11 27.5t28 10.5h180v50l-14 24h-166q-17 0 -28 10.5t-11 27.5t11 27.5t28 10.5h121l-113 180q-15 23 -15 47q0 32 21 53t53 21q46 0 71 -49l123 -216l123 220q21 45 67 45q32 0 51.5 -19.5t19.5 -51.5q0 -23 -13 -44l-118 -186h123q17 0 27.5 -10.5
t10.5 -27.5q0 -16 -10.5 -27t-27.5 -11h-168l-13 -21v-53h181q17 0 27.5 -10.5t10.5 -27.5q0 -16 -10.5 -27t-27.5 -11h-181v-106q0 -34 -21.5 -55.5t-54.5 -21.5q-34 0 -55.5 21.5t-21.5 55.5v106h-180q-17 0 -28 10.5t-11 27.5z" />
    <glyph glyph-name="brokenbar" unicode="&#xa6;" horiz-adv-x="335" 
d="M110 508v240q0 26 16 41.5t42 15.5t41.5 -15.5t15.5 -41.5v-240q0 -26 -15.5 -42t-41.5 -16t-42 16t-16 42zM110 -51v244q0 26 16 41.5t42 15.5t41.5 -16t15.5 -41v-244q0 -26 -15.5 -42t-41.5 -16t-42 16t-16 42z" />
    <glyph glyph-name="section" unicode="&#xa7;" horiz-adv-x="650" 
d="M45 281q0 50 32.5 89t91.5 59q-44 45 -44 104q0 78 60.5 127.5t160.5 49.5q92 0 162 -49q32 -23 32 -56q0 -27 -17 -43.5t-44 -16.5q-21 0 -44 15q-46 29 -87 29q-31 0 -48.5 -14.5t-17.5 -34.5q0 -24 23.5 -44.5t85.5 -40.5q115 -38 164.5 -86t49.5 -110
q0 -51 -32.5 -89.5t-92.5 -58.5q45 -46 45 -104q0 -78 -60.5 -127.5t-159.5 -49.5q-95 0 -162 49q-33 23 -33 56q0 27 17 43.5t44 16.5q22 0 44 -15q46 -29 88 -29q31 0 48 13.5t17 35.5q0 50 -108 85q-115 38 -165 86t-50 110zM194 303q0 -32 32 -56.5t119 -50.5
q17 -6 47 -18q64 13 64 59q0 32 -32 56.5t-119 50.5q-23 7 -47 17q-29 -5 -46.5 -20.5t-17.5 -37.5z" />
    <glyph glyph-name="dieresis" unicode="&#xa8;" horiz-adv-x="510" 
d="M144 582q-33 0 -54 21.5t-21 54.5t22 55t55 22t54 -21.5t21 -53.5q0 -33 -22 -55.5t-55 -22.5zM364 582q-33 0 -54 21.5t-21 54.5t22 55t55 22t54.5 -21.5t21.5 -53.5q0 -33 -22.5 -55.5t-55.5 -22.5z" />
    <glyph glyph-name="copyright" unicode="&#xa9;" horiz-adv-x="826" 
d="M50 348q0 152 105.5 257t259.5 105t257.5 -103t103.5 -255t-105.5 -257t-259.5 -105t-257.5 103t-103.5 255zM132 350q0 -119 81.5 -201t199.5 -82t199.5 82t81.5 201t-81.5 201t-199.5 82t-199.5 -82t-81.5 -201zM222 348q0 84 57 142t144 58q63 0 117 -37
q28 -18 28 -41q0 -19 -11 -31t-29 -12q-14 0 -34 13q-34 23 -69 23q-47 0 -78.5 -32.5t-31.5 -80.5t31.5 -80.5t78.5 -32.5q38 0 75 27q17 13 31 13q17 0 28.5 -11t11.5 -29q0 -22 -18 -36q-63 -49 -133 -49q-87 0 -142.5 56t-55.5 140z" />
    <glyph glyph-name="ordfeminine" unicode="&#xaa;" horiz-adv-x="405" 
d="M52 475q0 42 35 70t92 28q45 0 75 -19v10q0 31 -17.5 47.5t-48.5 16.5q-28 0 -58 -13q-15 -6 -21 -6q-15 0 -24.5 10t-9.5 25q0 22 25 35q45 25 106 25q68 0 107.5 -38t39.5 -104v-138q0 -18 -12.5 -30.5t-31.5 -12.5q-27 0 -38 23l-1 6q-36 -30 -94 -30q-57 0 -90.5 26
t-33.5 69zM151 478q0 -16 14 -28t37 -12q25 0 40 12t15 28q0 17 -15 29t-40 12q-23 0 -37 -12t-14 -29zM57 303q0 13 8.5 22t22.5 9h239q13 0 22 -9t9 -22t-9 -22t-22 -9h-239q-13 0 -22 9t-9 22z" />
    <glyph glyph-name="guillemotleft" unicode="&#xab;" horiz-adv-x="752" 
d="M377 350q0 27 23 46l202 188q20 18 42 18q24 0 39.5 -15.5t15.5 -39.5q0 -22 -16 -40l-153 -155l146 -148q23 -25 23 -47q0 -25 -16 -40.5t-41 -15.5q-23 0 -44 19l-198 184q-23 19 -23 46zM54 350q0 26 22 46l202 188q20 18 42 18q24 0 39.5 -15.5t15.5 -39.5
q0 -22 -16 -40l-152 -155l145 -148q23 -25 23 -47q0 -25 -16 -40.5t-41 -15.5q-23 0 -44 19l-198 184q-22 20 -22 46z" />
    <glyph glyph-name="logicalnot" unicode="&#xac;" 
d="M504 443q27 0 44 -17t17 -44v-166q0 -27 -17 -44t-44 -17q-26 0 -43.5 17t-17.5 44v113h-341q-25 0 -41 16t-16 41t16 41t41 16h402z" />
    <glyph glyph-name="registered" unicode="&#xae;" horiz-adv-x="536" 
d="M50 493q0 91 63.5 154t155.5 63t154.5 -62t62.5 -153t-63.5 -154t-155.5 -63t-154.5 62t-62.5 153zM103 494q0 -71 47.5 -118.5t117.5 -47.5t117.5 47.5t47.5 118.5t-47.5 118.5t-117.5 47.5t-117.5 -47.5t-47.5 -118.5zM187 412v162q0 11 7.5 18t18.5 7h70
q35 0 56.5 -19.5t21.5 -50.5q0 -46 -42 -63l29 -38q8 -9 8 -19t-7 -16.5t-17 -6.5q-13 0 -22 12l-45 60h-26v-46q0 -12 -7.5 -19t-18.5 -7t-18.5 7t-7.5 19zM239 499h38q32 0 32 27q0 29 -32 29h-38v-56z" />
    <glyph glyph-name="macron" unicode="&#xaf;" horiz-adv-x="460" 
d="M373 702q19 0 30.5 -12t11.5 -30t-11.5 -30t-30.5 -12h-286q-19 0 -30.5 12t-11.5 30t11.5 30t30.5 12h286z" />
    <glyph glyph-name="degree" unicode="&#xb0;" horiz-adv-x="433" 
d="M40 535q0 74 51.5 124.5t126.5 50.5t125 -49.5t50 -123.5t-51 -124.5t-126 -50.5t-125.5 49.5t-50.5 123.5zM127 536q0 -40 25 -65.5t65 -25.5q39 0 64 25.5t25 65.5t-25 66t-64 26q-40 0 -65 -26t-25 -66z" />
    <glyph glyph-name="plusminus" unicode="&#xb1;" 
d="M102 383q-26 0 -41.5 15.5t-15.5 41.5t15.5 41.5t41.5 15.5h147v123q0 26 16.5 42t42.5 16t42 -16t16 -42v-123h147q25 0 41 -15.5t16 -41.5t-16 -41.5t-41 -15.5h-147v-122q0 -26 -16 -42t-42 -16t-42.5 16t-16.5 42v122h-147zM513 142q25 0 41 -16t16 -41t-16 -41.5
t-41 -16.5h-411q-25 0 -41 16.5t-16 41.5t16 41t41 16h411z" />
    <glyph glyph-name="uni00B2" unicode="&#xb2;" horiz-adv-x="358" 
d="M31 328q0 22 21 43l127 119q47 44 47 81q0 20 -15 34t-37 14q-35 0 -62 -31q-18 -20 -36 -20q-19 0 -31 11.5t-12 30.5q0 15 13 33q47 63 137 63q62 0 101.5 -35.5t39.5 -88.5q0 -40 -18.5 -71.5t-60.5 -70.5l-83 -76h122q19 0 30.5 -11.5t11.5 -29.5q0 -19 -11.5 -31
t-30.5 -12h-204q-22 0 -35.5 13.5t-13.5 34.5z" />
    <glyph glyph-name="uni00B3" unicode="&#xb3;" horiz-adv-x="351" 
d="M20 363q0 18 12 29.5t31 11.5q17 0 34 -19q24 -28 63 -28q28 0 44.5 14t16.5 36q0 23 -17 38.5t-50 15.5h-12q-16 0 -25.5 10t-9.5 25t9.5 25t25.5 10h12q27 0 41 13t14 34t-14 33t-36 12q-33 0 -49 -21q-16 -18 -34 -18t-29.5 11.5t-11.5 29.5q0 14 13 29q43 52 118 52
q61 0 101 -31.5t40 -81.5q0 -60 -59 -94q71 -33 71 -102q0 -55 -44 -89t-113 -34q-81 0 -131 60q-11 15 -11 29z" />
    <glyph glyph-name="acute" unicode="&#xb4;" horiz-adv-x="370" 
d="M96 618q0 22 19 43l52 66q24 26 50 26q24 0 40 -17.5t16 -41.5q0 -34 -29 -54l-65 -60q-17 -13 -33 -13q-22 0 -36 14.5t-14 36.5z" />
    <glyph glyph-name="uni00B5" unicode="&#xb5;" horiz-adv-x="620" 
d="M487 522q32 0 52.5 -20.5t20.5 -52.5v-386q0 -29 -19 -48.5t-49 -19.5q-29 0 -48 19.5t-19 48.5v18q-27 -44 -72.5 -67.5t-98.5 -23.5q-22 0 -49 5v-88q0 -31 -20.5 -51.5t-51.5 -20.5q-32 0 -52.5 20t-20.5 52v439v103q0 32 20.5 52.5t52.5 20.5t52 -20.5t20 -52.5v-200
q0 -62 28 -93.5t73 -31.5q48 0 78.5 32.5t30.5 97.5v195q0 32 20 52.5t52 20.5z" />
    <glyph glyph-name="paragraph" unicode="&#xb6;" horiz-adv-x="792" 
d="M627 700q29 0 47 -18t18 -47v-574q0 -29 -18 -47.5t-47 -18.5t-47.5 18.5t-18.5 47.5v521h-124v-521q0 -29 -18 -47.5t-47 -18.5t-47.5 18.5t-18.5 47.5v209h-22q-109 0 -175.5 59.5t-66.5 153.5t69 155.5t178 61.5h338z" />
    <glyph glyph-name="periodcentered" unicode="&#xb7;" horiz-adv-x="288" 
d="M52 350q0 38 27 65t65 27t64.5 -27t26.5 -65t-26.5 -64.5t-64.5 -26.5t-65 26.5t-27 64.5z" />
    <glyph glyph-name="cedilla" unicode="&#xb8;" horiz-adv-x="355" 
d="M44 -134q0 20 12 32t32 12q7 0 24.5 -5t31.5 -5q29 0 46 14.5t17 39.5q0 5 -1 10.5t-2.5 9.5t-4 7.5l-4.5 6.5t-4.5 5t-4 3.5l-2.5 2.5l-2 1l44 56q3 -1 9 -3.5t20.5 -12.5t26 -22t20.5 -33t9 -45q0 -62 -46 -98.5t-110 -36.5q-42 0 -76 15q-35 15 -35 46z" />
    <glyph glyph-name="uni00B9" unicode="&#xb9;" horiz-adv-x="298" 
d="M22 578q0 21 22 37l105 75q20 15 41 15q24 0 39.5 -16t15.5 -41v-323q0 -22 -13 -36t-35 -14t-36 14t-14 36v260l-53 -36q-18 -12 -31 -12q-18 0 -29.5 11t-11.5 30z" />
    <glyph glyph-name="ordmasculine" unicode="&#xba;" horiz-adv-x="451" 
d="M223 380q-74 0 -122.5 45.5t-48.5 114.5t50.5 116.5t124.5 47.5q75 0 123.5 -45.5t48.5 -114.5t-50.5 -116.5t-125.5 -47.5zM225 468q32 0 53.5 21t21.5 53t-21.5 53t-53.5 21q-31 0 -52.5 -21t-21.5 -53t21.5 -53t52.5 -21zM88 272q-13 0 -22 9t-9 22t8.5 22t22.5 9h275
q13 0 22 -9t9 -22t-9 -22t-22 -9h-275z" />
    <glyph glyph-name="guillemotright" unicode="&#xbb;" horiz-adv-x="752" 
d="M375 352q0 -27 -23 -46l-202 -188q-17 -17 -42 -17q-23 0 -38.5 15t-15.5 39q0 23 15 40l153 156l-146 147q-22 24 -22 47q0 25 15.5 40.5t40.5 15.5q23 0 45 -19l197 -184q23 -19 23 -46zM699 352q0 -27 -23 -46l-202 -188q-19 -17 -42 -17q-24 0 -39.5 15t-15.5 39
t16 40l153 156l-146 147q-23 25 -23 47q0 25 16 40.5t41 15.5q23 0 45 -19l197 -184q23 -19 23 -46z" />
    <glyph glyph-name="onequarter" unicode="&#xbc;" horiz-adv-x="835" 
d="M40 578q0 22 21 37l106 75q20 15 40 15q25 0 40.5 -16t15.5 -41v-323q0 -22 -13.5 -36t-35.5 -14t-35.5 14t-13.5 36v260l-54 -36q-18 -12 -31 -12q-18 0 -29 11t-11 30zM150 33q0 13 12 30l466 623q14 19 35 19q17 0 27.5 -10.5t10.5 -26.5q0 -15 -12 -30l-467 -623
q-14 -20 -35 -20q-17 0 -27 10.5t-10 27.5zM456 143q0 20 15 40l151 210q25 32 56 32q26 0 43 -17.5t17 -44.5v-198h29q17 0 27.5 -10.5t10.5 -27.5t-10.5 -27.5t-27.5 -10.5h-29v-49q0 -20 -12.5 -32.5t-32.5 -12.5q-19 0 -32 12.5t-13 32.5v49h-136q-25 0 -40.5 15
t-15.5 39zM540 165h108v149z" />
    <glyph glyph-name="onehalf" unicode="&#xbd;" horiz-adv-x="888" 
d="M40 578q0 22 21 37l106 75q20 15 40 15q25 0 40.5 -16t15.5 -41v-323q0 -22 -13.5 -36t-35.5 -14t-35.5 14t-13.5 36v260l-54 -36q-18 -12 -31 -12q-18 0 -29 11t-11 30zM150 33q0 13 12 30l466 623q14 19 35 19q17 0 27.5 -10.5t10.5 -26.5q0 -15 -12 -30l-467 -623
q-14 -20 -35 -20q-17 0 -27 10.5t-10 27.5zM547 48q0 23 21 43l127 119q46 43 46 81q0 20 -14.5 34t-36.5 14q-34 0 -63 -31q-18 -20 -36 -20q-19 0 -30.5 11.5t-11.5 30.5q0 18 13 33q47 63 136 63q63 0 102 -35.5t39 -88.5q0 -40 -18.5 -71.5t-60.5 -70.5l-83 -76h123
q18 0 29.5 -11.5t11.5 -29.5q0 -19 -11.5 -31t-29.5 -12h-205q-22 0 -35 13.5t-13 34.5z" />
    <glyph glyph-name="threequarters" unicode="&#xbe;" horiz-adv-x="855" 
d="M30 363q0 17 12 29t30 12q19 0 34 -19q26 -28 64 -28q28 0 44.5 14t16.5 36q0 23 -17.5 38.5t-50.5 15.5h-11q-16 0 -25.5 10t-9.5 25t9.5 25t25.5 10h12q26 0 40.5 13t14.5 34t-14 33t-37 12q-30 0 -49 -21q-16 -18 -33 -18q-19 0 -30 11.5t-11 29.5q0 13 12 29
q45 52 118 52q62 0 102 -31.5t40 -81.5q0 -60 -59 -94q71 -33 71 -102q0 -55 -44 -89t-114 -34q-80 0 -130 60q-11 13 -11 29zM170 33q0 13 12 30l466 623q14 19 35 19q17 0 27.5 -10.5t10.5 -26.5q0 -15 -12 -30l-467 -623q-14 -20 -35 -20q-17 0 -27 10.5t-10 27.5z
M476 143q0 20 15 40l151 210q25 32 56 32q26 0 43 -17.5t17 -44.5v-198h29q17 0 27.5 -10.5t10.5 -27.5t-10.5 -27.5t-27.5 -10.5h-29v-49q0 -20 -12.5 -32.5t-32.5 -12.5q-19 0 -32 12.5t-13 32.5v49h-136q-25 0 -40.5 15t-15.5 39zM560 165h108v149z" />
    <glyph glyph-name="questiondown" unicode="&#xbf;" horiz-adv-x="530" 
d="M279 710q38 0 65 -27t27 -65t-27 -64.5t-65 -26.5q-37 0 -64 26.5t-27 64.5t26.5 65t64.5 27zM277 464q25 0 40 -15t15 -39q-1 -30 -22 -56.5t-45.5 -43.5t-45 -44t-20.5 -58q0 -34 22.5 -56.5t57.5 -22.5q52 0 92 50q24 27 55 27q29 0 46.5 -18.5t17.5 -47.5
q0 -26 -17 -48q-71 -102 -205 -102q-93 0 -156 57t-63 137q0 44 18 83.5t39.5 61.5l54.5 53.5t48 48.5q39 33 68 33z" />
    <glyph glyph-name="Agrave" unicode="&#xc0;" horiz-adv-x="692" 
d="M387 798q0 -22 -14 -36.5t-36 -14.5q-16 0 -33 13l-65 60q-29 20 -29 54q0 24 16 41.5t40 17.5q26 0 50 -26l52 -66q19 -21 19 -43zM12 67q0 16 11 43l219 517q34 78 106 78q74 0 105 -78l215 -509q11 -27 11 -46q0 -34 -21 -55.5t-55 -21.5q-55 0 -76 58l-38 94h-293
l-37 -93q-22 -59 -73 -59q-32 0 -53 20.5t-21 51.5zM241 268h203l-101 260z" />
    <glyph glyph-name="Aacute" unicode="&#xc1;" horiz-adv-x="692" 
d="M304 798q0 22 19 43l52 66q24 26 50 26q24 0 40 -17.5t16 -41.5q0 -34 -29 -54l-65 -60q-17 -13 -33 -13q-22 0 -36 14.5t-14 36.5zM12 67q0 16 11 43l219 517q34 78 106 78q74 0 105 -78l215 -509q11 -27 11 -46q0 -34 -21 -55.5t-55 -21.5q-55 0 -76 58l-38 94h-293
l-37 -93q-22 -59 -73 -59q-32 0 -53 20.5t-21 51.5zM241 268h203l-101 260z" />
    <glyph glyph-name="Acircumflex" unicode="&#xc2;" horiz-adv-x="692" 
d="M521 799q0 -22 -14.5 -37t-35.5 -15q-20 0 -37 14l-89 76l-90 -77q-16 -13 -34 -13q-21 0 -35.5 14.5t-14.5 36.5q0 26 21 43l63 58q40 34 91 34t92 -34l62 -57q21 -18 21 -43zM12 67q0 16 11 43l219 517q34 78 106 78q74 0 105 -78l215 -509q11 -27 11 -46
q0 -34 -21 -55.5t-55 -21.5q-55 0 -76 58l-38 94h-293l-37 -93q-22 -59 -73 -59q-32 0 -53 20.5t-21 51.5zM241 268h203l-101 260z" />
    <glyph glyph-name="Atilde" unicode="&#xc3;" horiz-adv-x="692" 
d="M207 758q-17 0 -27.5 11.5t-10.5 28.5q0 6 2 20q7 35 32.5 66t69.5 31q33 0 59 -18t45 -36t37 -18q23 0 33 38q8 31 37 31q17 0 27.5 -11.5t10.5 -28.5q0 -6 -2 -20q-7 -35 -32.5 -66t-69.5 -31q-33 0 -58.5 18t-45 36t-37.5 18q-23 0 -33 -38q-8 -31 -37 -31zM12 67
q0 16 11 43l219 517q34 78 106 78q74 0 105 -78l215 -509q11 -27 11 -46q0 -34 -21 -55.5t-55 -21.5q-55 0 -76 58l-38 94h-293l-37 -93q-22 -59 -73 -59q-32 0 -53 20.5t-21 51.5zM241 268h203l-101 260z" />
    <glyph glyph-name="Adieresis" unicode="&#xc4;" horiz-adv-x="692" 
d="M235 762q-33 0 -54 21.5t-21 54.5t22 55t55 22t54 -21.5t21 -53.5q0 -33 -22 -55.5t-55 -22.5zM455 762q-33 0 -54 21.5t-21 54.5t22 55t55 22t54.5 -21.5t21.5 -53.5q0 -33 -22.5 -55.5t-55.5 -22.5zM12 67q0 16 11 43l219 517q34 78 106 78q74 0 105 -78l215 -509
q11 -27 11 -46q0 -34 -21 -55.5t-55 -21.5q-55 0 -76 58l-38 94h-293l-37 -93q-22 -59 -73 -59q-32 0 -53 20.5t-21 51.5zM241 268h203l-101 260z" />
    <glyph glyph-name="Aring" unicode="&#xc5;" horiz-adv-x="692" 
d="M237 846q0 45 31 74.5t78 29.5t78 -29.5t31 -74.5t-31 -74.5t-78 -29.5t-78 29.5t-31 74.5zM297 846q0 -20 14 -34.5t35 -14.5t34.5 14t13.5 35q0 20 -13.5 34t-34.5 14t-35 -14t-14 -34zM12 67q0 16 11 43l219 517q34 78 106 78q74 0 105 -78l215 -509q11 -27 11 -46
q0 -34 -21 -55.5t-55 -21.5q-55 0 -76 58l-38 94h-293l-37 -93q-22 -59 -73 -59q-32 0 -53 20.5t-21 51.5zM241 268h203l-101 260z" />
    <glyph glyph-name="AE" unicode="&#xc6;" horiz-adv-x="1036" 
d="M12 66q0 22 15 47l319 520q39 67 111 67h463q29 0 47.5 -18.5t18.5 -47.5q0 -30 -18.5 -48.5t-47.5 -18.5h-301v-145h255q28 0 45 -17t17 -45t-17 -45t-45 -17h-255v-165h311q29 0 47.5 -18.5t18.5 -47.5q0 -30 -18.5 -48.5t-47.5 -18.5h-388q-33 0 -54.5 21.5
t-21.5 55.5v70h-248l-68 -110q-23 -42 -66 -42q-32 0 -52 20t-20 51zM285 268h181v305z" />
    <glyph glyph-name="Ccedilla" unicode="&#xc7;" horiz-adv-x="703" 
d="M608 203q31 0 50.5 -19.5t19.5 -50.5q0 -33 -27 -58q-69 -66 -183 -81q13 -24 13 -54q0 -62 -46 -98.5t-110 -36.5q-42 0 -76 15q-35 15 -35 46q0 20 12 32t32 12q7 0 24.5 -5t31.5 -5q29 0 46 14.5t17 39.5q0 24 -17 39q-138 17 -226.5 116.5t-88.5 237.5
q0 152 107 257.5t263 105.5q122 0 213 -63q42 -28 42 -69q0 -31 -20.5 -51.5t-50.5 -20.5q-26 0 -51 18q-62 45 -136 45q-92 0 -153 -63t-61 -156t61 -156t153 -63q80 0 143 51q25 21 53 21z" />
    <glyph glyph-name="Egrave" unicode="&#xc8;" horiz-adv-x="650" 
d="M402 798q0 -22 -14 -36.5t-36 -14.5q-16 0 -33 13l-65 60q-29 20 -29 54q0 24 16 41.5t40 17.5q26 0 50 -26l52 -66q19 -21 19 -43zM80 77v547q0 33 21.5 54.5t54.5 21.5h378q29 0 47.5 -18.5t18.5 -47.5q0 -30 -18.5 -48.5t-47.5 -18.5h-301v-145h255q28 0 45 -17
t17 -45t-17 -45t-45 -17h-255v-165h311q29 0 47.5 -18.5t18.5 -47.5q0 -30 -18.5 -48.5t-47.5 -18.5h-388q-33 0 -54.5 21.5t-21.5 55.5z" />
    <glyph glyph-name="Eacute" unicode="&#xc9;" horiz-adv-x="650" 
d="M290 798q0 22 19 43l52 66q24 26 50 26q24 0 40 -17.5t16 -41.5q0 -34 -29 -54l-65 -60q-17 -13 -33 -13q-22 0 -36 14.5t-14 36.5zM80 77v547q0 33 21.5 54.5t54.5 21.5h378q29 0 47.5 -18.5t18.5 -47.5q0 -30 -18.5 -48.5t-47.5 -18.5h-301v-145h255q28 0 45 -17
t17 -45t-17 -45t-45 -17h-255v-165h311q29 0 47.5 -18.5t18.5 -47.5q0 -30 -18.5 -48.5t-47.5 -18.5h-388q-33 0 -54.5 21.5t-21.5 55.5z" />
    <glyph glyph-name="Ecircumflex" unicode="&#xca;" horiz-adv-x="650" 
d="M512 799q0 -22 -14.5 -37t-35.5 -15q-20 0 -37 14l-89 76l-90 -77q-16 -13 -34 -13q-21 0 -35.5 14.5t-14.5 36.5q0 26 21 43l63 58q40 34 91 34t92 -34l62 -57q21 -18 21 -43zM80 77v547q0 33 21.5 54.5t54.5 21.5h378q29 0 47.5 -18.5t18.5 -47.5q0 -30 -18.5 -48.5
t-47.5 -18.5h-301v-145h255q28 0 45 -17t17 -45t-17 -45t-45 -17h-255v-165h311q29 0 47.5 -18.5t18.5 -47.5q0 -30 -18.5 -48.5t-47.5 -18.5h-388q-33 0 -54.5 21.5t-21.5 55.5z" />
    <glyph glyph-name="Edieresis" unicode="&#xcb;" horiz-adv-x="650" 
d="M226 762q-33 0 -54 21.5t-21 54.5t22 55t55 22t54 -21.5t21 -53.5q0 -33 -22 -55.5t-55 -22.5zM446 762q-33 0 -54 21.5t-21 54.5t22 55t55 22t54.5 -21.5t21.5 -53.5q0 -33 -22.5 -55.5t-55.5 -22.5zM80 77v547q0 33 21.5 54.5t54.5 21.5h378q29 0 47.5 -18.5
t18.5 -47.5q0 -30 -18.5 -48.5t-47.5 -18.5h-301v-145h255q28 0 45 -17t17 -45t-17 -45t-45 -17h-255v-165h311q29 0 47.5 -18.5t18.5 -47.5q0 -30 -18.5 -48.5t-47.5 -18.5h-388q-33 0 -54.5 21.5t-21.5 55.5z" />
    <glyph glyph-name="Igrave" unicode="&#xcc;" horiz-adv-x="327" 
d="M167 747q-16 0 -33 13l-65 60q-29 20 -29 54q0 24 16 41.5t40 17.5q26 0 50 -26l52 -66q19 -21 19 -43t-14 -36.5t-36 -14.5zM164 705q34 0 56 -22t22 -56v-554q0 -34 -22 -56t-56 -22q-35 0 -57 22t-22 56v554q0 34 22 56t57 22z" />
    <glyph glyph-name="Iacute" unicode="&#xcd;" horiz-adv-x="327" 
d="M231 933q24 0 40 -17.5t16 -41.5q0 -34 -29 -54l-65 -60q-17 -13 -33 -13q-22 0 -36 14.5t-14 36.5t19 43l52 66q24 26 50 26zM164 705q34 0 56 -22t22 -56v-554q0 -34 -22 -56t-56 -22q-35 0 -57 22t-22 56v554q0 34 22 56t57 22z" />
    <glyph glyph-name="Icircumflex" unicode="&#xce;" horiz-adv-x="327" 
d="M317 842q21 -18 21 -43q0 -22 -14.5 -37t-35.5 -15q-20 0 -37 14l-89 76l-90 -77q-16 -13 -34 -13q-21 0 -35.5 14.5t-14.5 36.5q0 26 21 43l63 58q40 34 91 34t92 -34zM164 705q34 0 56 -22t22 -56v-554q0 -34 -22 -56t-56 -22q-35 0 -57 22t-22 56v554q0 34 22 56
t57 22z" />
    <glyph glyph-name="Idieresis" unicode="&#xcf;" horiz-adv-x="327" 
d="M130 840q0 -33 -22 -55.5t-55 -22.5t-54.5 21.5t-21.5 54.5t22.5 55t55.5 22t54 -21.5t21 -53.5zM275 915q33 0 54.5 -21.5t21.5 -53.5q0 -33 -22.5 -55.5t-55.5 -22.5t-54 21.5t-21 54.5t22 55t55 22zM164 705q34 0 56 -22t22 -56v-554q0 -34 -22 -56t-56 -22
q-35 0 -57 22t-22 56v554q0 34 22 56t57 22z" />
    <glyph glyph-name="Eth" unicode="&#xd0;" horiz-adv-x="798" 
d="M368 700q168 0 276.5 -98.5t108.5 -248.5t-111 -251.5t-279 -101.5h-169q-33 0 -55 21.5t-22 55.5v238h-50q-19 0 -30.5 11.5t-11.5 30.5t11.5 30.5t30.5 11.5h50v225q0 33 22 54.5t55 21.5h174zM370 133q100 0 165 61.5t65 155.5t-65 155.5t-165 61.5h-100v-168h133
q19 0 30.5 -11.5t11.5 -30.5t-11.5 -30.5t-30.5 -11.5h-133v-182h100z" />
    <glyph glyph-name="Ntilde" unicode="&#xd1;" horiz-adv-x="790" 
d="M256 758q-17 0 -27.5 11.5t-10.5 28.5q0 6 2 20q7 35 32.5 66t69.5 31q33 0 59 -18t45 -36t37 -18q23 0 33 38q8 31 37 31q17 0 27.5 -11.5t10.5 -28.5q0 -6 -2 -20q-7 -35 -32.5 -66t-69.5 -31q-33 0 -58.5 18t-45 36t-37.5 18q-23 0 -33 -38q-8 -31 -37 -31zM80 70v535
q0 43 28 71.5t72 28.5q53 0 87 -50l294 -414v390q0 32 21 53t54 21t53.5 -21t20.5 -53v-542q0 -41 -26 -67.5t-67 -26.5q-52 0 -87 51l-301 425v-401q0 -33 -20.5 -54t-53.5 -21q-34 0 -54.5 21t-20.5 54z" />
    <glyph glyph-name="Ograve" unicode="&#xd2;" horiz-adv-x="825" 
d="M454 798q0 -22 -14 -36.5t-36 -14.5q-16 0 -33 13l-65 60q-29 20 -29 54q0 24 16 41.5t40 17.5q26 0 50 -26l52 -66q19 -21 19 -43zM45 347q0 152 107 257.5t263 105.5t260.5 -102.5t104.5 -254.5t-107 -257.5t-263 -105.5t-260.5 102.5t-104.5 254.5zM198 350
q0 -93 61 -156t153 -63q93 0 154 63t61 156t-61 156t-154 63q-92 0 -153 -63t-61 -156z" />
    <glyph glyph-name="Oacute" unicode="&#xd3;" horiz-adv-x="825" 
d="M371 798q0 22 19 43l52 66q24 26 50 26q24 0 40 -17.5t16 -41.5q0 -34 -29 -54l-65 -60q-17 -13 -33 -13q-22 0 -36 14.5t-14 36.5zM45 347q0 152 107 257.5t263 105.5t260.5 -102.5t104.5 -254.5t-107 -257.5t-263 -105.5t-260.5 102.5t-104.5 254.5zM198 350
q0 -93 61 -156t153 -63q93 0 154 63t61 156t-61 156t-154 63q-92 0 -153 -63t-61 -156z" />
    <glyph glyph-name="Ocircumflex" unicode="&#xd4;" horiz-adv-x="825" 
d="M587 799q0 -22 -14.5 -37t-35.5 -15q-20 0 -37 14l-89 76l-90 -77q-16 -13 -34 -13q-21 0 -35.5 14.5t-14.5 36.5q0 26 21 43l63 58q40 34 91 34t92 -34l62 -57q21 -18 21 -43zM45 347q0 152 107 257.5t263 105.5t260.5 -102.5t104.5 -254.5t-107 -257.5t-263 -105.5
t-260.5 102.5t-104.5 254.5zM198 350q0 -93 61 -156t153 -63q93 0 154 63t61 156t-61 156t-154 63q-92 0 -153 -63t-61 -156z" />
    <glyph glyph-name="Otilde" unicode="&#xd5;" horiz-adv-x="825" 
d="M273 758q-17 0 -27.5 11.5t-10.5 28.5q0 6 2 20q7 35 32.5 66t69.5 31q33 0 59 -18t45 -36t37 -18q23 0 33 38q8 31 37 31q17 0 27.5 -11.5t10.5 -28.5q0 -6 -2 -20q-7 -35 -32.5 -66t-69.5 -31q-33 0 -58.5 18t-45 36t-37.5 18q-23 0 -33 -38q-8 -31 -37 -31zM45 347
q0 152 107 257.5t263 105.5t260.5 -102.5t104.5 -254.5t-107 -257.5t-263 -105.5t-260.5 102.5t-104.5 254.5zM198 350q0 -93 61 -156t153 -63q93 0 154 63t61 156t-61 156t-154 63q-92 0 -153 -63t-61 -156z" />
    <glyph glyph-name="Odieresis" unicode="&#xd6;" horiz-adv-x="825" 
d="M301 762q-33 0 -54 21.5t-21 54.5t22 55t55 22t54 -21.5t21 -53.5q0 -33 -22 -55.5t-55 -22.5zM521 762q-33 0 -54 21.5t-21 54.5t22 55t55 22t54.5 -21.5t21.5 -53.5q0 -33 -22.5 -55.5t-55.5 -22.5zM45 347q0 152 107 257.5t263 105.5t260.5 -102.5t104.5 -254.5
t-107 -257.5t-263 -105.5t-260.5 102.5t-104.5 254.5zM198 350q0 -93 61 -156t153 -63q93 0 154 63t61 156t-61 156t-154 63q-92 0 -153 -63t-61 -156z" />
    <glyph glyph-name="multiply" unicode="&#xd7;" 
d="M59 160q0 24 21 45l148 145l-146 145q-23 22 -23 46q0 25 16 40.5t42 15.5q25 0 46 -21l145 -147l145 148q20 20 46 20q25 0 41 -15.5t16 -40.5t-21 -46l-149 -145l151 -147q19 -20 19 -44q0 -25 -15.5 -40.5t-40.5 -15.5q-27 0 -47 20l-145 148l-146 -148
q-21 -20 -46 -20q-26 0 -41.5 15.5t-15.5 41.5z" />
    <glyph glyph-name="Oslash" unicode="&#xd8;" horiz-adv-x="825" 
d="M45 347q0 152 107 257.5t263 105.5q114 0 203 -58l57 64q15 19 34 19q17 0 27.5 -11t10.5 -28q0 -14 -15 -31l-53 -62q101 -103 101 -250q0 -152 -107 -257.5t-263 -105.5q-115 0 -204 58l-57 -65q-15 -18 -33 -18q-17 0 -27.5 11t-10.5 28q0 14 13 30l54 63
q-100 102 -100 250zM194 350q0 -82 47 -140l285 331q-53 32 -114 32q-94 0 -156 -64t-62 -159zM299 159q53 -32 113 -32q94 0 156.5 64t62.5 159q0 78 -47 140z" />
    <glyph glyph-name="Ugrave" unicode="&#xd9;" horiz-adv-x="740" 
d="M285 820q-29 20 -29 54q0 24 16 41.5t40 17.5q26 0 50 -26l52 -66q19 -21 19 -43t-14 -36.5t-36 -14.5q-16 0 -33 13zM595 704q33 0 54 -21.5t21 -53.5v-339q0 -135 -84 -217.5t-219 -82.5q-134 0 -215.5 80.5t-81.5 214.5v344q0 34 21.5 55.5t55.5 21.5t56 -21.5
t22 -55.5v-338q0 -73 41 -116.5t107 -43.5t106.5 43.5t40.5 116.5v338q0 32 21.5 53.5t53.5 21.5z" />
    <glyph glyph-name="Uacute" unicode="&#xda;" horiz-adv-x="740" 
d="M364 747q-22 0 -36 14.5t-14 36.5t19 43l52 66q24 26 50 26q24 0 40 -17.5t16 -41.5q0 -34 -29 -54l-65 -60q-17 -13 -33 -13zM595 704q33 0 54 -21.5t21 -53.5v-339q0 -135 -84 -217.5t-219 -82.5q-134 0 -215.5 80.5t-81.5 214.5v344q0 34 21.5 55.5t55.5 21.5
t56 -21.5t22 -55.5v-338q0 -73 41 -116.5t107 -43.5t106.5 43.5t40.5 116.5v338q0 32 21.5 53.5t53.5 21.5z" />
    <glyph glyph-name="Ucircumflex" unicode="&#xdb;" horiz-adv-x="740" 
d="M249 747q-21 0 -35.5 14.5t-14.5 36.5q0 26 21 43l63 58q40 34 91 34t92 -34l62 -57q21 -18 21 -43q0 -22 -14.5 -37t-35.5 -15q-20 0 -37 14l-89 76l-90 -77q-16 -13 -34 -13zM595 704q33 0 54 -21.5t21 -53.5v-339q0 -135 -84 -217.5t-219 -82.5q-134 0 -215.5 80.5
t-81.5 214.5v344q0 34 21.5 55.5t55.5 21.5t56 -21.5t22 -55.5v-338q0 -73 41 -116.5t107 -43.5t106.5 43.5t40.5 116.5v338q0 32 21.5 53.5t53.5 21.5z" />
    <glyph glyph-name="Udieresis" unicode="&#xdc;" horiz-adv-x="740" 
d="M263 762q-33 0 -54 21.5t-21 54.5t22 55t55 22t54 -21.5t21 -53.5q0 -33 -22 -55.5t-55 -22.5zM483 762q-33 0 -54 21.5t-21 54.5t22 55t55 22t54.5 -21.5t21.5 -53.5q0 -33 -22.5 -55.5t-55.5 -22.5zM595 704q33 0 54 -21.5t21 -53.5v-339q0 -135 -84 -217.5t-219 -82.5
q-134 0 -215.5 80.5t-81.5 214.5v344q0 34 21.5 55.5t55.5 21.5t56 -21.5t22 -55.5v-338q0 -73 41 -116.5t107 -43.5t106.5 43.5t40.5 116.5v338q0 32 21.5 53.5t53.5 21.5z" />
    <glyph glyph-name="Yacute" unicode="&#xdd;" horiz-adv-x="624" 
d="M266 798q0 22 19 43l52 66q24 26 50 26q24 0 40 -17.5t16 -41.5q0 -34 -29 -54l-65 -60q-17 -13 -33 -13q-22 0 -36 14.5t-14 36.5zM12 631q0 32 21 53t54 21q43 0 67 -39l161 -261l161 262q21 38 65 38q31 0 50.5 -19.5t19.5 -51.5q0 -23 -13 -44l-211 -330v-188
q0 -34 -21.5 -55.5t-54.5 -21.5q-34 0 -55.5 21.5t-21.5 55.5v188l-209 326q-13 21 -13 45z" />
    <glyph glyph-name="Thorn" unicode="&#xde;" horiz-adv-x="680" 
d="M382 594q114 0 183.5 -64t69.5 -166t-72 -168t-186 -66h-144v-58q0 -34 -21.5 -55.5t-55.5 -21.5q-33 0 -54.5 21.5t-21.5 55.5v557q0 33 21.5 54.5t54.5 21.5q34 0 55.5 -21.5t21.5 -54.5v-35h149zM363 255q54 0 86.5 29.5t32.5 77.5q0 47 -32.5 76.5t-86.5 29.5h-130
v-213h130z" />
    <glyph glyph-name="germandbls" unicode="&#xdf;" horiz-adv-x="614" 
d="M357 -10q-42 0 -65 17t-23 47q0 28 21 44q18 12 52 15q46 4 72 30t26 65q0 31 -20 55t-53 32q-16 5 -29 8q-24 6 -38 22t-14 38q0 36 41 59q32 8 52.5 29.5t20.5 51.5q0 38 -26.5 61.5t-69.5 23.5q-45 0 -72 -29.5t-27 -81.5v-409q0 -32 -20 -52.5t-52 -20.5t-52.5 20.5
t-20.5 52.5v406q0 106 67.5 171t177.5 65q107 0 173.5 -54.5t66.5 -140.5q0 -92 -75 -141q54 -24 84.5 -69t30.5 -105q0 -91 -65 -150.5t-163 -59.5z" />
    <glyph glyph-name="agrave" unicode="&#xe0;" horiz-adv-x="571" 
d="M213 640q-29 20 -29 54q0 24 16 41.5t40 17.5q26 0 50 -26l52 -66q19 -21 19 -43t-14 -36.5t-36 -14.5q-16 0 -33 13zM284 527q109 0 171.5 -62t62.5 -172v-232q0 -29 -18.5 -47.5t-47.5 -18.5q-50 0 -62 46q-58 -51 -154 -51q-91 0 -145 44t-54 113q0 70 56 116t147 46
q79 0 132 -37v22q0 53 -32.5 82t-84.5 29q-47 0 -91 -24q-16 -8 -34 -8q-25 0 -40.5 15.5t-15.5 39.5q0 34 34 54q68 45 176 45zM278 82q45 0 72 20.5t27 50.5t-27 50.5t-72 20.5q-42 0 -68.5 -20.5t-26.5 -50.5t26.5 -50.5t68.5 -20.5z" />
    <glyph glyph-name="aacute" unicode="&#xe1;" horiz-adv-x="571" 
d="M284 567q-22 0 -36 14.5t-14 36.5t19 43l52 66q24 26 50 26q24 0 40 -17.5t16 -41.5q0 -34 -29 -54l-65 -60q-17 -13 -33 -13zM284 527q109 0 171.5 -62t62.5 -172v-232q0 -29 -18.5 -47.5t-47.5 -18.5q-50 0 -62 46q-58 -51 -154 -51q-91 0 -145 44t-54 113q0 70 56 116
t147 46q79 0 132 -37v22q0 53 -32.5 82t-84.5 29q-47 0 -91 -24q-16 -8 -34 -8q-25 0 -40.5 15.5t-15.5 39.5q0 34 34 54q68 45 176 45zM278 82q45 0 72 20.5t27 50.5t-27 50.5t-72 20.5q-42 0 -68.5 -20.5t-26.5 -50.5t26.5 -50.5t68.5 -20.5z" />
    <glyph glyph-name="acircumflex" unicode="&#xe2;" horiz-adv-x="571" 
d="M168 567q-21 0 -35.5 14.5t-14.5 36.5q0 26 21 43l63 58q40 34 91 34t92 -34l62 -57q21 -18 21 -43q0 -22 -14.5 -37t-35.5 -15q-20 0 -37 14l-89 76l-90 -77q-16 -13 -34 -13zM284 527q109 0 171.5 -62t62.5 -172v-232q0 -29 -18.5 -47.5t-47.5 -18.5q-50 0 -62 46
q-58 -51 -154 -51q-91 0 -145 44t-54 113q0 70 56 116t147 46q79 0 132 -37v22q0 53 -32.5 82t-84.5 29q-47 0 -91 -24q-16 -8 -34 -8q-25 0 -40.5 15.5t-15.5 39.5q0 34 34 54q68 45 176 45zM278 82q45 0 72 20.5t27 50.5t-27 50.5t-72 20.5q-42 0 -68.5 -20.5t-26.5 -50.5
t26.5 -50.5t68.5 -20.5z" />
    <glyph glyph-name="atilde" unicode="&#xe3;" horiz-adv-x="571" 
d="M164 578q-17 0 -27.5 11.5t-10.5 28.5q0 6 2 20q7 35 32.5 66t69.5 31q33 0 59 -18t45 -36t37 -18q23 0 33 38q8 31 37 31q17 0 27.5 -11.5t10.5 -28.5q0 -6 -2 -20q-7 -35 -32.5 -66t-69.5 -31q-33 0 -58.5 18t-45 36t-37.5 18q-23 0 -33 -38q-8 -31 -37 -31zM284 527
q109 0 171.5 -62t62.5 -172v-232q0 -29 -18.5 -47.5t-47.5 -18.5q-50 0 -62 46q-58 -51 -154 -51q-91 0 -145 44t-54 113q0 70 56 116t147 46q79 0 132 -37v22q0 53 -32.5 82t-84.5 29q-47 0 -91 -24q-16 -8 -34 -8q-25 0 -40.5 15.5t-15.5 39.5q0 34 34 54q68 45 176 45z
M278 82q45 0 72 20.5t27 50.5t-27 50.5t-72 20.5q-42 0 -68.5 -20.5t-26.5 -50.5t26.5 -50.5t68.5 -20.5z" />
    <glyph glyph-name="adieresis" unicode="&#xe4;" horiz-adv-x="571" 
d="M182 582q-33 0 -54 21.5t-21 54.5t22 55t55 22t54 -21.5t21 -53.5q0 -33 -22 -55.5t-55 -22.5zM402 582q-33 0 -54 21.5t-21 54.5t22 55t55 22t54.5 -21.5t21.5 -53.5q0 -33 -22.5 -55.5t-55.5 -22.5zM284 527q109 0 171.5 -62t62.5 -172v-232q0 -29 -18.5 -47.5
t-47.5 -18.5q-50 0 -62 46q-58 -51 -154 -51q-91 0 -145 44t-54 113q0 70 56 116t147 46q79 0 132 -37v22q0 53 -32.5 82t-84.5 29q-47 0 -91 -24q-16 -8 -34 -8q-25 0 -40.5 15.5t-15.5 39.5q0 34 34 54q68 45 176 45zM278 82q45 0 72 20.5t27 50.5t-27 50.5t-72 20.5
q-42 0 -68.5 -20.5t-26.5 -50.5t26.5 -50.5t68.5 -20.5z" />
    <glyph glyph-name="aring" unicode="&#xe5;" horiz-adv-x="571" 
d="M295 562q-47 0 -78 29.5t-31 74.5t31 74.5t78 29.5t78 -29.5t31 -74.5t-31 -74.5t-78 -29.5zM295 714q-21 0 -35 -14t-14 -34t14 -34.5t35 -14.5t34.5 14t13.5 35q0 20 -13.5 34t-34.5 14zM284 527q109 0 171.5 -62t62.5 -172v-232q0 -29 -18.5 -47.5t-47.5 -18.5
q-50 0 -62 46q-58 -51 -154 -51q-91 0 -145 44t-54 113q0 70 56 116t147 46q79 0 132 -37v22q0 53 -32.5 82t-84.5 29q-47 0 -91 -24q-16 -8 -34 -8q-25 0 -40.5 15.5t-15.5 39.5q0 34 34 54q68 45 176 45zM278 82q45 0 72 20.5t27 50.5t-27 50.5t-72 20.5
q-42 0 -68.5 -20.5t-26.5 -50.5t26.5 -50.5t68.5 -20.5z" />
    <glyph glyph-name="ae" unicode="&#xe6;" horiz-adv-x="939" 
d="M254 -10q-101 0 -159 43.5t-58 113.5t56 116t147 46q79 0 132 -37v22q0 53 -32.5 82t-84.5 29q-54 0 -93 -24q-16 -8 -32 -8q-25 0 -40.5 15.5t-15.5 39.5q0 34 34 54q68 45 176 45q120 0 175 -92q75 92 192 92q105 0 180.5 -71.5t75.5 -163.5q0 -28 -16.5 -45t-44.5 -17
h-325q7 -51 45 -82.5t93 -31.5q58 0 111 41q20 13 40 13q26 0 43 -16t17 -42q0 -31 -33 -57q-70 -65 -188 -65q-123 0 -197 93q-54 -93 -198 -93zM520 318h248q-8 43 -42 72t-78 29q-48 0 -83 -28t-45 -73zM278 82q45 0 72 20.5t27 50.5t-27 50.5t-72 20.5
q-42 0 -68.5 -20.5t-26.5 -50.5t26.5 -50.5t68.5 -20.5z" />
    <glyph glyph-name="ccedilla" unicode="&#xe7;" horiz-adv-x="533" 
d="M443 168q28 0 46.5 -19t18.5 -48q0 -32 -30 -56q-44 -37 -112 -50q14 -23 14 -55q0 -62 -46 -98.5t-110 -36.5q-42 0 -76 15q-35 15 -35 46q0 20 12.5 32t31.5 12q7 0 24.5 -5t31.5 -5q29 0 46 14.5t17 39.5q0 23 -18 41q-99 17 -161 89t-62 172q0 114 81 192.5t201 78.5
q84 0 149 -44q39 -25 39 -63q0 -30 -18.5 -49t-48.5 -19q-17 0 -43 15q-38 26 -80 26q-58 0 -96.5 -39t-38.5 -96t38.5 -96t96.5 -39q47 0 85 30q24 15 43 15z" />
    <glyph glyph-name="egrave" unicode="&#xe8;" horiz-adv-x="601" 
d="M373 618q0 -22 -14 -36.5t-36 -14.5q-16 0 -33 13l-65 60q-29 20 -29 54q0 24 16 41.5t40 17.5q26 0 50 -26l52 -66q19 -21 19 -43zM35 256q0 114 80 192.5t198 78.5q106 0 181.5 -71.5t75.5 -163.5q0 -28 -16.5 -45t-44.5 -17h-326q7 -51 45 -82.5t94 -31.5q58 0 111 41
q20 13 40 13q26 0 42.5 -16t16.5 -42q0 -30 -32 -57q-73 -65 -188 -65q-120 0 -198.5 76t-78.5 190zM183 318h247q-7 42 -41 71.5t-78 29.5q-48 0 -83 -28.5t-45 -72.5z" />
    <glyph glyph-name="eacute" unicode="&#xe9;" horiz-adv-x="601" 
d="M274 618q0 22 19 43l52 66q24 26 50 26q24 0 40 -17.5t16 -41.5q0 -34 -29 -54l-65 -60q-17 -13 -33 -13q-22 0 -36 14.5t-14 36.5zM35 256q0 114 80 192.5t198 78.5q106 0 181.5 -71.5t75.5 -163.5q0 -28 -16.5 -45t-44.5 -17h-326q7 -51 45 -82.5t94 -31.5q58 0 111 41
q20 13 40 13q26 0 42.5 -16t16.5 -42q0 -30 -32 -57q-73 -65 -188 -65q-120 0 -198.5 76t-78.5 190zM183 318h247q-7 42 -41 71.5t-78 29.5q-48 0 -83 -28.5t-45 -72.5z" />
    <glyph glyph-name="ecircumflex" unicode="&#xea;" horiz-adv-x="601" 
d="M485 619q0 -22 -14.5 -37t-35.5 -15q-20 0 -37 14l-89 76l-90 -77q-16 -13 -34 -13q-21 0 -35.5 14.5t-14.5 36.5q0 26 21 43l63 58q40 34 91 34t92 -34l62 -57q21 -18 21 -43zM35 256q0 114 80 192.5t198 78.5q106 0 181.5 -71.5t75.5 -163.5q0 -28 -16.5 -45t-44.5 -17
h-326q7 -51 45 -82.5t94 -31.5q58 0 111 41q20 13 40 13q26 0 42.5 -16t16.5 -42q0 -30 -32 -57q-73 -65 -188 -65q-120 0 -198.5 76t-78.5 190zM183 318h247q-7 42 -41 71.5t-78 29.5q-48 0 -83 -28.5t-45 -72.5z" />
    <glyph glyph-name="edieresis" unicode="&#xeb;" horiz-adv-x="601" 
d="M199 582q-33 0 -54 21.5t-21 54.5t22 55t55 22t54 -21.5t21 -53.5q0 -33 -22 -55.5t-55 -22.5zM419 582q-33 0 -54 21.5t-21 54.5t22 55t55 22t54.5 -21.5t21.5 -53.5q0 -33 -22.5 -55.5t-55.5 -22.5zM35 256q0 114 80 192.5t198 78.5q106 0 181.5 -71.5t75.5 -163.5
q0 -28 -16.5 -45t-44.5 -17h-326q7 -51 45 -82.5t94 -31.5q58 0 111 41q20 13 40 13q26 0 42.5 -16t16.5 -42q0 -30 -32 -57q-73 -65 -188 -65q-120 0 -198.5 76t-78.5 190zM183 318h247q-7 42 -41 71.5t-78 29.5q-48 0 -83 -28.5t-45 -72.5z" />
    <glyph glyph-name="igrave" unicode="&#xec;" horiz-adv-x="277" 
d="M143 567q-16 0 -33 13l-65 60q-29 20 -29 54q0 24 16 41.5t40 17.5q26 0 50 -26l52 -66q19 -21 19 -43t-14 -36.5t-36 -14.5zM139 522q32 0 52.5 -21t20.5 -53v-379q0 -32 -20.5 -53t-52.5 -21q-33 0 -53.5 21t-20.5 53v379q0 32 20.5 53t53.5 21z" />
    <glyph glyph-name="iacute" unicode="&#xed;" horiz-adv-x="277" 
d="M209 753q24 0 40 -17.5t16 -41.5q0 -34 -29 -54l-65 -60q-17 -13 -33 -13q-22 0 -36 14.5t-14 36.5t19 43l52 66q24 26 50 26zM139 522q32 0 52.5 -21t20.5 -53v-379q0 -32 -20.5 -53t-52.5 -21q-33 0 -53.5 21t-20.5 53v379q0 32 20.5 53t53.5 21z" />
    <glyph glyph-name="icircumflex" unicode="&#xee;" horiz-adv-x="277" 
d="M292 662q21 -18 21 -43q0 -22 -14.5 -37t-35.5 -15q-20 0 -37 14l-89 76l-90 -77q-16 -13 -34 -13q-21 0 -35.5 14.5t-14.5 36.5q0 26 21 43l63 58q40 34 91 34t92 -34zM139 522q32 0 52.5 -21t20.5 -53v-379q0 -32 -20.5 -53t-52.5 -21q-33 0 -53.5 21t-20.5 53v379
q0 32 20.5 53t53.5 21z" />
    <glyph glyph-name="idieresis" unicode="&#xef;" horiz-adv-x="277" 
d="M105 660q0 -33 -22 -55.5t-55 -22.5t-54.5 21.5t-21.5 54.5t22.5 55t55.5 22t54 -21.5t21 -53.5zM250 735q33 0 54.5 -21.5t21.5 -53.5q0 -33 -22.5 -55.5t-55.5 -22.5t-54 21.5t-21 54.5t22 55t55 22zM139 522q32 0 52.5 -21t20.5 -53v-379q0 -32 -20.5 -53t-52.5 -21
q-33 0 -53.5 21t-20.5 53v379q0 32 20.5 53t53.5 21z" />
    <glyph glyph-name="eth" unicode="&#xf0;" horiz-adv-x="629" 
d="M526 455q68 -100 68 -199q0 -113 -84 -189.5t-198 -76.5q-118 0 -197.5 73t-79.5 190q0 103 75 174.5t177 71.5q29 0 65 -15l-57 79l-111 -24q-12 -3 -18 -3q-16 0 -26.5 10t-10.5 27q0 30 33 37l87 19q-10 18 -10 34q0 29 18.5 47t46.5 18q35 0 60 -38l22 -32l110 24
q12 3 19 3q16 0 26 -10t10 -26q0 -31 -32 -37l-88 -19zM315 123q57 0 95.5 39t38.5 94t-38.5 93.5t-95.5 38.5q-58 0 -96.5 -38.5t-38.5 -93.5t38.5 -94t96.5 -39z" />
    <glyph glyph-name="ntilde" unicode="&#xf1;" horiz-adv-x="614" 
d="M169 578q-17 0 -27.5 11.5t-10.5 28.5q0 6 2 20q7 35 32.5 66t69.5 31q33 0 59 -18t45 -36t37 -18q23 0 33 38q8 31 37 31q17 0 27.5 -11.5t10.5 -28.5q0 -6 -2 -20q-7 -35 -32.5 -66t-69.5 -31q-33 0 -58.5 18t-45 36t-37.5 18q-23 0 -33 -38q-8 -31 -37 -31zM366 527
q85 0 139.5 -56.5t54.5 -155.5v-247q0 -32 -20.5 -52.5t-52.5 -20.5t-52 20.5t-20 52.5v200q0 62 -28 93.5t-73 31.5q-48 0 -78.5 -32.5t-30.5 -97.5v-195q0 -32 -20 -52.5t-52 -20.5t-52.5 20.5t-20.5 52.5v386q0 29 19 48.5t49 19.5q29 0 48 -19.5t19 -48.5v-18
q27 45 72.5 68t98.5 23z" />
    <glyph glyph-name="ograve" unicode="&#xf2;" horiz-adv-x="629" 
d="M372 618q0 -22 -14 -36.5t-36 -14.5q-16 0 -33 13l-65 60q-29 20 -29 54q0 24 16 41.5t40 17.5q26 0 50 -26l52 -66q19 -21 19 -43zM35 256q0 114 81 192.5t201 78.5t198.5 -76t78.5 -190t-81 -192.5t-201 -78.5t-198.5 76t-78.5 190zM180 258q0 -57 38.5 -96t96.5 -39
q57 0 95.5 39t38.5 96t-38.5 96t-95.5 39q-58 0 -96.5 -39t-38.5 -96z" />
    <glyph glyph-name="oacute" unicode="&#xf3;" horiz-adv-x="629" 
d="M257 618q0 22 19 43l52 66q24 26 50 26q24 0 40 -17.5t16 -41.5q0 -34 -29 -54l-65 -60q-17 -13 -33 -13q-22 0 -36 14.5t-14 36.5zM35 256q0 114 81 192.5t201 78.5t198.5 -76t78.5 -190t-81 -192.5t-201 -78.5t-198.5 76t-78.5 190zM180 258q0 -57 38.5 -96t96.5 -39
q57 0 95.5 39t38.5 96t-38.5 96t-95.5 39q-58 0 -96.5 -39t-38.5 -96z" />
    <glyph glyph-name="ocircumflex" unicode="&#xf4;" horiz-adv-x="629" 
d="M489 619q0 -22 -14.5 -37t-35.5 -15q-20 0 -37 14l-89 76l-90 -77q-16 -13 -34 -13q-21 0 -35.5 14.5t-14.5 36.5q0 26 21 43l63 58q40 34 91 34t92 -34l62 -57q21 -18 21 -43zM35 256q0 114 81 192.5t201 78.5t198.5 -76t78.5 -190t-81 -192.5t-201 -78.5t-198.5 76
t-78.5 190zM180 258q0 -57 38.5 -96t96.5 -39q57 0 95.5 39t38.5 96t-38.5 96t-95.5 39q-58 0 -96.5 -39t-38.5 -96z" />
    <glyph glyph-name="otilde" unicode="&#xf5;" horiz-adv-x="629" 
d="M176 578q-17 0 -27.5 11.5t-10.5 28.5q0 6 2 20q7 35 32.5 66t69.5 31q33 0 59 -18t45 -36t37 -18q23 0 33 38q8 31 37 31q17 0 27.5 -11.5t10.5 -28.5q0 -6 -2 -20q-7 -35 -32.5 -66t-69.5 -31q-33 0 -58.5 18t-45 36t-37.5 18q-23 0 -33 -38q-8 -31 -37 -31zM35 256
q0 114 81 192.5t201 78.5t198.5 -76t78.5 -190t-81 -192.5t-201 -78.5t-198.5 76t-78.5 190zM180 258q0 -57 38.5 -96t96.5 -39q57 0 95.5 39t38.5 96t-38.5 96t-95.5 39q-58 0 -96.5 -39t-38.5 -96z" />
    <glyph glyph-name="odieresis" unicode="&#xf6;" horiz-adv-x="629" 
d="M204 582q-33 0 -54 21.5t-21 54.5t22 55t55 22t54 -21.5t21 -53.5q0 -33 -22 -55.5t-55 -22.5zM424 582q-33 0 -54 21.5t-21 54.5t22 55t55 22t54.5 -21.5t21.5 -53.5q0 -33 -22.5 -55.5t-55.5 -22.5zM35 256q0 114 81 192.5t201 78.5t198.5 -76t78.5 -190t-81 -192.5
t-201 -78.5t-198.5 76t-78.5 190zM180 258q0 -57 38.5 -96t96.5 -39q57 0 95.5 39t38.5 96t-38.5 96t-95.5 39q-58 0 -96.5 -39t-38.5 -96z" />
    <glyph glyph-name="divide" unicode="&#xf7;" 
d="M308 487q-35 0 -59.5 24.5t-24.5 59.5t24.5 59t59.5 24q34 0 58.5 -24t24.5 -59t-24 -59.5t-59 -24.5zM510 416q27 0 43.5 -17t16.5 -43q0 -27 -16.5 -44t-43.5 -17h-404q-28 0 -44.5 17t-16.5 44q0 26 16.5 43t44.5 17h404zM308 224q34 0 58.5 -24t24.5 -59t-24.5 -59.5
t-58.5 -24.5q-35 0 -59.5 24.5t-24.5 59.5t24.5 59t59.5 24z" />
    <glyph glyph-name="oslash" unicode="&#xf8;" horiz-adv-x="629" 
d="M103 -35q-16 0 -26 10.5t-10 26.5q0 14 12 29l32 37q-76 74 -76 188t81 192.5t201 78.5q76 0 141 -36l37 43q13 18 32 18q15 0 25.5 -10.5t10.5 -26.5q0 -15 -12 -28l-33 -39q76 -74 76 -187q0 -114 -81 -192.5t-201 -78.5q-78 0 -141 36l-35 -41q-16 -20 -33 -20z
M195 173l181 216q-28 15 -61 15q-63 0 -104.5 -42t-41.5 -104q0 -48 26 -85zM315 112q62 0 103.5 42t41.5 104q0 47 -26 84l-181 -214q27 -16 62 -16z" />
    <glyph glyph-name="ugrave" unicode="&#xf9;" horiz-adv-x="614" 
d="M208 640q-29 20 -29 54q0 24 16 41.5t40 17.5q26 0 50 -26l52 -66q19 -21 19 -43t-14 -36.5t-36 -14.5q-16 0 -33 13zM481 522q32 0 52.5 -20.5t20.5 -52.5v-386q0 -29 -19 -48.5t-49 -19.5q-29 0 -48 19.5t-19 48.5v18q-27 -44 -72.5 -67.5t-98.5 -23.5
q-85 0 -139.5 56.5t-54.5 155.5v247q0 32 20.5 52.5t52.5 20.5t52 -20.5t20 -52.5v-200q0 -62 28 -93.5t73 -31.5q48 0 78.5 32.5t30.5 97.5v195q0 32 20 52.5t52 20.5z" />
    <glyph glyph-name="uacute" unicode="&#xfa;" horiz-adv-x="614" 
d="M303 567q-22 0 -36 14.5t-14 36.5t19 43l52 66q24 26 50 26q24 0 40 -17.5t16 -41.5q0 -34 -29 -54l-65 -60q-17 -13 -33 -13zM481 522q32 0 52.5 -20.5t20.5 -52.5v-386q0 -29 -19 -48.5t-49 -19.5q-29 0 -48 19.5t-19 48.5v18q-27 -44 -72.5 -67.5t-98.5 -23.5
q-85 0 -139.5 56.5t-54.5 155.5v247q0 32 20.5 52.5t52.5 20.5t52 -20.5t20 -52.5v-200q0 -62 28 -93.5t73 -31.5q48 0 78.5 32.5t30.5 97.5v195q0 32 20 52.5t52 20.5z" />
    <glyph glyph-name="ucircumflex" unicode="&#xfb;" horiz-adv-x="614" 
d="M180 567q-21 0 -35.5 14.5t-14.5 36.5q0 26 21 43l63 58q40 34 91 34t92 -34l62 -57q21 -18 21 -43q0 -22 -14.5 -37t-35.5 -15q-20 0 -37 14l-89 76l-90 -77q-16 -13 -34 -13zM481 522q32 0 52.5 -20.5t20.5 -52.5v-386q0 -29 -19 -48.5t-49 -19.5q-29 0 -48 19.5
t-19 48.5v18q-27 -44 -72.5 -67.5t-98.5 -23.5q-85 0 -139.5 56.5t-54.5 155.5v247q0 32 20.5 52.5t52.5 20.5t52 -20.5t20 -52.5v-200q0 -62 28 -93.5t73 -31.5q48 0 78.5 32.5t30.5 97.5v195q0 32 20 52.5t52 20.5z" />
    <glyph glyph-name="udieresis" unicode="&#xfc;" horiz-adv-x="614" 
d="M194 582q-33 0 -54 21.5t-21 54.5t22 55t55 22t54 -21.5t21 -53.5q0 -33 -22 -55.5t-55 -22.5zM414 582q-33 0 -54 21.5t-21 54.5t22 55t55 22t54.5 -21.5t21.5 -53.5q0 -33 -22.5 -55.5t-55.5 -22.5zM481 522q32 0 52.5 -20.5t20.5 -52.5v-386q0 -29 -19 -48.5
t-49 -19.5q-29 0 -48 19.5t-19 48.5v18q-27 -44 -72.5 -67.5t-98.5 -23.5q-85 0 -139.5 56.5t-54.5 155.5v247q0 32 20.5 52.5t52.5 20.5t52 -20.5t20 -52.5v-200q0 -62 28 -93.5t73 -31.5q48 0 78.5 32.5t30.5 97.5v195q0 32 20 52.5t52 20.5z" />
    <glyph glyph-name="yacute" unicode="&#xfd;" horiz-adv-x="529" 
d="M207 618q0 22 19 43l52 66q24 26 50 26q24 0 40 -17.5t16 -41.5q0 -34 -29 -54l-65 -60q-17 -13 -33 -13q-22 0 -36 14.5t-14 36.5zM2 -94q0 27 17 44t44 17q9 0 26.5 -3.5t28.5 -3.5q51 0 72 48l-168 400q-10 28 -10 40q0 33 21 53.5t55 20.5q49 0 71 -60l108 -291
l109 296q20 55 70 55q31 0 51 -20t20 -49q0 -17 -9 -37l-178 -421q-36 -84 -85.5 -124.5t-123.5 -40.5q-39 0 -75 16q-44 18 -44 60z" />
    <glyph glyph-name="thorn" unicode="&#xfe;" horiz-adv-x="649" 
d="M365 527q103 0 176 -77t73 -189q0 -113 -75 -192t-179 -79q-95 0 -155 68v-151q0 -31 -20.5 -51.5t-51.5 -20.5q-32 0 -52.5 20t-20.5 52v725q0 32 20.5 52.5t52.5 20.5t52 -20.5t20 -52.5v-179q62 74 160 74zM334 123q57 0 95.5 39t38.5 96t-38.5 96t-95.5 39t-95.5 -39
t-38.5 -96t38.5 -96t95.5 -39z" />
    <glyph glyph-name="ydieresis" unicode="&#xff;" horiz-adv-x="529" 
d="M156 582q-33 0 -54 21.5t-21 54.5t22 55t55 22t54 -21.5t21 -53.5q0 -33 -22 -55.5t-55 -22.5zM376 582q-33 0 -54 21.5t-21 54.5t22 55t55 22t54.5 -21.5t21.5 -53.5q0 -33 -22.5 -55.5t-55.5 -22.5zM2 -94q0 27 17 44t44 17q9 0 26.5 -3.5t28.5 -3.5q51 0 72 48
l-168 400q-10 28 -10 40q0 33 21 53.5t55 20.5q49 0 71 -60l108 -291l109 296q20 55 70 55q31 0 51 -20t20 -49q0 -17 -9 -37l-178 -421q-36 -84 -85.5 -124.5t-123.5 -40.5q-39 0 -75 16q-44 18 -44 60z" />
    <glyph glyph-name="Amacron" unicode="&#x100;" horiz-adv-x="692" 
d="M203 793q-19 0 -30.5 12t-11.5 30t11.5 30t30.5 12h286q19 0 30.5 -12t11.5 -30t-11.5 -30t-30.5 -12h-286zM668 118q11 -27 11 -46q0 -34 -21 -55.5t-55 -21.5q-55 0 -76 58l-38 94h-293l-37 -93q-22 -59 -73 -59q-32 0 -53 20.5t-21 51.5q0 16 11 43l219 517
q34 78 106 78q74 0 105 -78zM241 268h203l-101 260z" />
    <glyph glyph-name="amacron" unicode="&#x101;" horiz-adv-x="571" 
d="M152 613q-19 0 -30.5 12t-11.5 30t11.5 30t30.5 12h286q19 0 30.5 -12t11.5 -30t-11.5 -30t-30.5 -12h-286zM284 527q109 0 171.5 -62t62.5 -172v-232q0 -29 -18.5 -47.5t-47.5 -18.5q-50 0 -62 46q-58 -51 -154 -51q-91 0 -145 44t-54 113q0 70 56 116t147 46
q79 0 132 -37v22q0 53 -32.5 82t-84.5 29q-47 0 -91 -24q-16 -8 -34 -8q-25 0 -40.5 15.5t-15.5 39.5q0 34 34 54q68 45 176 45zM278 82q45 0 72 20.5t27 50.5t-27 50.5t-72 20.5q-42 0 -68.5 -20.5t-26.5 -50.5t26.5 -50.5t68.5 -20.5z" />
    <glyph glyph-name="Abreve" unicode="&#x102;" horiz-adv-x="692" 
d="M346 752q-67 0 -114 37.5t-49 86.5q-1 22 12.5 35.5t35.5 13.5q28 0 44 -33q17 -55 72 -55t69 53q15 35 45 35q22 0 35.5 -14t12.5 -34q-2 -49 -49 -87t-114 -38zM12 67q0 16 11 43l219 517q34 78 106 78q74 0 105 -78l215 -509q11 -27 11 -46q0 -34 -21 -55.5t-55 -21.5
q-55 0 -76 58l-38 94h-293l-37 -93q-22 -59 -73 -59q-32 0 -53 20.5t-21 51.5zM241 268h203l-101 260z" />
    <glyph glyph-name="abreve" unicode="&#x103;" horiz-adv-x="571" 
d="M295 572q-67 0 -114 37.5t-49 86.5q-1 22 12.5 35.5t35.5 13.5q28 0 44 -33q17 -55 72 -55t69 53q15 35 45 35q22 0 35.5 -14t12.5 -34q-2 -49 -49 -87t-114 -38zM284 527q109 0 171.5 -62t62.5 -172v-232q0 -29 -18.5 -47.5t-47.5 -18.5q-50 0 -62 46q-58 -51 -154 -51
q-91 0 -145 44t-54 113q0 70 56 116t147 46q79 0 132 -37v22q0 53 -32.5 82t-84.5 29q-47 0 -91 -24q-16 -8 -34 -8q-25 0 -40.5 15.5t-15.5 39.5q0 34 34 54q68 45 176 45zM278 82q45 0 72 20.5t27 50.5t-27 50.5t-72 20.5q-42 0 -68.5 -20.5t-26.5 -50.5t26.5 -50.5
t68.5 -20.5z" />
    <glyph glyph-name="Aogonek" unicode="&#x104;" horiz-adv-x="692" 
d="M12 67q0 16 11 43l219 517q34 78 106 78q74 0 105 -78l215 -509q11 -27 11 -46q0 -42 -35 -65q-21 -15 -21 -48q0 -21 17 -35t43 -14q8 0 17 2t12 2q20 0 33 -13t13 -33q0 -31 -35 -44q-21 -9 -54 -9q-60 0 -101 35.5t-41 93.5q0 40 24 71q-16 16 -24 38l-38 94h-293
l-37 -93q-22 -59 -73 -59q-32 0 -53 20.5t-21 51.5zM241 268h203l-101 260z" />
    <glyph glyph-name="aogonek" unicode="&#x105;" horiz-adv-x="571" 
d="M546 -86q19 0 32 -13t13 -33q0 -31 -34 -44q-21 -9 -55 -9q-60 0 -101 35.5t-41 93.5q0 47 35 84q-4 8 -5 13q-58 -51 -154 -51q-91 0 -145 44t-54 113q0 70 56 116t147 46q79 0 132 -37v22q0 53 -32.5 82t-84.5 29q-47 0 -91 -24q-16 -8 -34 -8q-25 0 -40.5 15.5
t-15.5 39.5q0 34 34 54q68 45 176 45q109 0 171.5 -62t62.5 -172v-232q0 -50 -45 -63q-17 -14 -17 -39q0 -21 17 -35t43 -14q8 0 18 2t12 2zM278 82q45 0 72 20.5t27 50.5t-27 50.5t-72 20.5q-42 0 -68.5 -20.5t-26.5 -50.5t26.5 -50.5t68.5 -20.5z" />
    <glyph glyph-name="Cacute" unicode="&#x106;" horiz-adv-x="703" 
d="M358 798q0 22 19 43l52 66q24 26 50 26q24 0 40 -17.5t16 -41.5q0 -34 -29 -54l-65 -60q-17 -13 -33 -13q-22 0 -36 14.5t-14 36.5zM45 347q0 152 107 257.5t263 105.5q122 0 213 -63q42 -28 42 -69q0 -31 -20.5 -51.5t-50.5 -20.5q-26 0 -51 18q-62 45 -136 45
q-92 0 -153 -63t-61 -156t61 -156t153 -63q80 0 143 51q25 21 53 21q31 0 50.5 -19.5t19.5 -50.5q0 -33 -27 -58q-88 -85 -241 -85q-156 0 -260.5 102.5t-104.5 254.5z" />
    <glyph glyph-name="cacute" unicode="&#x107;" horiz-adv-x="533" 
d="M268 618q0 22 19 43l52 66q24 26 50 26q24 0 40 -17.5t16 -41.5q0 -34 -29 -54l-65 -60q-17 -13 -33 -13q-22 0 -36 14.5t-14 36.5zM35 256q0 114 81 192.5t201 78.5q84 0 149 -44q39 -25 39 -63q0 -30 -18.5 -49t-48.5 -19q-17 0 -43 15q-38 26 -80 26q-58 0 -96.5 -39
t-38.5 -96t38.5 -96t96.5 -39q47 0 85 30q24 15 43 15q28 0 46.5 -19t18.5 -48q0 -32 -30 -56q-67 -55 -166 -55q-120 0 -198.5 76t-78.5 190z" />
    <glyph glyph-name="Ccircumflex" unicode="&#x108;" horiz-adv-x="703" 
d="M585 799q0 -22 -14.5 -37t-35.5 -15q-20 0 -37 14l-89 76l-90 -77q-16 -13 -34 -13q-21 0 -35.5 14.5t-14.5 36.5q0 26 21 43l63 58q40 34 91 34t92 -34l62 -57q21 -18 21 -43zM45 347q0 152 107 257.5t263 105.5q122 0 213 -63q42 -28 42 -69q0 -31 -20.5 -51.5
t-50.5 -20.5q-26 0 -51 18q-62 45 -136 45q-92 0 -153 -63t-61 -156t61 -156t153 -63q80 0 143 51q25 21 53 21q31 0 50.5 -19.5t19.5 -50.5q0 -33 -27 -58q-88 -85 -241 -85q-156 0 -260.5 102.5t-104.5 254.5z" />
    <glyph glyph-name="ccircumflex" unicode="&#x109;" horiz-adv-x="533" 
d="M492 619q0 -22 -14.5 -37t-35.5 -15q-20 0 -37 14l-89 76l-90 -77q-16 -13 -34 -13q-21 0 -35.5 14.5t-14.5 36.5q0 26 21 43l63 58q40 34 91 34t92 -34l62 -57q21 -18 21 -43zM35 256q0 114 81 192.5t201 78.5q84 0 149 -44q39 -25 39 -63q0 -30 -18.5 -49t-48.5 -19
q-17 0 -43 15q-38 26 -80 26q-58 0 -96.5 -39t-38.5 -96t38.5 -96t96.5 -39q47 0 85 30q24 15 43 15q28 0 46.5 -19t18.5 -48q0 -32 -30 -56q-67 -55 -166 -55q-120 0 -198.5 76t-78.5 190z" />
    <glyph glyph-name="Cdotaccent" unicode="&#x10a;" horiz-adv-x="703" 
d="M333 838q0 33 22.5 55t55.5 22q32 0 53.5 -21.5t21.5 -53.5q0 -33 -22 -55.5t-55 -22.5t-54.5 21.5t-21.5 54.5zM45 347q0 152 107 257.5t263 105.5q122 0 213 -63q42 -28 42 -69q0 -31 -20.5 -51.5t-50.5 -20.5q-26 0 -51 18q-62 45 -136 45q-92 0 -153 -63t-61 -156
t61 -156t153 -63q80 0 143 51q25 21 53 21q31 0 50.5 -19.5t19.5 -50.5q0 -33 -27 -58q-88 -85 -241 -85q-156 0 -260.5 102.5t-104.5 254.5z" />
    <glyph glyph-name="cdotaccent" unicode="&#x10b;" horiz-adv-x="533" 
d="M240 658q0 33 22.5 55t55.5 22q32 0 53.5 -21.5t21.5 -53.5q0 -33 -22 -55.5t-55 -22.5t-54.5 21.5t-21.5 54.5zM35 256q0 114 81 192.5t201 78.5q84 0 149 -44q39 -25 39 -63q0 -30 -18.5 -49t-48.5 -19q-17 0 -43 15q-38 26 -80 26q-58 0 -96.5 -39t-38.5 -96t38.5 -96
t96.5 -39q47 0 85 30q24 15 43 15q28 0 46.5 -19t18.5 -48q0 -32 -30 -56q-67 -55 -166 -55q-120 0 -198.5 76t-78.5 190z" />
    <glyph glyph-name="Ccaron" unicode="&#x10c;" horiz-adv-x="703" 
d="M233 881q0 22 14.5 37t35.5 15q20 0 37 -14l89 -75l90 76q16 13 34 13q21 0 35.5 -14.5t14.5 -36.5q0 -27 -21 -43l-63 -58q-40 -34 -91 -34t-92 34l-62 57q-21 18 -21 43zM45 347q0 152 107 257.5t263 105.5q122 0 213 -63q42 -28 42 -69q0 -31 -20.5 -51.5t-50.5 -20.5
q-26 0 -51 18q-62 45 -136 45q-92 0 -153 -63t-61 -156t61 -156t153 -63q80 0 143 51q25 21 53 21q31 0 50.5 -19.5t19.5 -50.5q0 -33 -27 -58q-88 -85 -241 -85q-156 0 -260.5 102.5t-104.5 254.5z" />
    <glyph glyph-name="ccaron" unicode="&#x10d;" horiz-adv-x="533" 
d="M141 701q0 22 14.5 37t35.5 15q20 0 37 -14l89 -75l90 76q16 13 34 13q21 0 35.5 -14.5t14.5 -36.5q0 -26 -21 -43l-63 -58q-40 -34 -91 -34t-92 34l-62 57q-21 18 -21 43zM35 256q0 114 81 192.5t201 78.5q84 0 149 -44q39 -25 39 -63q0 -30 -18.5 -49t-48.5 -19
q-17 0 -43 15q-38 26 -80 26q-58 0 -96.5 -39t-38.5 -96t38.5 -96t96.5 -39q47 0 85 30q24 15 43 15q28 0 46.5 -19t18.5 -48q0 -32 -30 -56q-67 -55 -166 -55q-120 0 -198.5 76t-78.5 190z" />
    <glyph glyph-name="Dcaron" unicode="&#x10e;" horiz-adv-x="760" 
d="M197 881q0 22 14.5 37t35.5 15q20 0 37 -14l89 -75l90 76q16 13 34 13q21 0 35.5 -14.5t14.5 -36.5q0 -27 -21 -43l-63 -58q-40 -34 -91 -34t-92 34l-62 57q-21 18 -21 43zM80 77v547q0 33 21.5 54.5t54.5 21.5h174q168 0 276.5 -98.5t108.5 -248.5t-111 -251.5
t-279 -101.5h-169q-33 0 -54.5 21.5t-21.5 55.5zM233 133h100q100 0 164.5 61.5t64.5 155.5t-64.5 155.5t-164.5 61.5h-100v-434z" />
    <glyph glyph-name="dcaron" unicode="&#x10f;" horiz-adv-x="816" 
d="M516 705q32 0 52.5 -20t20.5 -52v-571q0 -29 -19 -48t-48 -19q-30 0 -48.5 19t-18.5 48v13q-66 -85 -171 -85q-103 0 -176 77t-73 189q0 113 75 192t179 79q96 0 154 -69v175q0 32 20.5 52t52.5 20zM741 705q28 0 47 -18.5t19 -46.5q0 -11 -5 -29l-37 -129
q-13 -45 -54 -45q-25 0 -40.5 15.5t-15.5 40.5q0 10 2 24l17 122q4 30 22 48t45 18zM314 123q57 0 95.5 39t38.5 96t-38.5 96t-95.5 39t-95.5 -39t-38.5 -96t38.5 -96t95.5 -39z" />
    <glyph glyph-name="Dcroat" unicode="&#x110;" horiz-adv-x="798" 
d="M368 700q168 0 276.5 -98.5t108.5 -248.5t-111 -251.5t-279 -101.5h-169q-33 0 -55 21.5t-22 55.5v238h-50q-19 0 -30.5 11.5t-11.5 30.5t11.5 30.5t30.5 11.5h50v225q0 33 22 54.5t55 21.5h174zM370 133q100 0 165 61.5t65 155.5t-65 155.5t-165 61.5h-100v-168h133
q19 0 30.5 -11.5t11.5 -30.5t-11.5 -30.5t-30.5 -11.5h-133v-182h100z" />
    <glyph glyph-name="dcroat" unicode="&#x111;" horiz-adv-x="681" 
d="M624 651q19 0 30.5 -11.5t11.5 -29.5q0 -19 -11.5 -30.5t-30.5 -11.5h-35v-506q0 -29 -19 -48t-48 -19q-30 0 -48.5 19t-18.5 48v13q-66 -85 -171 -85q-103 0 -176 77t-73 189q0 113 75 192t179 79q96 0 154 -69v110h-91q-19 0 -30.5 11.5t-11.5 30.5q0 18 11.5 29.5
t30.5 11.5h93q6 25 25 39.5t46 14.5t46 -14.5t25 -39.5h37zM314 123q57 0 95.5 39t38.5 96t-38.5 96t-95.5 39t-95.5 -39t-38.5 -96t38.5 -96t95.5 -39z" />
    <glyph glyph-name="Emacron" unicode="&#x112;" horiz-adv-x="650" 
d="M194 793q-19 0 -30.5 12t-11.5 30t11.5 30t30.5 12h286q19 0 30.5 -12t11.5 -30t-11.5 -30t-30.5 -12h-286zM544 133q29 0 47.5 -18.5t18.5 -47.5q0 -30 -18.5 -48.5t-47.5 -18.5h-388q-33 0 -54.5 21.5t-21.5 55.5v547q0 33 21.5 54.5t54.5 21.5h378q29 0 47.5 -18.5
t18.5 -47.5q0 -30 -18.5 -48.5t-47.5 -18.5h-301v-145h255q28 0 45 -17t17 -45t-17 -45t-45 -17h-255v-165h311z" />
    <glyph glyph-name="emacron" unicode="&#x113;" horiz-adv-x="601" 
d="M168 613q-19 0 -30.5 12t-11.5 30t11.5 30t30.5 12h286q19 0 30.5 -12t11.5 -30t-11.5 -30t-30.5 -12h-286zM570 292q0 -28 -16.5 -45t-44.5 -17h-326q7 -51 45 -82.5t94 -31.5q58 0 111 41q20 13 40 13q26 0 42.5 -16t16.5 -42q0 -30 -32 -57q-73 -65 -188 -65
q-120 0 -198.5 76t-78.5 190t80 192.5t198 78.5q106 0 181.5 -71.5t75.5 -163.5zM183 318h247q-7 42 -41 71.5t-78 29.5q-48 0 -83 -28.5t-45 -72.5z" />
    <glyph glyph-name="Ebreve" unicode="&#x114;" horiz-adv-x="650" 
d="M337 752q-67 0 -114 37.5t-49 86.5q-1 22 12.5 35.5t35.5 13.5q28 0 44 -33q17 -55 72 -55t69 53q15 35 45 35q22 0 35.5 -14t12.5 -34q-2 -49 -49 -87t-114 -38zM80 77v547q0 33 21.5 54.5t54.5 21.5h378q29 0 47.5 -18.5t18.5 -47.5q0 -30 -18.5 -48.5t-47.5 -18.5
h-301v-145h255q28 0 45 -17t17 -45t-17 -45t-45 -17h-255v-165h311q29 0 47.5 -18.5t18.5 -47.5q0 -30 -18.5 -48.5t-47.5 -18.5h-388q-33 0 -54.5 21.5t-21.5 55.5z" />
    <glyph glyph-name="ebreve" unicode="&#x115;" horiz-adv-x="601" 
d="M310 572q-67 0 -114 37.5t-49 86.5q-1 22 12.5 35.5t35.5 13.5q28 0 44 -33q17 -55 72 -55t69 53q15 35 45 35q22 0 35.5 -14t12.5 -34q-2 -49 -49 -87t-114 -38zM35 256q0 114 80 192.5t198 78.5q106 0 181.5 -71.5t75.5 -163.5q0 -28 -16.5 -45t-44.5 -17h-326
q7 -51 45 -82.5t94 -31.5q58 0 111 41q20 13 40 13q26 0 42.5 -16t16.5 -42q0 -30 -32 -57q-73 -65 -188 -65q-120 0 -198.5 76t-78.5 190zM183 318h247q-7 42 -41 71.5t-78 29.5q-48 0 -83 -28.5t-45 -72.5z" />
    <glyph glyph-name="Edotaccent" unicode="&#x116;" horiz-adv-x="650" 
d="M260 838q0 33 22.5 55t55.5 22q32 0 53.5 -21.5t21.5 -53.5q0 -33 -22 -55.5t-55 -22.5t-54.5 21.5t-21.5 54.5zM80 77v547q0 33 21.5 54.5t54.5 21.5h378q29 0 47.5 -18.5t18.5 -47.5q0 -30 -18.5 -48.5t-47.5 -18.5h-301v-145h255q28 0 45 -17t17 -45t-17 -45t-45 -17
h-255v-165h311q29 0 47.5 -18.5t18.5 -47.5q0 -30 -18.5 -48.5t-47.5 -18.5h-388q-33 0 -54.5 21.5t-21.5 55.5z" />
    <glyph glyph-name="edotaccent" unicode="&#x117;" horiz-adv-x="601" 
d="M233 658q0 33 22.5 55t55.5 22q32 0 53.5 -21.5t21.5 -53.5q0 -33 -22 -55.5t-55 -22.5t-54.5 21.5t-21.5 54.5zM35 256q0 114 80 192.5t198 78.5q106 0 181.5 -71.5t75.5 -163.5q0 -28 -16.5 -45t-44.5 -17h-326q7 -51 45 -82.5t94 -31.5q58 0 111 41q20 13 40 13
q26 0 42.5 -16t16.5 -42q0 -30 -32 -57q-73 -65 -188 -65q-120 0 -198.5 76t-78.5 190zM183 318h247q-7 42 -41 71.5t-78 29.5q-48 0 -83 -28.5t-45 -72.5z" />
    <glyph glyph-name="Eogonek" unicode="&#x118;" horiz-adv-x="650" 
d="M565 -86q19 0 32 -13t13 -33q0 -31 -34 -44q-21 -9 -55 -9q-60 0 -101 35.5t-41 93.5q0 30 14 56h-237q-33 0 -54.5 21.5t-21.5 55.5v547q0 33 21.5 54.5t54.5 21.5h378q29 0 47.5 -18.5t18.5 -47.5q0 -30 -18.5 -48.5t-47.5 -18.5h-301v-145h255q28 0 45 -17t17 -45
t-17 -45t-45 -17h-255v-165h311q29 0 47.5 -18.5t18.5 -47.5q0 -30 -18.5 -48.5t-47.5 -18.5h-49q-20 -12 -20 -41q0 -21 17 -35t43 -14q9 0 18 2t12 2z" />
    <glyph glyph-name="eogonek" unicode="&#x119;" horiz-adv-x="601" 
d="M570 292q0 -28 -16.5 -45t-44.5 -17h-326q7 -51 45 -82.5t94 -31.5q58 0 111 41q20 13 40 13q26 0 42.5 -16t16.5 -42q0 -30 -32 -57q-49 -44 -119 -58q-16 -13 -16 -38q0 -21 17 -35t43 -14q9 0 18 2t12 2q19 0 32 -13t13 -33q0 -31 -34 -44q-21 -9 -55 -9
q-60 0 -101 35.5t-41 93.5q0 25 10 48q-107 11 -175.5 84.5t-68.5 179.5q0 114 80 192.5t198 78.5q106 0 181.5 -71.5t75.5 -163.5zM183 318h247q-7 42 -41 71.5t-78 29.5q-48 0 -83 -28.5t-45 -72.5z" />
    <glyph glyph-name="Ecaron" unicode="&#x11a;" horiz-adv-x="650" 
d="M164 881q0 22 14.5 37t35.5 15q20 0 37 -14l89 -75l90 76q16 13 34 13q21 0 35.5 -14.5t14.5 -36.5q0 -27 -21 -43l-63 -58q-40 -34 -91 -34t-92 34l-62 57q-21 18 -21 43zM80 77v547q0 33 21.5 54.5t54.5 21.5h378q29 0 47.5 -18.5t18.5 -47.5q0 -30 -18.5 -48.5
t-47.5 -18.5h-301v-145h255q28 0 45 -17t17 -45t-17 -45t-45 -17h-255v-165h311q29 0 47.5 -18.5t18.5 -47.5q0 -30 -18.5 -48.5t-47.5 -18.5h-388q-33 0 -54.5 21.5t-21.5 55.5z" />
    <glyph glyph-name="ecaron" unicode="&#x11b;" horiz-adv-x="601" 
d="M135 701q0 22 14.5 37t35.5 15q20 0 37 -14l89 -75l90 76q16 13 34 13q21 0 35.5 -14.5t14.5 -36.5q0 -26 -21 -43l-63 -58q-40 -34 -91 -34t-92 34l-62 57q-21 18 -21 43zM35 256q0 114 80 192.5t198 78.5q106 0 181.5 -71.5t75.5 -163.5q0 -28 -16.5 -45t-44.5 -17
h-326q7 -51 45 -82.5t94 -31.5q58 0 111 41q20 13 40 13q26 0 42.5 -16t16.5 -42q0 -30 -32 -57q-73 -65 -188 -65q-120 0 -198.5 76t-78.5 190zM183 318h247q-7 42 -41 71.5t-78 29.5q-48 0 -83 -28.5t-45 -72.5z" />
    <glyph glyph-name="Gcircumflex" unicode="&#x11c;" horiz-adv-x="792" 
d="M587 799q0 -22 -14.5 -37t-35.5 -15q-20 0 -37 14l-89 76l-90 -77q-16 -13 -34 -13q-21 0 -35.5 14.5t-14.5 36.5q0 26 21 43l63 58q40 34 91 34t92 -34l62 -57q21 -18 21 -43zM410 -10q-156 0 -260.5 102.5t-104.5 254.5t107 257.5t263 105.5q122 0 212 -62
q39 -27 39 -65q0 -31 -21 -52t-52 -21q-25 0 -45 14q-72 45 -136 45q-92 0 -153 -63t-61 -158t61 -158t153 -63q73 0 123 38.5t63 104.5h-142q-25 0 -40.5 15.5t-15.5 40.5q0 23 15.5 38.5t40.5 15.5h236q28 0 46 -17.5t18 -44.5q-1 -131 -100 -229.5t-246 -98.5z" />
    <glyph glyph-name="gcircumflex" unicode="&#x11d;" horiz-adv-x="649" 
d="M197 567q-21 0 -35.5 14.5t-14.5 36.5q0 26 21 43l63 58q40 34 91 34t92 -34l62 -57q21 -18 21 -43q0 -22 -14.5 -37t-35.5 -15q-20 0 -37 14l-89 76l-90 -77q-16 -13 -34 -13zM522 522q29 0 48 -19t19 -49v-325q0 -137 -77 -218t-216 -81q-132 0 -221 57q-36 21 -36 56
q0 26 16 42.5t42 16.5q15 0 39 -11q75 -39 148 -39q75 0 117 37.5t42 107.5v11q-56 -63 -155 -63q-107 0 -180 69.5t-73 168.5q0 104 72.5 174t185.5 70q99 0 162 -68q2 28 20.5 45.5t46.5 17.5zM314 160q57 0 95.5 35.5t38.5 86.5t-38.5 86.5t-95.5 35.5t-95.5 -35.5
t-38.5 -86.5t38.5 -86.5t95.5 -35.5z" />
    <glyph glyph-name="Gbreve" unicode="&#x11e;" horiz-adv-x="792" 
d="M412 752q-67 0 -114 37.5t-49 86.5q-1 22 12.5 35.5t35.5 13.5q28 0 44 -33q17 -55 72 -55t69 53q15 35 45 35q22 0 35.5 -14t12.5 -34q-2 -49 -49 -87t-114 -38zM410 -10q-156 0 -260.5 102.5t-104.5 254.5t107 257.5t263 105.5q122 0 212 -62q39 -27 39 -65
q0 -31 -21 -52t-52 -21q-25 0 -45 14q-72 45 -136 45q-92 0 -153 -63t-61 -158t61 -158t153 -63q73 0 123 38.5t63 104.5h-142q-25 0 -40.5 15.5t-15.5 40.5q0 23 15.5 38.5t40.5 15.5h236q28 0 46 -17.5t18 -44.5q-1 -131 -100 -229.5t-246 -98.5z" />
    <glyph glyph-name="gbreve" unicode="&#x11f;" horiz-adv-x="649" 
d="M322 572q-67 0 -114 37.5t-49 86.5q-1 22 12.5 35.5t35.5 13.5q28 0 44 -33q17 -55 72 -55t69 53q15 35 45 35q22 0 35.5 -14t12.5 -34q-2 -49 -49 -87t-114 -38zM522 522q29 0 48 -19t19 -49v-325q0 -137 -77 -218t-216 -81q-132 0 -221 57q-36 21 -36 56q0 26 16 42.5
t42 16.5q15 0 39 -11q75 -39 148 -39q75 0 117 37.5t42 107.5v11q-56 -63 -155 -63q-107 0 -180 69.5t-73 168.5q0 104 72.5 174t185.5 70q99 0 162 -68q2 28 20.5 45.5t46.5 17.5zM314 160q57 0 95.5 35.5t38.5 86.5t-38.5 86.5t-95.5 35.5t-95.5 -35.5t-38.5 -86.5
t38.5 -86.5t95.5 -35.5z" />
    <glyph glyph-name="Gdotaccent" unicode="&#x120;" horiz-adv-x="792" 
d="M335 838q0 33 22.5 55t55.5 22q32 0 53.5 -21.5t21.5 -53.5q0 -33 -22 -55.5t-55 -22.5t-54.5 21.5t-21.5 54.5zM410 -10q-156 0 -260.5 102.5t-104.5 254.5t107 257.5t263 105.5q122 0 212 -62q39 -27 39 -65q0 -31 -21 -52t-52 -21q-25 0 -45 14q-72 45 -136 45
q-92 0 -153 -63t-61 -158t61 -158t153 -63q73 0 123 38.5t63 104.5h-142q-25 0 -40.5 15.5t-15.5 40.5q0 23 15.5 38.5t40.5 15.5h236q28 0 46 -17.5t18 -44.5q-1 -131 -100 -229.5t-246 -98.5z" />
    <glyph glyph-name="gdotaccent" unicode="&#x121;" horiz-adv-x="649" 
d="M321 582q-33 0 -54.5 21.5t-21.5 54.5t22.5 55t55.5 22q32 0 53.5 -21.5t21.5 -53.5q0 -33 -22 -55.5t-55 -22.5zM522 522q29 0 48 -19t19 -49v-325q0 -137 -77 -218t-216 -81q-132 0 -221 57q-36 21 -36 56q0 26 16 42.5t42 16.5q15 0 39 -11q75 -39 148 -39
q75 0 117 37.5t42 107.5v11q-56 -63 -155 -63q-107 0 -180 69.5t-73 168.5q0 104 72.5 174t185.5 70q99 0 162 -68q2 28 20.5 45.5t46.5 17.5zM314 160q57 0 95.5 35.5t38.5 86.5t-38.5 86.5t-95.5 35.5t-95.5 -35.5t-38.5 -86.5t38.5 -86.5t95.5 -35.5z" />
    <glyph glyph-name="Gcommaaccent" unicode="&#x122;" horiz-adv-x="792" 
d="M410 -10q-156 0 -260.5 102.5t-104.5 254.5t107 257.5t263 105.5q122 0 212 -62q39 -27 39 -65q0 -31 -21 -52t-52 -21q-25 0 -45 14q-72 45 -136 45q-92 0 -153 -63t-61 -158t61 -158t153 -63q73 0 123 38.5t63 104.5h-142q-25 0 -40.5 15.5t-15.5 40.5q0 23 15.5 38.5
t40.5 15.5h236q28 0 46 -17.5t18 -44.5q-1 -131 -100 -229.5t-246 -98.5zM272 -180q0 22 19 43l52 66q24 26 50 26q24 0 40 -17.5t16 -41.5q0 -34 -29 -54l-65 -60q-17 -13 -33 -13q-22 0 -36 14.5t-14 36.5z" />
    <glyph glyph-name="gcommaaccent" unicode="&#x123;" horiz-adv-x="649" 
d="M342 567q-24 0 -40 17.5t-16 41.5q0 34 29 54l65 60q17 13 33 13q22 0 36 -14.5t14 -36.5t-19 -43l-52 -66q-24 -26 -50 -26zM522 522q29 0 48 -19t19 -49v-325q0 -137 -77 -218t-216 -81q-132 0 -221 57q-36 21 -36 56q0 26 16 42.5t42 16.5q15 0 39 -11q75 -39 148 -39
q75 0 117 37.5t42 107.5v11q-56 -63 -155 -63q-107 0 -180 69.5t-73 168.5q0 104 72.5 174t185.5 70q99 0 162 -68q2 28 20.5 45.5t46.5 17.5zM314 160q57 0 95.5 35.5t38.5 86.5t-38.5 86.5t-95.5 35.5t-95.5 -35.5t-38.5 -86.5t38.5 -86.5t95.5 -35.5z" />
    <glyph glyph-name="Hcircumflex" unicode="&#x124;" horiz-adv-x="770" 
d="M260 747q-21 0 -35.5 14.5t-14.5 36.5q0 26 21 43l63 58q40 34 91 34t92 -34l62 -57q21 -18 21 -43q0 -22 -14.5 -37t-35.5 -15q-20 0 -37 14l-89 76l-90 -77q-16 -13 -34 -13zM614 705q33 0 54.5 -21.5t21.5 -54.5v-557q0 -34 -21.5 -55.5t-54.5 -21.5q-34 0 -55.5 21.5
t-21.5 55.5v223h-304v-223q0 -34 -21.5 -55.5t-55.5 -21.5q-33 0 -54.5 21.5t-21.5 55.5v557q0 33 21.5 54.5t54.5 21.5q34 0 55.5 -21.5t21.5 -54.5v-198h304v198q0 33 21.5 54.5t55.5 21.5z" />
    <glyph glyph-name="hcircumflex" unicode="&#x125;" horiz-adv-x="614" 
d="M190 747q-21 0 -35.5 14.5t-14.5 36.5q0 26 21 43l63 58q40 34 91 34t92 -34l62 -57q21 -18 21 -43q0 -22 -14.5 -37t-35.5 -15q-20 0 -37 14l-89 76l-90 -77q-16 -13 -34 -13zM366 527q83 0 138.5 -56.5t55.5 -155.5v-247q0 -32 -20.5 -52.5t-52.5 -20.5t-52 20.5
t-20 52.5v200q0 62 -28 93.5t-73 31.5q-47 0 -77.5 -31t-31.5 -92v-202q0 -32 -20 -52.5t-52 -20.5t-52.5 20.5t-20.5 52.5v565q0 32 20.5 52t52.5 20q31 0 51.5 -20.5t20.5 -51.5v-188q56 82 161 82z" />
    <glyph glyph-name="Hbar" unicode="&#x126;" horiz-adv-x="845" 
d="M778 597q19 0 30.5 -11t11.5 -30t-11.5 -30.5t-30.5 -11.5h-50v-442q0 -34 -21.5 -55.5t-55.5 -21.5q-33 0 -54.5 21.5t-21.5 55.5v223h-305v-223q0 -34 -21.5 -55.5t-54.5 -21.5t-55 21.5t-22 55.5v442h-50q-19 0 -30.5 11.5t-11.5 30.5t11.5 30t30.5 11h50v32
q0 33 22 54.5t55 21.5t54.5 -21.5t21.5 -54.5v-32h305v32q0 33 21.5 54.5t54.5 21.5q34 0 55.5 -21.5t21.5 -54.5v-32h50zM575 431v83h-305v-83h305z" />
    <glyph glyph-name="hbar" unicode="&#x127;" horiz-adv-x="655" 
d="M398 527q84 0 139.5 -56.5t55.5 -155.5v-247q0 -32 -20.5 -52.5t-52.5 -20.5t-52.5 20.5t-20.5 52.5v200q0 62 -27.5 93.5t-72.5 31.5q-47 0 -77.5 -31t-31.5 -92v-202q0 -32 -20.5 -52.5t-52.5 -20.5t-52.5 20.5t-20.5 52.5v500h-35q-19 0 -30.5 11.5t-11.5 30.5
q0 18 11.5 29.5t30.5 11.5h37q5 24 24.5 39t46.5 15t46.5 -15t24.5 -39h94q18 0 29.5 -11.5t11.5 -29.5q0 -19 -11.5 -30.5t-29.5 -11.5h-92v-123q56 82 160 82z" />
    <glyph glyph-name="Itilde" unicode="&#x128;" horiz-adv-x="327" 
d="M302 912q17 0 27.5 -11.5t10.5 -28.5q0 -6 -2 -20q-7 -35 -32.5 -66t-69.5 -31q-33 0 -58.5 18t-45 36t-37.5 18q-23 0 -33 -38q-8 -31 -37 -31q-17 0 -27.5 11.5t-10.5 28.5q0 6 2 20q7 35 32.5 66t69.5 31q33 0 59 -18t45 -36t37 -18q23 0 33 38q8 31 37 31zM164 705
q34 0 56 -22t22 -56v-554q0 -34 -22 -56t-56 -22q-35 0 -57 22t-22 56v554q0 34 22 56t57 22z" />
    <glyph glyph-name="itilde" unicode="&#x129;" horiz-adv-x="277" 
d="M278 732q17 0 27.5 -11.5t10.5 -28.5q0 -6 -2 -20q-7 -35 -32.5 -66t-69.5 -31q-33 0 -58.5 18t-45 36t-37.5 18q-23 0 -33 -38q-8 -31 -37 -31q-17 0 -27.5 11.5t-10.5 28.5q0 6 2 20q7 35 32.5 66t69.5 31q33 0 59 -18t45 -36t37 -18q23 0 33 38q8 31 37 31zM139 522
q32 0 52.5 -21t20.5 -53v-379q0 -32 -20.5 -53t-52.5 -21q-33 0 -53.5 21t-20.5 53v379q0 32 20.5 53t53.5 21z" />
    <glyph glyph-name="Imacron" unicode="&#x12a;" horiz-adv-x="327" 
d="M307 877q19 0 30.5 -12t11.5 -30t-11.5 -30t-30.5 -12h-286q-19 0 -30.5 12t-11.5 30t11.5 30t30.5 12h286zM164 705q34 0 56 -22t22 -56v-554q0 -34 -22 -56t-56 -22q-35 0 -57 22t-22 56v554q0 34 22 56t57 22z" />
    <glyph glyph-name="imacron" unicode="&#x12b;" horiz-adv-x="277" 
d="M282 697q19 0 30.5 -12t11.5 -30t-11.5 -30t-30.5 -12h-286q-19 0 -30.5 12t-11.5 30t11.5 30t30.5 12h286zM139 522q32 0 52.5 -21t20.5 -53v-379q0 -32 -20.5 -53t-52.5 -21q-33 0 -53.5 21t-20.5 53v379q0 32 20.5 53t53.5 21z" />
    <glyph glyph-name="Ibreve" unicode="&#x12c;" horiz-adv-x="327" 
d="M279 925q22 0 35.5 -14t12.5 -34q-2 -49 -49 -87t-114 -38t-114 37.5t-49 86.5q-1 22 12.5 35.5t35.5 13.5q28 0 44 -33q17 -55 72 -55t69 53q15 35 45 35zM164 705q34 0 56 -22t22 -56v-554q0 -34 -22 -56t-56 -22q-35 0 -57 22t-22 56v554q0 34 22 56t57 22z" />
    <glyph glyph-name="ibreve" unicode="&#x12d;" horiz-adv-x="277" 
d="M254 745q22 0 35.5 -14t12.5 -34q-2 -49 -49 -87t-114 -38t-114 37.5t-49 86.5q-1 22 12.5 35.5t35.5 13.5q28 0 44 -33q17 -55 72 -55t69 53q15 35 45 35zM139 522q32 0 52.5 -21t20.5 -53v-379q0 -32 -20.5 -53t-52.5 -21q-33 0 -53.5 21t-20.5 53v379q0 32 20.5 53
t53.5 21z" />
    <glyph glyph-name="Iogonek" unicode="&#x12e;" horiz-adv-x="327" 
d="M241 -86q19 0 32 -13t13 -33q0 -31 -34 -44q-21 -9 -55 -9q-60 0 -101 35.5t-41 93.5q0 52 40 88q-10 20 -10 41v554q0 34 22 56t57 22q34 0 56 -22t22 -56v-554q0 -35 -22 -56.5t-56 -21.5q-13 -16 -13 -36q0 -21 17 -35t43 -14q9 0 18 2t12 2z" />
    <glyph glyph-name="iogonek" unicode="&#x12f;" horiz-adv-x="277" 
d="M139 575q-39 0 -63.5 23.5t-24.5 60.5q0 36 24.5 60t63.5 24q38 0 62.5 -24t24.5 -60q0 -37 -24.5 -60.5t-62.5 -23.5zM210 -86q19 0 32 -13t13 -33q0 -31 -34 -44q-21 -9 -55 -9q-60 0 -101 35.5t-41 93.5q0 56 47 94q-6 13 -6 31v379q0 32 20.5 53t53.5 21
q32 0 52.5 -21t20.5 -53v-379q0 -32 -20.5 -53t-52.5 -21h-5q-14 -14 -14 -36q0 -21 17 -35t43 -14q8 0 18 2t12 2z" />
    <glyph glyph-name="Idotaccent" unicode="&#x130;" horiz-adv-x="327" 
d="M162 762q-33 0 -54.5 21.5t-21.5 54.5t22.5 55t55.5 22q32 0 53.5 -21.5t21.5 -53.5q0 -33 -22 -55.5t-55 -22.5zM164 705q34 0 56 -22t22 -56v-554q0 -34 -22 -56t-56 -22q-35 0 -57 22t-22 56v554q0 34 22 56t57 22z" />
    <glyph glyph-name="dotlessi" unicode="&#x131;" horiz-adv-x="277" 
d="M139 522q32 0 52.5 -21t20.5 -53v-379q0 -32 -20.5 -53t-52.5 -21q-33 0 -53.5 21t-20.5 53v379q0 32 20.5 53t53.5 21z" />
    <glyph glyph-name="IJ" unicode="&#x132;" horiz-adv-x="812" 
d="M164 705q34 0 56 -22t22 -56v-554q0 -34 -22 -56t-56 -22q-35 0 -57 22t-22 56v554q0 34 22 56t57 22zM664 705q34 0 56 -22t22 -56v-366q0 -123 -74 -197t-190 -74q-48 0 -84 12q-55 17 -55 69q0 31 20 50.5t52 19.5q7 0 23.5 -3t30.5 -3q54 0 87 36t33 99v357
q0 34 22 56t57 22z" />
    <glyph glyph-name="ij" unicode="&#x133;" horiz-adv-x="554" 
d="M416 575q-39 0 -63.5 23.5t-24.5 60.5q0 36 24.5 60t63.5 24q38 0 62.5 -24t24.5 -60q0 -37 -24.5 -60.5t-62.5 -23.5zM139 575q-39 0 -63.5 23.5t-24.5 60.5q0 36 24.5 60t63.5 24q38 0 62.5 -24t24.5 -60q0 -37 -24.5 -60.5t-62.5 -23.5zM416 522q32 0 52.5 -21
t20.5 -53v-405q0 -104 -49.5 -158.5t-137.5 -54.5q-26 0 -41 5q-25 6 -41.5 22.5t-16.5 40.5q0 27 17 43.5t44 16.5q1 0 5.5 -1t9.5 -1q63 0 63 74v418q0 32 20.5 53t53.5 21zM212 448v-379q0 -32 -20.5 -53t-52.5 -21q-33 0 -53.5 21t-20.5 53v379q0 32 20.5 53t53.5 21
q32 0 52.5 -21t20.5 -53z" />
    <glyph glyph-name="Jcircumflex" unicode="&#x134;" horiz-adv-x="485" 
d="M512 799q0 -22 -14.5 -37t-35.5 -15q-20 0 -37 14l-89 76l-90 -77q-16 -13 -34 -13q-21 0 -35.5 14.5t-14.5 36.5q0 26 21 43l63 58q40 34 91 34t92 -34l62 -57q21 -18 21 -43zM12 71q0 31 20 50.5t52 19.5q7 0 23.5 -3t30.5 -3q54 0 87 36t33 99v357q0 34 22 56t57 22
q34 0 56 -22t22 -56v-366q0 -123 -74 -197t-190 -74q-48 0 -84 12q-55 17 -55 69z" />
    <glyph glyph-name="jcircumflex" unicode="&#x135;" horiz-adv-x="277" 
d="M292 662q21 -17 21 -43q0 -22 -14 -37t-36 -15q-18 0 -37 14l-88 76l-90 -77q-17 -13 -35 -13q-21 0 -35.5 14.5t-14.5 36.5q0 26 21 43l63 58q41 34 92 34t91 -34zM139 522q32 0 52.5 -21t20.5 -53v-405q0 -104 -49.5 -158.5t-137.5 -54.5q-26 0 -41 5q-25 6 -41.5 22.5
t-16.5 40.5q0 27 17 43.5t44 16.5q1 0 5.5 -1t9.5 -1q63 0 63 74v418q0 32 20.5 53t53.5 21z" />
    <glyph glyph-name="Kcommaaccent" unicode="&#x136;" horiz-adv-x="660" 
d="M80 72v557q0 33 21.5 54.5t54.5 21.5q34 0 55.5 -21.5t21.5 -54.5v-248l263 290q27 34 62 34q31 0 50 -19.5t19 -49.5q0 -29 -22 -53l-216 -216l237 -252q19 -22 19 -50q0 -30 -19.5 -50t-50.5 -20q-34 0 -61 32l-281 312v-267q0 -34 -21.5 -55.5t-55.5 -21.5
q-33 0 -54.5 21.5t-21.5 55.5zM241 -180q0 22 19 43l52 66q24 26 50 26q24 0 40 -17.5t16 -41.5q0 -34 -29 -54l-65 -60q-17 -13 -33 -13q-22 0 -36 14.5t-14 36.5z" />
    <glyph glyph-name="kcommaaccent" unicode="&#x137;" horiz-adv-x="548" 
d="M60 68v565q0 32 20.5 52t52.5 20q31 0 51.5 -20.5t20.5 -51.5v-342l205 207q22 24 52 24q28 0 45 -17.5t17 -45.5q0 -29 -20 -49l-148 -132l159 -168q18 -21 18 -48q0 -29 -18.5 -48t-48.5 -19q-35 0 -59 31l-202 231v-189q0 -32 -20 -52.5t-52 -20.5t-52.5 20.5
t-20.5 52.5zM179 -180q0 22 19 43l52 66q24 26 50 26q24 0 40 -17.5t16 -41.5q0 -34 -29 -54l-65 -60q-17 -13 -33 -13q-22 0 -36 14.5t-14 36.5z" />
    <glyph glyph-name="Lacute" unicode="&#x139;" horiz-adv-x="589" 
d="M106 798q0 22 19 43l52 66q24 26 50 26q24 0 40 -17.5t16 -41.5q0 -34 -29 -54l-65 -60q-17 -13 -33 -13q-22 0 -36 14.5t-14 36.5zM80 77v552q0 33 21.5 54.5t54.5 21.5q34 0 55.5 -21.5t21.5 -54.5v-492h279q30 0 49 -19t19 -50q0 -30 -19 -49t-49 -19h-356
q-33 0 -54.5 21.5t-21.5 55.5z" />
    <glyph glyph-name="lacute" unicode="&#x13a;" horiz-adv-x="277" 
d="M209 933q24 0 40 -17.5t16 -41.5q0 -34 -29 -54l-65 -60q-17 -13 -33 -13q-22 0 -36 14.5t-14 36.5t19 43l52 66q24 26 50 26zM139 705q32 0 52.5 -20.5t20.5 -52.5v-563q0 -32 -20.5 -53t-52.5 -21q-33 0 -53.5 21t-20.5 53v563q0 32 20.5 52.5t53.5 20.5z" />
    <glyph glyph-name="Lcommaaccent" unicode="&#x13b;" horiz-adv-x="589" 
d="M80 77v552q0 33 21.5 54.5t54.5 21.5q34 0 55.5 -21.5t21.5 -54.5v-492h279q30 0 49 -19t19 -50q0 -30 -19 -49t-49 -19h-356q-33 0 -54.5 21.5t-21.5 55.5zM221 -180q0 22 19 43l52 66q24 26 50 26q24 0 40 -17.5t16 -41.5q0 -34 -29 -54l-65 -60q-17 -13 -33 -13
q-22 0 -36 14.5t-14 36.5z" />
    <glyph glyph-name="lcommaaccent" unicode="&#x13c;" horiz-adv-x="277" 
d="M139 705q32 0 52.5 -20.5t20.5 -52.5v-563q0 -32 -20.5 -53t-52.5 -21q-33 0 -53.5 21t-20.5 53v563q0 32 20.5 52.5t53.5 20.5zM133 -45q24 0 40 -17.5t16 -41.5q0 -34 -29 -54l-65 -60q-17 -13 -33 -13q-22 0 -36 14.5t-14 36.5t19 43l52 66q24 26 50 26z" />
    <glyph glyph-name="Lcaron" unicode="&#x13d;" horiz-adv-x="590" 
d="M80 77v552q0 33 21.5 54.5t54.5 21.5q34 0 55.5 -21.5t21.5 -54.5v-492h279q30 0 49 -19t19 -50q0 -30 -19 -49t-49 -19h-356q-33 0 -54.5 21.5t-21.5 55.5zM368 493q0 10 2 24l17 122q4 30 22 48t45 18q28 0 47 -18.5t19 -46.5q0 -11 -5 -29l-37 -129q-14 -45 -54 -45
q-25 0 -40.5 15.5t-15.5 40.5z" />
    <glyph glyph-name="lcaron" unicode="&#x13e;" horiz-adv-x="439" 
d="M139 705q32 0 52.5 -20.5t20.5 -52.5v-563q0 -32 -20.5 -53t-52.5 -21q-33 0 -53.5 21t-20.5 53v563q0 32 20.5 52.5t53.5 20.5zM364 705q29 0 48 -18.5t19 -46.5q0 -12 -6 -29l-36 -129q-14 -45 -55 -45q-24 0 -39.5 15.5t-15.5 40.5q0 10 2 24l16 122q4 29 22.5 47.5
t44.5 18.5z" />
    <glyph glyph-name="Ldot" unicode="&#x13f;" horiz-adv-x="589" 
d="M80 77v552q0 33 21.5 54.5t54.5 21.5q34 0 55.5 -21.5t21.5 -54.5v-492h279q30 0 49 -19t19 -50q0 -30 -19 -49t-49 -19h-356q-33 0 -54.5 21.5t-21.5 55.5zM325 392q0 38 27 64.5t65 26.5q37 0 64 -26.5t27 -64.5t-26.5 -65t-64.5 -27t-65 27t-27 65z" />
    <glyph glyph-name="ldot" unicode="&#x140;" horiz-adv-x="480" 
d="M139 705q32 0 52.5 -20.5t20.5 -52.5v-563q0 -32 -20.5 -53t-52.5 -21q-33 0 -53.5 21t-20.5 53v563q0 32 20.5 52.5t53.5 20.5zM366 442q38 0 65 -27t27 -65t-27 -64.5t-65 -26.5t-64.5 26.5t-26.5 64.5t26.5 65t64.5 27z" />
    <glyph glyph-name="Lslash" unicode="&#x141;" horiz-adv-x="628" 
d="M549 137q31 0 50 -19t19 -50q0 -30 -19 -49t-50 -19h-355q-33 0 -55 21.5t-22 55.5v233l-40 -6q-23 -4 -37.5 8t-14.5 31q0 36 41 42l51 8v236q0 33 22 54.5t55 21.5t54.5 -21.5t21.5 -54.5v-212l187 28q27 4 41.5 -7t14.5 -31q0 -37 -42 -43l-201 -31v-196h279z" />
    <glyph glyph-name="lslash" unicode="&#x142;" horiz-adv-x="370" 
d="M308 440q17 0 29 -11.5t12 -28.5q0 -35 -40 -42l-55 -12v-277q0 -32 -21 -53t-53 -21t-53 21t-21 53v245l-25 -5q-13 -3 -18 -3q-18 0 -30 12t-12 29q0 34 40 41l45 10v234q0 32 21 52.5t53 20.5t53 -20.5t21 -52.5v-203l35 8q12 3 19 3z" />
    <glyph glyph-name="Nacute" unicode="&#x143;" horiz-adv-x="790" 
d="M346 798q0 22 19 43l52 66q24 26 50 26q24 0 40 -17.5t16 -41.5q0 -34 -29 -54l-65 -60q-17 -13 -33 -13q-22 0 -36 14.5t-14 36.5zM80 70v535q0 43 28 71.5t72 28.5q53 0 87 -50l294 -414v390q0 32 21 53t54 21t53.5 -21t20.5 -53v-542q0 -41 -26 -67.5t-67 -26.5
q-52 0 -87 51l-301 425v-401q0 -33 -20.5 -54t-53.5 -21q-34 0 -54.5 21t-20.5 54z" />
    <glyph glyph-name="nacute" unicode="&#x144;" horiz-adv-x="614" 
d="M288 567q-22 0 -36 14.5t-14 36.5t19 43l52 66q24 26 50 26q24 0 40 -17.5t16 -41.5q0 -34 -29 -54l-65 -60q-17 -13 -33 -13zM366 527q85 0 139.5 -56.5t54.5 -155.5v-247q0 -32 -20.5 -52.5t-52.5 -20.5t-52 20.5t-20 52.5v200q0 62 -28 93.5t-73 31.5
q-48 0 -78.5 -32.5t-30.5 -97.5v-195q0 -32 -20 -52.5t-52 -20.5t-52.5 20.5t-20.5 52.5v386q0 29 19 48.5t49 19.5q29 0 48 -19.5t19 -48.5v-18q27 45 72.5 68t98.5 23z" />
    <glyph glyph-name="Ncommaaccent" unicode="&#x145;" horiz-adv-x="790" 
d="M80 70v535q0 43 28 71.5t72 28.5q53 0 87 -50l294 -414v390q0 32 21 53t54 21t53.5 -21t20.5 -53v-542q0 -41 -26 -67.5t-67 -26.5q-52 0 -87 51l-301 425v-401q0 -33 -20.5 -54t-53.5 -21q-34 0 -54.5 21t-20.5 54zM273 -180q0 22 19 43l52 66q24 26 50 26
q24 0 40 -17.5t16 -41.5q0 -34 -29 -54l-65 -60q-17 -13 -33 -13q-22 0 -36 14.5t-14 36.5z" />
    <glyph glyph-name="ncommaaccent" unicode="&#x146;" horiz-adv-x="614" 
d="M366 527q85 0 139.5 -56.5t54.5 -155.5v-247q0 -32 -20.5 -52.5t-52.5 -20.5t-52 20.5t-20 52.5v200q0 62 -28 93.5t-73 31.5q-48 0 -78.5 -32.5t-30.5 -97.5v-195q0 -32 -20 -52.5t-52 -20.5t-52.5 20.5t-20.5 52.5v386q0 29 19 48.5t49 19.5q29 0 48 -19.5t19 -48.5
v-18q27 45 72.5 68t98.5 23zM302 -45q24 0 40 -17.5t16 -41.5q0 -34 -29 -54l-65 -60q-17 -13 -33 -13q-22 0 -36 14.5t-14 36.5t19 43l52 66q24 26 50 26z" />
    <glyph glyph-name="Ncaron" unicode="&#x147;" horiz-adv-x="790" 
d="M221 881q0 22 14.5 37t35.5 15q20 0 37 -14l89 -75l90 76q16 13 34 13q21 0 35.5 -14.5t14.5 -36.5q0 -27 -21 -43l-63 -58q-40 -34 -91 -34t-92 34l-62 57q-21 18 -21 43zM80 70v535q0 43 28 71.5t72 28.5q53 0 87 -50l294 -414v390q0 32 21 53t54 21t53.5 -21t20.5 -53
v-542q0 -41 -26 -67.5t-67 -26.5q-52 0 -87 51l-301 425v-401q0 -33 -20.5 -54t-53.5 -21q-34 0 -54.5 21t-20.5 54z" />
    <glyph glyph-name="ncaron" unicode="&#x148;" horiz-adv-x="614" 
d="M152 658q-21 18 -21 43q0 22 14.5 37t35.5 15q20 0 37 -14l89 -75l90 76q16 13 34 13q21 0 35.5 -14.5t14.5 -36.5q0 -26 -21 -43l-63 -58q-40 -34 -91 -34t-92 34zM366 527q85 0 139.5 -56.5t54.5 -155.5v-247q0 -32 -20.5 -52.5t-52.5 -20.5t-52 20.5t-20 52.5v200
q0 62 -28 93.5t-73 31.5q-48 0 -78.5 -32.5t-30.5 -97.5v-195q0 -32 -20 -52.5t-52 -20.5t-52.5 20.5t-20.5 52.5v386q0 29 19 48.5t49 19.5q29 0 48 -19.5t19 -48.5v-18q27 45 72.5 68t98.5 23z" />
    <glyph glyph-name="Eng" unicode="&#x14a;" horiz-adv-x="790" 
d="M80 70v535q0 43 28 71.5t72 28.5q53 0 87 -50l294 -414v390q0 32 21 53t54 21t53.5 -21t20.5 -53v-587q0 -101 -55 -157.5t-148 -56.5q-35 0 -66 9q-20 6 -33 21.5t-13 36.5q0 25 16.5 42t42.5 17q4 0 15.5 -2t20.5 -2q26 0 45.5 13.5t25.5 35.5l-332 470v-401
q0 -33 -20.5 -54t-53.5 -21q-34 0 -54.5 21t-20.5 54z" />
    <glyph glyph-name="eng" unicode="&#x14b;" horiz-adv-x="614" 
d="M366 527q85 0 139.5 -56.5t54.5 -155.5v-247v-25q0 -104 -49.5 -158.5t-137.5 -54.5q-19 0 -36 5q-24 5 -38.5 22t-14.5 41q0 26 18 43t44 17q1 0 4.5 -1t8.5 -1q56 0 56 74v182v56q0 62 -28 93.5t-73 31.5q-48 0 -78.5 -32.5t-30.5 -97.5v-195q0 -32 -20 -52.5
t-52 -20.5t-52.5 20.5t-20.5 52.5v386q0 29 19 48.5t49 19.5q29 0 48 -19.5t19 -48.5v-18q27 45 72.5 68t98.5 23z" />
    <glyph glyph-name="Omacron" unicode="&#x14c;" horiz-adv-x="825" 
d="M267 793q-19 0 -30.5 12t-11.5 30t11.5 30t30.5 12h286q19 0 30.5 -12t11.5 -30t-11.5 -30t-30.5 -12h-286zM415 710q156 0 260.5 -102.5t104.5 -254.5t-107 -257.5t-263 -105.5t-260.5 102.5t-104.5 254.5t107 257.5t263 105.5zM412 131q93 0 154 63t61 156t-61 156
t-154 63q-92 0 -153 -63t-61 -156t61 -156t153 -63z" />
    <glyph glyph-name="omacron" unicode="&#x14d;" horiz-adv-x="629" 
d="M172 613q-19 0 -30.5 12t-11.5 30t11.5 30t30.5 12h286q19 0 30.5 -12t11.5 -30t-11.5 -30t-30.5 -12h-286zM317 527q120 0 198.5 -76t78.5 -190t-81 -192.5t-201 -78.5t-198.5 76t-78.5 190t81 192.5t201 78.5zM315 123q57 0 95.5 39t38.5 96t-38.5 96t-95.5 39
q-58 0 -96.5 -39t-38.5 -96t38.5 -96t96.5 -39z" />
    <glyph glyph-name="Obreve" unicode="&#x14e;" horiz-adv-x="825" 
d="M410 752q-67 0 -114 37.5t-49 86.5q-1 22 12.5 35.5t35.5 13.5q28 0 44 -33q17 -55 72 -55t69 53q15 35 45 35q22 0 35.5 -14t12.5 -34q-2 -49 -49 -87t-114 -38zM45 347q0 152 107 257.5t263 105.5t260.5 -102.5t104.5 -254.5t-107 -257.5t-263 -105.5t-260.5 102.5
t-104.5 254.5zM198 350q0 -93 61 -156t153 -63q93 0 154 63t61 156t-61 156t-154 63q-92 0 -153 -63t-61 -156z" />
    <glyph glyph-name="obreve" unicode="&#x14f;" horiz-adv-x="629" 
d="M315 572q-67 0 -114 37.5t-49 86.5q-1 22 12.5 35.5t35.5 13.5q28 0 44 -33q17 -55 72 -55t69 53q15 35 45 35q22 0 35.5 -14t12.5 -34q-2 -49 -49 -87t-114 -38zM35 256q0 114 81 192.5t201 78.5t198.5 -76t78.5 -190t-81 -192.5t-201 -78.5t-198.5 76t-78.5 190z
M180 258q0 -57 38.5 -96t96.5 -39q57 0 95.5 39t38.5 96t-38.5 96t-95.5 39q-58 0 -96.5 -39t-38.5 -96z" />
    <glyph glyph-name="Ohungarumlaut" unicode="&#x150;" horiz-adv-x="825" 
d="M317 747q-22 0 -36.5 15t-14.5 37q0 19 15 39l42 66q21 29 52 29q24 0 40 -16.5t16 -39.5q0 -28 -28 -55l-45 -56q-19 -19 -41 -19zM519 747q-22 0 -36.5 15t-14.5 37q0 19 15 39l41 66q23 29 52 29q24 0 40.5 -16.5t16.5 -39.5q0 -28 -28 -55l-45 -56q-19 -19 -41 -19z
M45 347q0 152 107 257.5t263 105.5t260.5 -102.5t104.5 -254.5t-107 -257.5t-263 -105.5t-260.5 102.5t-104.5 254.5zM198 350q0 -93 61 -156t153 -63q93 0 154 63t61 156t-61 156t-154 63q-92 0 -153 -63t-61 -156z" />
    <glyph glyph-name="ohungarumlaut" unicode="&#x151;" horiz-adv-x="629" 
d="M227 567q-22 0 -36.5 15t-14.5 37q0 19 15 39l42 66q21 29 52 29q24 0 40 -16.5t16 -39.5q0 -28 -28 -55l-45 -56q-19 -19 -41 -19zM429 567q-22 0 -36.5 15t-14.5 37q0 19 15 39l41 66q23 29 52 29q24 0 40.5 -16.5t16.5 -39.5q0 -28 -28 -55l-45 -56q-19 -19 -41 -19z
M35 256q0 114 81 192.5t201 78.5t198.5 -76t78.5 -190t-81 -192.5t-201 -78.5t-198.5 76t-78.5 190zM180 258q0 -57 38.5 -96t96.5 -39q57 0 95.5 39t38.5 96t-38.5 96t-95.5 39q-58 0 -96.5 -39t-38.5 -96z" />
    <glyph glyph-name="OE" unicode="&#x152;" horiz-adv-x="1077" 
d="M430 0q-168 0 -276.5 98.5t-108.5 248.5t111 251.5t279 101.5h526q29 0 47.5 -18.5t18.5 -47.5q0 -30 -18.5 -48.5t-47.5 -18.5h-301v-145h255q28 0 45 -17t17 -45t-17 -45t-45 -17h-255v-165h311q29 0 47.5 -18.5t18.5 -47.5q0 -30 -18.5 -48.5t-47.5 -18.5h-541z
M427 133h80v434h-80q-100 0 -164.5 -61.5t-64.5 -155.5t64.5 -155.5t164.5 -61.5z" />
    <glyph glyph-name="oe" unicode="&#x153;" horiz-adv-x="1015" 
d="M35 256q0 114 81 192.5t201 78.5q64 0 117.5 -28.5t87.5 -77.5q34 49 86.5 77.5t114.5 28.5q106 0 181 -71.5t75 -163.5q0 -28 -16 -45t-44 -17h-326q7 -51 45 -82.5t94 -31.5q58 0 111 41q19 13 40 13q26 0 42.5 -16t16.5 -42q0 -30 -32 -57q-73 -65 -188 -65
q-64 0 -117 28.5t-87 77.5q-34 -49 -88 -77.5t-118 -28.5q-120 0 -198.5 76t-78.5 190zM593 318h247q-7 42 -41 71.5t-78 29.5q-48 0 -83 -28.5t-45 -72.5zM180 258q0 -57 38.5 -96t96.5 -39q57 0 95.5 39t38.5 96t-38.5 96t-95.5 39q-58 0 -96.5 -39t-38.5 -96z" />
    <glyph glyph-name="Racute" unicode="&#x154;" horiz-adv-x="690" 
d="M292 798q0 22 19 43l52 66q24 26 50 26q24 0 40 -17.5t16 -41.5q0 -34 -29 -54l-65 -60q-17 -13 -33 -13q-22 0 -36 14.5t-14 36.5zM156 -5q-33 0 -54.5 21.5t-21.5 55.5v552q0 33 21.5 54.5t54.5 21.5h237q112 0 182 -63t70 -164q0 -73 -39 -127.5t-106 -78.5l109 -146
q21 -29 21 -53q0 -32 -20.5 -52.5t-52.5 -20.5q-37 0 -61 32l-158 214h-105v-169q0 -34 -21.5 -55.5t-55.5 -21.5zM233 359h141q55 0 86.5 29.5t31.5 76.5t-31.5 76.5t-86.5 29.5h-141v-212z" />
    <glyph glyph-name="racute" unicode="&#x155;" horiz-adv-x="414" 
d="M173 618q0 22 19 43l52 66q24 26 50 26q24 0 40 -17.5t16 -41.5q0 -34 -29 -54l-65 -60q-17 -13 -33 -13q-22 0 -36 14.5t-14 36.5zM60 68v390q0 28 18 46t46 18q29 0 47 -18t18 -46l1 -42q48 111 145 111q33 0 54 -21t21 -53q0 -34 -21 -54.5t-54 -20.5q-60 0 -95 -38
t-35 -112v-160q0 -32 -20 -52.5t-52 -20.5t-52.5 20.5t-20.5 52.5z" />
    <glyph glyph-name="Rcommaaccent" unicode="&#x156;" horiz-adv-x="690" 
d="M156 -5q-33 0 -54.5 21.5t-21.5 55.5v552q0 33 21.5 54.5t54.5 21.5h237q112 0 182 -63t70 -164q0 -73 -39 -127.5t-106 -78.5l109 -146q21 -29 21 -53q0 -32 -20.5 -52.5t-52.5 -20.5q-37 0 -61 32l-158 214h-105v-169q0 -34 -21.5 -55.5t-55.5 -21.5zM233 359h141
q55 0 86.5 29.5t31.5 76.5t-31.5 76.5t-86.5 29.5h-141v-212zM234 -180q0 22 19 43l52 66q24 26 50 26q24 0 40 -17.5t16 -41.5q0 -34 -29 -54l-65 -60q-17 -13 -33 -13q-22 0 -36 14.5t-14 36.5z" />
    <glyph glyph-name="rcommaaccent" unicode="&#x157;" horiz-adv-x="414" 
d="M60 68v390q0 28 18 46t46 18q29 0 47 -18t18 -46l1 -42q48 111 145 111q33 0 54 -21t21 -53q0 -34 -21 -54.5t-54 -20.5q-60 0 -95 -38t-35 -112v-160q0 -32 -20 -52.5t-52 -20.5t-52.5 20.5t-20.5 52.5zM8 -180q0 22 19 43l52 66q24 26 50 26q24 0 40 -17.5t16 -41.5
q0 -34 -29 -54l-65 -60q-17 -13 -33 -13q-22 0 -36 14.5t-14 36.5z" />
    <glyph glyph-name="Rcaron" unicode="&#x158;" horiz-adv-x="690" 
d="M174 881q0 22 14.5 37t35.5 15q20 0 37 -14l89 -75l90 76q16 13 34 13q21 0 35.5 -14.5t14.5 -36.5q0 -27 -21 -43l-63 -58q-40 -34 -91 -34t-92 34l-62 57q-21 18 -21 43zM156 -5q-33 0 -54.5 21.5t-21.5 55.5v552q0 33 21.5 54.5t54.5 21.5h237q112 0 182 -63t70 -164
q0 -73 -39 -127.5t-106 -78.5l109 -146q21 -29 21 -53q0 -32 -20.5 -52.5t-52.5 -20.5q-37 0 -61 32l-158 214h-105v-169q0 -34 -21.5 -55.5t-55.5 -21.5zM233 359h141q55 0 86.5 29.5t31.5 76.5t-31.5 76.5t-86.5 29.5h-141v-212z" />
    <glyph glyph-name="rcaron" unicode="&#x159;" horiz-adv-x="414" 
d="M52 701q0 22 14.5 37t35.5 15q20 0 37 -14l89 -75l90 76q16 13 34 13q21 0 35.5 -14.5t14.5 -36.5q0 -26 -21 -43l-63 -58q-40 -34 -91 -34t-92 34l-62 57q-21 18 -21 43zM60 68v390q0 28 18 46t46 18q29 0 47 -18t18 -46l1 -42q48 111 145 111q33 0 54 -21t21 -53
q0 -34 -21 -54.5t-54 -20.5q-60 0 -95 -38t-35 -112v-160q0 -32 -20 -52.5t-52 -20.5t-52.5 20.5t-20.5 52.5z" />
    <glyph glyph-name="Sacute" unicode="&#x15a;" horiz-adv-x="578" 
d="M242 799q0 22 19 43l52 66q24 26 50 26q24 0 40 -17.5t16 -41.5q0 -34 -29 -54l-65 -60q-17 -13 -33 -13q-22 0 -36 14.5t-14 36.5zM25 121q0 29 18 47t48 18q23 0 49 -20q72 -52 148 -52q39 0 63.5 19.5t24.5 49.5q0 35 -33.5 63t-125.5 64q-167 66 -167 201
q0 87 67.5 143t176.5 56q106 0 187 -56q37 -24 37 -60q0 -29 -17.5 -47.5t-44.5 -18.5q-22 0 -48 19q-53 39 -115 39q-40 0 -63 -19t-23 -44q0 -31 26.5 -53.5t99.5 -50.5q200 -78 200 -219q0 -90 -70 -150t-183 -60q-134 0 -226 75q-29 24 -29 56z" />
    <glyph glyph-name="sacute" unicode="&#x15b;" horiz-adv-x="469" 
d="M189 618q0 22 19 43l52 66q24 26 50 26q24 0 40 -17.5t16 -41.5q0 -34 -29 -54l-65 -60q-17 -13 -33 -13q-22 0 -36 14.5t-14 36.5zM20 93q0 24 14.5 39t39.5 15q18 0 35 -10q55 -39 117 -39q31 0 47.5 12.5t16.5 31.5q0 21 -21.5 38t-87.5 38q-143 46 -143 155
q0 64 53 109t146 45q85 0 149 -41q35 -21 35 -52q0 -25 -15 -40t-38 -15q-15 0 -39 13q-43 27 -87 27q-29 0 -44.5 -11.5t-15.5 -27.5q0 -19 19 -34.5t75 -32.5q77 -23 117.5 -64t40.5 -96q0 -72 -55 -117.5t-152 -45.5q-111 0 -176 51q-31 24 -31 52z" />
    <glyph glyph-name="Scircumflex" unicode="&#x15c;" horiz-adv-x="578" 
d="M470 799q0 -22 -14.5 -37t-35.5 -15q-20 0 -37 14l-89 76l-90 -77q-16 -13 -34 -13q-21 0 -35.5 14.5t-14.5 36.5q0 26 21 43l63 58q40 34 91 34t92 -34l62 -57q21 -18 21 -43zM25 121q0 29 18 47t48 18q23 0 49 -20q72 -52 148 -52q39 0 63.5 19.5t24.5 49.5
q0 35 -33.5 63t-125.5 64q-167 66 -167 201q0 87 67.5 143t176.5 56q106 0 187 -56q37 -24 37 -60q0 -29 -17.5 -47.5t-44.5 -18.5q-22 0 -48 19q-53 39 -115 39q-40 0 -63 -19t-23 -44q0 -31 26.5 -53.5t99.5 -50.5q200 -78 200 -219q0 -90 -70 -150t-183 -60
q-134 0 -226 75q-29 24 -29 56z" />
    <glyph glyph-name="scircumflex" unicode="&#x15d;" horiz-adv-x="469" 
d="M419 619q0 -22 -14.5 -37t-35.5 -15q-20 0 -37 14l-89 76l-90 -77q-16 -13 -34 -13q-21 0 -35.5 14.5t-14.5 36.5q0 26 21 43l63 58q40 34 91 34t92 -34l62 -57q21 -18 21 -43zM20 93q0 24 14.5 39t39.5 15q18 0 35 -10q55 -39 117 -39q31 0 47.5 12.5t16.5 31.5
q0 21 -21.5 38t-87.5 38q-143 46 -143 155q0 64 53 109t146 45q85 0 149 -41q35 -21 35 -52q0 -25 -15 -40t-38 -15q-15 0 -39 13q-43 27 -87 27q-29 0 -44.5 -11.5t-15.5 -27.5q0 -19 19 -34.5t75 -32.5q77 -23 117.5 -64t40.5 -96q0 -72 -55 -117.5t-152 -45.5
q-111 0 -176 51q-31 24 -31 52z" />
    <glyph glyph-name="Scedilla" unicode="&#x15e;" horiz-adv-x="578" 
d="M533 200q0 -77 -53.5 -134t-142.5 -71q13 -24 13 -55q0 -62 -46 -98.5t-110 -36.5q-42 0 -76 15q-35 15 -35 46q0 20 12.5 32t31.5 12q7 0 24.5 -5t31.5 -5q29 0 46 14.5t17 39.5q0 21 -16 39q-102 11 -176 72q-29 24 -29 56q0 29 18 47t48 18q23 0 49 -20
q72 -52 148 -52q39 0 63.5 19.5t24.5 49.5q0 35 -33.5 63t-125.5 64q-167 66 -167 201q0 87 67.5 143t176.5 56q106 0 187 -56q37 -24 37 -60q0 -29 -17.5 -47.5t-44.5 -18.5q-22 0 -48 19q-53 39 -115 39q-40 0 -63 -19t-23 -44q0 -31 26.5 -53.5t99.5 -50.5
q200 -78 200 -219z" />
    <glyph glyph-name="scedilla" unicode="&#x15f;" horiz-adv-x="469" 
d="M434 153q0 -61 -39.5 -103.5t-111.5 -54.5q13 -24 13 -55q0 -62 -46 -98.5t-110 -36.5q-42 0 -76 15q-35 15 -35 46q0 20 12.5 32t31.5 12q7 0 24.5 -5t31.5 -5q29 0 46 14.5t17 39.5q0 21 -17 40q-76 10 -124 47q-31 24 -31 52q0 24 14.5 39t39.5 15q18 0 35 -10
q55 -39 117 -39q31 0 47.5 12.5t16.5 31.5q0 21 -21.5 38t-87.5 38q-143 46 -143 155q0 64 53 109t146 45q85 0 149 -41q35 -21 35 -52q0 -25 -15 -40t-38 -15q-15 0 -39 13q-43 27 -87 27q-29 0 -44.5 -11.5t-15.5 -27.5q0 -19 19 -34.5t75 -32.5q77 -23 117.5 -64
t40.5 -96z" />
    <glyph glyph-name="Scaron" unicode="&#x160;" horiz-adv-x="578" 
d="M119 881q0 22 14.5 37t35.5 15q20 0 37 -14l89 -75l90 76q16 13 34 13q21 0 35.5 -14.5t14.5 -36.5q0 -27 -21 -43l-63 -58q-40 -34 -91 -34t-92 34l-62 57q-21 18 -21 43zM25 121q0 29 18 47t48 18q23 0 49 -20q72 -52 148 -52q39 0 63.5 19.5t24.5 49.5q0 35 -33.5 63
t-125.5 64q-167 66 -167 201q0 87 67.5 143t176.5 56q106 0 187 -56q37 -24 37 -60q0 -29 -17.5 -47.5t-44.5 -18.5q-22 0 -48 19q-53 39 -115 39q-40 0 -63 -19t-23 -44q0 -31 26.5 -53.5t99.5 -50.5q200 -78 200 -219q0 -90 -70 -150t-183 -60q-134 0 -226 75
q-29 24 -29 56z" />
    <glyph glyph-name="scaron" unicode="&#x161;" horiz-adv-x="469" 
d="M64 701q0 22 14.5 37t35.5 15q20 0 37 -14l89 -75l90 76q16 13 34 13q21 0 35.5 -14.5t14.5 -36.5q0 -26 -21 -43l-63 -58q-40 -34 -91 -34t-92 34l-62 57q-21 18 -21 43zM20 93q0 24 14.5 39t39.5 15q18 0 35 -10q55 -39 117 -39q31 0 47.5 12.5t16.5 31.5
q0 21 -21.5 38t-87.5 38q-143 46 -143 155q0 64 53 109t146 45q85 0 149 -41q35 -21 35 -52q0 -25 -15 -40t-38 -15q-15 0 -39 13q-43 27 -87 27q-29 0 -44.5 -11.5t-15.5 -27.5q0 -19 19 -34.5t75 -32.5q77 -23 117.5 -64t40.5 -96q0 -72 -55 -117.5t-152 -45.5
q-111 0 -176 51q-31 24 -31 52z" />
    <glyph glyph-name="uni0162" unicode="&#x162;" horiz-adv-x="588" 
d="M513 700q29 0 47.5 -18.5t18.5 -47.5q0 -30 -18.5 -48.5t-47.5 -18.5h-143v-495q0 -34 -21.5 -55.5t-54.5 -21.5q-34 0 -55.5 21.5t-21.5 55.5v495h-141q-30 0 -48.5 18.5t-18.5 48.5q0 29 18.5 47.5t48.5 18.5h437zM287 -45q24 0 40 -17.5t16 -41.5q0 -34 -29 -54
l-65 -60q-17 -13 -33 -13q-22 0 -36 14.5t-14 36.5t19 43l52 66q24 26 50 26z" />
    <glyph glyph-name="uni0163" unicode="&#x163;" horiz-adv-x="450" 
d="M15 458q0 26 16 42.5t43 16.5h41v56q0 32 20.5 52t52.5 20t52 -20t20 -52v-56h107q26 0 42 -16.5t16 -42.5t-16 -42.5t-42 -16.5h-107v-208q0 -68 61 -68q12 0 25 2t15 2q29 0 46 -16t17 -44q0 -47 -50 -65q-42 -12 -90 -12q-78 0 -123.5 43t-45.5 121v245h-41
q-27 0 -43 16.5t-16 42.5zM141 -180q0 22 19 43l52 66q24 26 50 26q24 0 40 -17.5t16 -41.5q0 -34 -29 -54l-65 -60q-17 -13 -33 -13q-22 0 -36 14.5t-14 36.5z" />
    <glyph glyph-name="Tcaron" unicode="&#x164;" horiz-adv-x="588" 
d="M140 838q-21 18 -21 43q0 22 14.5 37t35.5 15q20 0 37 -14l89 -75l90 76q16 13 34 13q21 0 35.5 -14.5t14.5 -36.5q0 -27 -21 -43l-63 -58q-40 -34 -91 -34t-92 34zM513 700q29 0 47.5 -18.5t18.5 -47.5q0 -30 -18.5 -48.5t-47.5 -18.5h-143v-495q0 -34 -21.5 -55.5
t-54.5 -21.5q-34 0 -55.5 21.5t-21.5 55.5v495h-141q-30 0 -48.5 18.5t-18.5 48.5q0 29 18.5 47.5t48.5 18.5h437z" />
    <glyph glyph-name="tcaron" unicode="&#x165;" horiz-adv-x="450" 
d="M373 565q-27 0 -42 18.5t-12 44.5l17 104q7 63 64 63q28 0 46 -18t18 -46q0 -11 -7 -34l-28 -89q-14 -43 -56 -43zM15 458q0 26 16 42.5t43 16.5h41v56q0 32 20.5 52t52.5 20t52 -20t20 -52v-56h107q26 0 42 -16.5t16 -42.5t-16 -42.5t-42 -16.5h-107v-208q0 -68 61 -68
q12 0 25 2t15 2q29 0 46 -16t17 -44q0 -47 -50 -65q-42 -12 -90 -12q-78 0 -123.5 43t-45.5 121v245h-41q-27 0 -43 16.5t-16 42.5z" />
    <glyph glyph-name="Tbar" unicode="&#x166;" horiz-adv-x="588" 
d="M513 567h-143v-177h145q19 0 30 -11.5t11 -30.5t-11 -30.5t-30 -11.5h-145v-234q0 -34 -21.5 -55.5t-54.5 -21.5q-34 0 -55.5 21.5t-21.5 55.5v234h-144q-19 0 -30.5 11.5t-11.5 30.5t11.5 30.5t30.5 11.5h144v177h-141q-30 0 -48.5 18.5t-18.5 48.5q0 29 18.5 47.5
t48.5 18.5h437q29 0 47.5 -18.5t18.5 -47.5q0 -30 -18.5 -48.5t-47.5 -18.5z" />
    <glyph glyph-name="tbar" unicode="&#x167;" horiz-adv-x="450" 
d="M383 226h-123v-35q0 -68 61 -68q12 0 25 2t15 2q29 0 46 -16t17 -44q0 -47 -50 -65q-42 -12 -90 -12q-78 0 -123.5 43t-45.5 121v72h-58q-18 0 -30 11.5t-12 30.5q0 18 12 29.5t30 11.5h58v90h-41q-27 0 -43 16.5t-16 42.5t16 42.5t43 16.5h41v56q0 32 20.5 52t52.5 20
t52 -20t20 -52v-56h107q26 0 42 -16.5t16 -42.5t-16 -42.5t-42 -16.5h-107v-90h123q19 0 30.5 -11.5t11.5 -29.5q0 -19 -11.5 -30.5t-30.5 -11.5z" />
    <glyph glyph-name="Utilde" unicode="&#x168;" horiz-adv-x="740" 
d="M231 758q-17 0 -27.5 11.5t-10.5 28.5q0 6 2 20q7 35 32.5 66t69.5 31q33 0 59 -18t45 -36t37 -18q23 0 33 38q8 31 37 31q17 0 27.5 -11.5t10.5 -28.5q0 -6 -2 -20q-7 -35 -32.5 -66t-69.5 -31q-33 0 -58.5 18t-45 36t-37.5 18q-23 0 -33 -38q-8 -31 -37 -31zM595 704
q33 0 54 -21.5t21 -53.5v-339q0 -135 -84 -217.5t-219 -82.5q-134 0 -215.5 80.5t-81.5 214.5v344q0 34 21.5 55.5t55.5 21.5t56 -21.5t22 -55.5v-338q0 -73 41 -116.5t107 -43.5t106.5 43.5t40.5 116.5v338q0 32 21.5 53.5t53.5 21.5z" />
    <glyph glyph-name="utilde" unicode="&#x169;" horiz-adv-x="614" 
d="M167 578q-17 0 -27.5 11.5t-10.5 28.5q0 6 2 20q7 35 32.5 66t69.5 31q33 0 59 -18t45 -36t37 -18q23 0 33 38q8 31 37 31q17 0 27.5 -11.5t10.5 -28.5q0 -6 -2 -20q-7 -35 -32.5 -66t-69.5 -31q-33 0 -58.5 18t-45 36t-37.5 18q-23 0 -33 -38q-8 -31 -37 -31zM481 522
q32 0 52.5 -20.5t20.5 -52.5v-386q0 -29 -19 -48.5t-49 -19.5q-29 0 -48 19.5t-19 48.5v18q-27 -44 -72.5 -67.5t-98.5 -23.5q-85 0 -139.5 56.5t-54.5 155.5v247q0 32 20.5 52.5t52.5 20.5t52 -20.5t20 -52.5v-200q0 -62 28 -93.5t73 -31.5q48 0 78.5 32.5t30.5 97.5v195
q0 32 20 52.5t52 20.5z" />
    <glyph glyph-name="Umacron" unicode="&#x16a;" horiz-adv-x="740" 
d="M227 793q-19 0 -30.5 12t-11.5 30t11.5 30t30.5 12h286q19 0 30.5 -12t11.5 -30t-11.5 -30t-30.5 -12h-286zM595 704q33 0 54 -21.5t21 -53.5v-339q0 -135 -84 -217.5t-219 -82.5q-134 0 -215.5 80.5t-81.5 214.5v344q0 34 21.5 55.5t55.5 21.5t56 -21.5t22 -55.5v-338
q0 -73 41 -116.5t107 -43.5t106.5 43.5t40.5 116.5v338q0 32 21.5 53.5t53.5 21.5z" />
    <glyph glyph-name="umacron" unicode="&#x16b;" horiz-adv-x="614" 
d="M162 613q-19 0 -30.5 12t-11.5 30t11.5 30t30.5 12h286q19 0 30.5 -12t11.5 -30t-11.5 -30t-30.5 -12h-286zM481 522q32 0 52.5 -20.5t20.5 -52.5v-386q0 -29 -19 -48.5t-49 -19.5q-29 0 -48 19.5t-19 48.5v18q-27 -44 -72.5 -67.5t-98.5 -23.5q-85 0 -139.5 56.5
t-54.5 155.5v247q0 32 20.5 52.5t52.5 20.5t52 -20.5t20 -52.5v-200q0 -62 28 -93.5t73 -31.5q48 0 78.5 32.5t30.5 97.5v195q0 32 20 52.5t52 20.5z" />
    <glyph glyph-name="Ubreve" unicode="&#x16c;" horiz-adv-x="740" 
d="M370 752q-67 0 -114 37.5t-49 86.5q-1 22 12.5 35.5t35.5 13.5q28 0 44 -33q17 -55 72 -55t69 53q15 35 45 35q22 0 35.5 -14t12.5 -34q-2 -49 -49 -87t-114 -38zM595 704q33 0 54 -21.5t21 -53.5v-339q0 -135 -84 -217.5t-219 -82.5q-134 0 -215.5 80.5t-81.5 214.5v344
q0 34 21.5 55.5t55.5 21.5t56 -21.5t22 -55.5v-338q0 -73 41 -116.5t107 -43.5t106.5 43.5t40.5 116.5v338q0 32 21.5 53.5t53.5 21.5z" />
    <glyph glyph-name="ubreve" unicode="&#x16d;" horiz-adv-x="614" 
d="M305 572q-67 0 -114 37.5t-49 86.5q-1 22 12.5 35.5t35.5 13.5q28 0 44 -33q17 -55 72 -55t69 53q15 35 45 35q22 0 35.5 -14t12.5 -34q-2 -49 -49 -87t-114 -38zM481 522q32 0 52.5 -20.5t20.5 -52.5v-386q0 -29 -19 -48.5t-49 -19.5q-29 0 -48 19.5t-19 48.5v18
q-27 -44 -72.5 -67.5t-98.5 -23.5q-85 0 -139.5 56.5t-54.5 155.5v247q0 32 20.5 52.5t52.5 20.5t52 -20.5t20 -52.5v-200q0 -62 28 -93.5t73 -31.5q48 0 78.5 32.5t30.5 97.5v195q0 32 20 52.5t52 20.5z" />
    <glyph glyph-name="Uring" unicode="&#x16e;" horiz-adv-x="740" 
d="M370 742q-47 0 -78 29.5t-31 74.5t31 74.5t78 29.5t78 -29.5t31 -74.5t-31 -74.5t-78 -29.5zM370 894q-21 0 -35 -14t-14 -34t14 -34.5t35 -14.5t34.5 14t13.5 35q0 20 -13.5 34t-34.5 14zM595 704q33 0 54 -21.5t21 -53.5v-339q0 -135 -84 -217.5t-219 -82.5
q-134 0 -215.5 80.5t-81.5 214.5v344q0 34 21.5 55.5t55.5 21.5t56 -21.5t22 -55.5v-338q0 -73 41 -116.5t107 -43.5t106.5 43.5t40.5 116.5v338q0 32 21.5 53.5t53.5 21.5z" />
    <glyph glyph-name="uring" unicode="&#x16f;" horiz-adv-x="614" 
d="M305 562q-47 0 -78 29.5t-31 74.5t31 74.5t78 29.5t78 -29.5t31 -74.5t-31 -74.5t-78 -29.5zM305 714q-21 0 -35 -14t-14 -34t14 -34.5t35 -14.5t34.5 14t13.5 35q0 20 -13.5 34t-34.5 14zM481 522q32 0 52.5 -20.5t20.5 -52.5v-386q0 -29 -19 -48.5t-49 -19.5
q-29 0 -48 19.5t-19 48.5v18q-27 -44 -72.5 -67.5t-98.5 -23.5q-85 0 -139.5 56.5t-54.5 155.5v247q0 32 20.5 52.5t52.5 20.5t52 -20.5t20 -52.5v-200q0 -62 28 -93.5t73 -31.5q48 0 78.5 32.5t30.5 97.5v195q0 32 20 52.5t52 20.5z" />
    <glyph glyph-name="Uhungarumlaut" unicode="&#x170;" horiz-adv-x="740" 
d="M272 747q-22 0 -36.5 15t-14.5 37q0 19 15 39l42 66q21 29 52 29q24 0 40 -16.5t16 -39.5q0 -28 -28 -55l-45 -56q-19 -19 -41 -19zM474 747q-22 0 -36.5 15t-14.5 37q0 19 15 39l41 66q23 29 52 29q24 0 40.5 -16.5t16.5 -39.5q0 -28 -28 -55l-45 -56q-19 -19 -41 -19z
M595 704q33 0 54 -21.5t21 -53.5v-339q0 -135 -84 -217.5t-219 -82.5q-134 0 -215.5 80.5t-81.5 214.5v344q0 34 21.5 55.5t55.5 21.5t56 -21.5t22 -55.5v-338q0 -73 41 -116.5t107 -43.5t106.5 43.5t40.5 116.5v338q0 32 21.5 53.5t53.5 21.5z" />
    <glyph glyph-name="uhungarumlaut" unicode="&#x171;" horiz-adv-x="614" 
d="M202 567q-22 0 -36.5 15t-14.5 37q0 19 15 39l42 66q21 29 52 29q24 0 40 -16.5t16 -39.5q0 -28 -28 -55l-45 -56q-19 -19 -41 -19zM404 567q-22 0 -36.5 15t-14.5 37q0 19 15 39l41 66q23 29 52 29q24 0 40.5 -16.5t16.5 -39.5q0 -28 -28 -55l-45 -56q-19 -19 -41 -19z
M481 522q32 0 52.5 -20.5t20.5 -52.5v-386q0 -29 -19 -48.5t-49 -19.5q-29 0 -48 19.5t-19 48.5v18q-27 -44 -72.5 -67.5t-98.5 -23.5q-85 0 -139.5 56.5t-54.5 155.5v247q0 32 20.5 52.5t52.5 20.5t52 -20.5t20 -52.5v-200q0 -62 28 -93.5t73 -31.5q48 0 78.5 32.5
t30.5 97.5v195q0 32 20 52.5t52 20.5z" />
    <glyph glyph-name="Uogonek" unicode="&#x172;" horiz-adv-x="740" 
d="M595 704q33 0 54 -21.5t21 -53.5v-339q0 -113 -60.5 -190.5t-162.5 -100.5q-18 -14 -18 -40q0 -21 17 -35t43 -14q8 0 17.5 2t12.5 2q19 0 32 -13t13 -33q0 -31 -34 -44q-21 -9 -55 -9q-60 0 -101 35.5t-41 93.5q0 24 10 47q-124 8 -198.5 87t-74.5 207v344
q0 34 21.5 55.5t55.5 21.5t56 -21.5t22 -55.5v-338q0 -73 41 -116.5t107 -43.5t106.5 43.5t40.5 116.5v338q0 32 21.5 53.5t53.5 21.5z" />
    <glyph glyph-name="uogonek" unicode="&#x173;" horiz-adv-x="614" 
d="M567 -86q19 0 32 -13t13 -33q0 -31 -34 -44q-21 -9 -55 -9q-60 0 -101 35.5t-41 93.5q0 54 43 91q-5 13 -5 28v18q-27 -44 -72.5 -67.5t-98.5 -23.5q-85 0 -139.5 56.5t-54.5 155.5v247q0 32 20.5 52.5t52.5 20.5t52 -20.5t20 -52.5v-200q0 -62 28 -93.5t73 -31.5
q48 0 78.5 32.5t30.5 97.5v195q0 32 20 52.5t52 20.5t52.5 -20.5t20.5 -52.5v-386q0 -28 -17.5 -47t-45.5 -21q-14 -14 -14 -36q0 -21 17 -35t43 -14q9 0 18 2t12 2z" />
    <glyph glyph-name="Wcircumflex" unicode="&#x174;" horiz-adv-x="973" 
d="M664 799q0 -22 -14.5 -37t-35.5 -15q-20 0 -37 14l-89 76l-90 -77q-16 -13 -34 -13q-21 0 -35.5 14.5t-14.5 36.5q0 26 21 43l63 58q40 34 91 34t92 -34l62 -57q21 -18 21 -43zM12 626q0 34 22 56.5t57 22.5q27 0 47.5 -15.5t28.5 -41.5l131 -415l123 416q7 26 25 41
t43 15t43.5 -14.5t25.5 -39.5l123 -418l132 418q8 25 27.5 39.5t45.5 14.5q32 0 53 -21t21 -54q0 -18 -6 -32l-183 -540q-9 -28 -32 -45.5t-53 -17.5t-53.5 18t-32.5 48l-115 381l-113 -378q-10 -32 -33 -50.5t-54 -18.5q-30 0 -53 17.5t-32 46.5l-182 535q-6 18 -6 32z" />
    <glyph glyph-name="wcircumflex" unicode="&#x175;" horiz-adv-x="776" 
d="M576 619q0 -22 -14.5 -37t-35.5 -15q-20 0 -37 14l-89 76l-90 -77q-16 -13 -34 -13q-21 0 -35.5 14.5t-14.5 36.5q0 26 21 43l63 58q40 34 91 34t92 -34l62 -57q21 -18 21 -43zM12 449q0 32 20.5 52.5t52.5 20.5q26 0 45 -14t26 -39l85 -273l82 272q16 54 69 54
q25 0 43 -14.5t25 -39.5l81 -268l85 269q8 24 26.5 38.5t42.5 14.5q31 0 50.5 -19.5t19.5 -50.5q0 -14 -6 -31l-124 -361q-22 -65 -87 -65q-67 0 -87 66l-74 235l-73 -236q-9 -31 -32 -48t-55 -17q-65 0 -87 65l-123 360q-5 15 -5 29z" />
    <glyph glyph-name="Ycircumflex" unicode="&#x176;" horiz-adv-x="624" 
d="M489 799q0 -22 -14.5 -37t-35.5 -15q-20 0 -37 14l-89 76l-90 -77q-16 -13 -34 -13q-21 0 -35.5 14.5t-14.5 36.5q0 26 21 43l63 58q40 34 91 34t92 -34l62 -57q21 -18 21 -43zM12 631q0 32 21 53t54 21q43 0 67 -39l161 -261l161 262q21 38 65 38q31 0 50.5 -19.5
t19.5 -51.5q0 -23 -13 -44l-211 -330v-188q0 -34 -21.5 -55.5t-54.5 -21.5q-34 0 -55.5 21.5t-21.5 55.5v188l-209 326q-13 21 -13 45z" />
    <glyph glyph-name="ycircumflex" unicode="&#x177;" horiz-adv-x="529" 
d="M441 619q0 -22 -14.5 -37t-35.5 -15q-20 0 -37 14l-89 76l-90 -77q-16 -13 -34 -13q-21 0 -35.5 14.5t-14.5 36.5q0 26 21 43l63 58q40 34 91 34t92 -34l62 -57q21 -18 21 -43zM2 -94q0 27 17 44t44 17q9 0 26.5 -3.5t28.5 -3.5q51 0 72 48l-168 400q-10 28 -10 40
q0 33 21 53.5t55 20.5q49 0 71 -60l108 -291l109 296q20 55 70 55q31 0 51 -20t20 -49q0 -17 -9 -37l-178 -421q-36 -84 -85.5 -124.5t-123.5 -40.5q-39 0 -75 16q-44 18 -44 60z" />
    <glyph glyph-name="Ydieresis" unicode="&#x178;" horiz-adv-x="624" 
d="M203 762q-33 0 -54 21.5t-21 54.5t22 55t55 22t54 -21.5t21 -53.5q0 -33 -22 -55.5t-55 -22.5zM423 762q-33 0 -54 21.5t-21 54.5t22 55t55 22t54.5 -21.5t21.5 -53.5q0 -33 -22.5 -55.5t-55.5 -22.5zM12 631q0 32 21 53t54 21q43 0 67 -39l161 -261l161 262q21 38 65 38
q31 0 50.5 -19.5t19.5 -51.5q0 -23 -13 -44l-211 -330v-188q0 -34 -21.5 -55.5t-54.5 -21.5q-34 0 -55.5 21.5t-21.5 55.5v188l-209 326q-13 21 -13 45z" />
    <glyph glyph-name="Zacute" unicode="&#x179;" horiz-adv-x="655" 
d="M296 798q0 22 19 43l52 66q24 26 50 26q24 0 40 -17.5t16 -41.5q0 -34 -29 -54l-65 -60q-17 -13 -33 -13q-22 0 -36 14.5t-14 36.5zM29 75q0 31 23 58l356 438h-295q-29 0 -46.5 18t-17.5 47q0 28 18 46t46 18h429q34 0 55.5 -21t21.5 -55q0 -31 -21 -55l-359 -440h316
q28 0 46 -18t18 -46t-18 -46.5t-46 -18.5h-450q-34 0 -55 21t-21 54z" />
    <glyph glyph-name="zacute" unicode="&#x17a;" horiz-adv-x="529" 
d="M229 618q0 22 19 43l52 66q24 26 50 26q24 0 40 -17.5t16 -41.5q0 -34 -29 -54l-65 -60q-17 -13 -33 -13q-22 0 -36 14.5t-14 36.5zM30 69q0 30 23 55l239 270h-186q-27 0 -44 17.5t-17 44.5q0 26 17 43.5t44 17.5h318q31 0 51 -19.5t20 -49.5q0 -32 -25 -57l-237 -269
h201q27 0 44 -17t17 -44t-17 -44t-44 -17h-334q-31 0 -50.5 19t-19.5 50z" />
    <glyph glyph-name="Zdotaccent" unicode="&#x17b;" horiz-adv-x="655" 
d="M276 838q0 33 22.5 55t55.5 22q32 0 53.5 -21.5t21.5 -53.5q0 -33 -22 -55.5t-55 -22.5t-54.5 21.5t-21.5 54.5zM29 75q0 31 23 58l356 438h-295q-29 0 -46.5 18t-17.5 47q0 28 18 46t46 18h429q34 0 55.5 -21t21.5 -55q0 -31 -21 -55l-359 -440h316q28 0 46 -18t18 -46
t-18 -46.5t-46 -18.5h-450q-34 0 -55 21t-21 54z" />
    <glyph glyph-name="zdotaccent" unicode="&#x17c;" horiz-adv-x="529" 
d="M203 658q0 33 22.5 55t55.5 22q32 0 53.5 -21.5t21.5 -53.5q0 -33 -22 -55.5t-55 -22.5t-54.5 21.5t-21.5 54.5zM30 69q0 30 23 55l239 270h-186q-27 0 -44 17.5t-17 44.5q0 26 17 43.5t44 17.5h318q31 0 51 -19.5t20 -49.5q0 -32 -25 -57l-237 -269h201q27 0 44 -17
t17 -44t-17 -44t-44 -17h-334q-31 0 -50.5 19t-19.5 50z" />
    <glyph glyph-name="Zcaron" unicode="&#x17d;" horiz-adv-x="655" 
d="M171 881q0 22 14.5 37t35.5 15q20 0 37 -14l89 -75l90 76q16 13 34 13q21 0 35.5 -14.5t14.5 -36.5q0 -27 -21 -43l-63 -58q-40 -34 -91 -34t-92 34l-62 57q-21 18 -21 43zM29 75q0 31 23 58l356 438h-295q-29 0 -46.5 18t-17.5 47q0 28 18 46t46 18h429q34 0 55.5 -21
t21.5 -55q0 -31 -21 -55l-359 -440h316q28 0 46 -18t18 -46t-18 -46.5t-46 -18.5h-450q-34 0 -55 21t-21 54z" />
    <glyph glyph-name="zcaron" unicode="&#x17e;" horiz-adv-x="529" 
d="M99 701q0 22 14.5 37t35.5 15q20 0 37 -14l89 -75l90 76q16 13 34 13q21 0 35.5 -14.5t14.5 -36.5q0 -26 -21 -43l-63 -58q-40 -34 -91 -34t-92 34l-62 57q-21 18 -21 43zM30 69q0 30 23 55l239 270h-186q-27 0 -44 17.5t-17 44.5q0 26 17 43.5t44 17.5h318
q31 0 51 -19.5t20 -49.5q0 -32 -25 -57l-237 -269h201q27 0 44 -17t17 -44t-17 -44t-44 -17h-334q-31 0 -50.5 19t-19.5 50z" />
    <glyph glyph-name="florin" unicode="&#x192;" 
d="M30 331q0 19 12.5 31t31.5 12h88l9 116q9 105 68.5 162.5t156.5 57.5q107 0 172 -83q18 -23 18 -47q0 -28 -17.5 -45t-45.5 -17q-22 0 -51 25q-34 34 -71 34t-59 -23t-25 -63l-10 -117h145q19 0 31 -12t12 -31t-12 -31.5t-31 -12.5h-151l-31 -384q-2 -30 -21.5 -49
t-50.5 -19q-32 0 -52.5 20.5t-20.5 51.5q0 4 7 88.5l14.5 178.5t8.5 113h-81q-20 0 -32 12.5t-12 31.5z" />
    <glyph glyph-name="Aringacute" unicode="&#x1fa;" horiz-adv-x="692" 
d="M668 118q11 -27 11 -46q0 -34 -21 -55.5t-55 -21.5q-55 0 -76 58l-38 94h-293l-37 -93q-22 -59 -73 -59q-32 0 -53 20.5t-21 51.5q0 16 11 43l219 517q12 29 30 47q-33 30 -33 77q0 38 22 65.5t58 35.5l53 63q22 25 50 25q24 0 40 -17t16 -42q0 -32 -30 -54l-13 -12
q21 -27 21 -64q0 -46 -33 -76q18 -18 30 -48zM347 800q-21 0 -35 -14.5t-14 -34.5t14 -34.5t35 -14.5t35 14t14 35t-14 35t-35 14zM241 268h203l-101 260z" />
    <glyph glyph-name="aringacute" unicode="&#x1fb;" horiz-adv-x="571" 
d="M380 511q66 -23 102 -79.5t36 -138.5v-232q0 -29 -18.5 -47.5t-47.5 -18.5q-50 0 -62 46q-58 -51 -154 -51q-91 0 -145 44t-54 113q0 70 56 116t147 46q79 0 132 -37v22q0 53 -32.5 82t-84.5 29q-47 0 -91 -24q-16 -8 -34 -8q-25 0 -40.5 15.5t-15.5 39.5q0 34 34 54
q39 26 95 37q-17 26 -17 59q0 38 22 65.5t58 35.5l53 62q21 25 50 25q24 0 40 -17t16 -41q0 -33 -29 -54l-14 -13q21 -25 21 -63q0 -39 -23 -67zM295 626q-22 0 -36 -14t-14 -34t14.5 -34.5t35.5 -14.5t34.5 14t13.5 35q0 20 -13.5 34t-34.5 14zM278 82q45 0 72 20.5
t27 50.5t-27 50.5t-72 20.5q-42 0 -68.5 -20.5t-26.5 -50.5t26.5 -50.5t68.5 -20.5z" />
    <glyph glyph-name="AEacute" unicode="&#x1fc;" horiz-adv-x="1036" 
d="M623 798q0 22 19 43l52 66q24 26 50 26q24 0 40 -17.5t16 -41.5q0 -34 -29 -54l-65 -60q-17 -13 -33 -13q-22 0 -36 14.5t-14 36.5zM12 66q0 22 15 47l319 520q39 67 111 67h463q29 0 47.5 -18.5t18.5 -47.5q0 -30 -18.5 -48.5t-47.5 -18.5h-301v-145h255q28 0 45 -17
t17 -45t-17 -45t-45 -17h-255v-165h311q29 0 47.5 -18.5t18.5 -47.5q0 -30 -18.5 -48.5t-47.5 -18.5h-388q-33 0 -54.5 21.5t-21.5 55.5v70h-248l-68 -110q-23 -42 -66 -42q-32 0 -52 20t-20 51zM285 268h181v305z" />
    <glyph glyph-name="aeacute" unicode="&#x1fd;" horiz-adv-x="939" 
d="M424 618q0 22 19 43l52 66q24 26 50 26q24 0 40 -17.5t16 -41.5q0 -34 -29 -54l-65 -60q-17 -13 -33 -13q-22 0 -36 14.5t-14 36.5zM254 -10q-101 0 -159 43.5t-58 113.5t56 116t147 46q79 0 132 -37v22q0 53 -32.5 82t-84.5 29q-54 0 -93 -24q-16 -8 -32 -8
q-25 0 -40.5 15.5t-15.5 39.5q0 34 34 54q68 45 176 45q120 0 175 -92q75 92 192 92q105 0 180.5 -71.5t75.5 -163.5q0 -28 -16.5 -45t-44.5 -17h-325q7 -51 45 -82.5t93 -31.5q58 0 111 41q20 13 40 13q26 0 43 -16t17 -42q0 -31 -33 -57q-70 -65 -188 -65q-123 0 -197 93
q-54 -93 -198 -93zM520 318h248q-8 43 -42 72t-78 29q-48 0 -83 -28t-45 -73zM278 82q45 0 72 20.5t27 50.5t-27 50.5t-72 20.5q-42 0 -68.5 -20.5t-26.5 -50.5t26.5 -50.5t68.5 -20.5z" />
    <glyph glyph-name="Oslashacute" unicode="&#x1fe;" horiz-adv-x="825" 
d="M362 798q0 22 19 43l52 66q24 26 50 26q24 0 40 -17.5t16 -41.5q0 -34 -29 -54l-65 -60q-17 -13 -33 -13q-22 0 -36 14.5t-14 36.5zM45 347q0 152 107 257.5t263 105.5q114 0 203 -58l57 64q15 19 34 19q17 0 27.5 -11t10.5 -28q0 -14 -15 -31l-53 -62q101 -103 101 -250
q0 -152 -107 -257.5t-263 -105.5q-115 0 -204 58l-57 -65q-15 -18 -33 -18q-17 0 -27.5 11t-10.5 28q0 14 13 30l54 63q-100 102 -100 250zM194 350q0 -82 47 -140l285 331q-53 32 -114 32q-94 0 -156 -64t-62 -159zM299 159q53 -32 113 -32q94 0 156.5 64t62.5 159
q0 78 -47 140z" />
    <glyph glyph-name="oslashacute" unicode="&#x1ff;" horiz-adv-x="629" 
d="M257 618q0 22 19 43l52 66q24 26 50 26q24 0 40 -17.5t16 -41.5q0 -34 -29 -54l-65 -60q-17 -13 -33 -13q-22 0 -36 14.5t-14 36.5zM103 -35q-16 0 -26 10.5t-10 26.5q0 14 12 29l32 37q-76 74 -76 188t81 192.5t201 78.5q76 0 141 -36l37 43q13 18 32 18
q15 0 25.5 -10.5t10.5 -26.5q0 -15 -12 -28l-33 -39q76 -74 76 -187q0 -114 -81 -192.5t-201 -78.5q-78 0 -141 36l-35 -41q-16 -20 -33 -20zM195 173l181 216q-28 15 -61 15q-63 0 -104.5 -42t-41.5 -104q0 -48 26 -85zM315 112q62 0 103.5 42t41.5 104q0 47 -26 84
l-181 -214q27 -16 62 -16z" />
    <glyph glyph-name="Scommaaccent" unicode="&#x218;" horiz-adv-x="578" 
d="M25 121q0 29 18 47t48 18q23 0 49 -20q72 -52 148 -52q39 0 63.5 19.5t24.5 49.5q0 35 -33.5 63t-125.5 64q-167 66 -167 201q0 87 67.5 143t176.5 56q106 0 187 -56q37 -24 37 -60q0 -29 -17.5 -47.5t-44.5 -18.5q-22 0 -48 19q-53 39 -115 39q-40 0 -63 -19t-23 -44
q0 -31 26.5 -53.5t99.5 -50.5q200 -78 200 -219q0 -90 -70 -150t-183 -60q-134 0 -226 75q-29 24 -29 56zM146 -180q0 22 19 43l52 66q24 26 50 26q24 0 40 -17.5t16 -41.5q0 -34 -29 -54l-65 -60q-17 -13 -33 -13q-22 0 -36 14.5t-14 36.5z" />
    <glyph glyph-name="scommaaccent" unicode="&#x219;" horiz-adv-x="469" 
d="M20 93q0 24 14.5 39t39.5 15q18 0 35 -10q55 -39 117 -39q31 0 47.5 12.5t16.5 31.5q0 21 -21.5 38t-87.5 38q-143 46 -143 155q0 64 53 109t146 45q85 0 149 -41q35 -21 35 -52q0 -25 -15 -40t-38 -15q-15 0 -39 13q-43 27 -87 27q-29 0 -44.5 -11.5t-15.5 -27.5
q0 -19 19 -34.5t75 -32.5q77 -23 117.5 -64t40.5 -96q0 -72 -55 -117.5t-152 -45.5q-111 0 -176 51q-31 24 -31 52zM88 -180q0 22 19 43l52 66q24 26 50 26q24 0 40 -17.5t16 -41.5q0 -34 -29 -54l-65 -60q-17 -13 -33 -13q-22 0 -36 14.5t-14 36.5z" />
    <glyph glyph-name="circumflex" unicode="&#x2c6;" horiz-adv-x="530" 
d="M440 619q0 -22 -14.5 -37t-35.5 -15q-20 0 -37 14l-89 76l-90 -77q-16 -13 -34 -13q-21 0 -35.5 14.5t-14.5 36.5q0 26 21 43l63 58q40 34 91 34t92 -34l62 -57q21 -18 21 -43z" />
    <glyph glyph-name="caron" unicode="&#x2c7;" horiz-adv-x="530" 
d="M90 701q0 22 14.5 37t35.5 15q20 0 37 -14l89 -75l90 76q16 13 34 13q21 0 35.5 -14.5t14.5 -36.5q0 -26 -21 -43l-63 -58q-40 -34 -91 -34t-92 34l-62 57q-21 18 -21 43z" />
    <glyph glyph-name="breve" unicode="&#x2d8;" horiz-adv-x="452" 
d="M226 572q-67 0 -114 37.5t-49 86.5q-1 22 12.5 35.5t35.5 13.5q28 0 44 -33q17 -55 72 -55t69 53q15 35 45 35q22 0 35.5 -14t12.5 -34q-2 -49 -49 -87t-114 -38z" />
    <glyph glyph-name="dotaccent" unicode="&#x2d9;" horiz-adv-x="279" 
d="M63 658q0 33 22.5 55t55.5 22q32 0 53.5 -21.5t21.5 -53.5q0 -33 -22 -55.5t-55 -22.5t-54.5 21.5t-21.5 54.5z" />
    <glyph glyph-name="ring" unicode="&#x2da;" horiz-adv-x="320" 
d="M51 666q0 45 31 74.5t78 29.5t78 -29.5t31 -74.5t-31 -74.5t-78 -29.5t-78 29.5t-31 74.5zM111 666q0 -20 14 -34.5t35 -14.5t34.5 14t13.5 35q0 20 -13.5 34t-34.5 14t-35 -14t-14 -34z" />
    <glyph glyph-name="ogonek" unicode="&#x2db;" horiz-adv-x="345" 
d="M194 -185q-60 0 -101 35.5t-41 93.5q0 37 20 65.5t40 38.5l21 10l35 -58q-20 -12 -20 -41q0 -21 17 -35t43 -14q8 0 18 2t12 2q19 0 32 -13t13 -33q0 -31 -34 -44q-21 -9 -55 -9z" />
    <glyph glyph-name="tilde" unicode="&#x2dc;" horiz-adv-x="467" 
d="M95 578q-17 0 -27.5 11.5t-10.5 28.5q0 6 2 20q7 35 32.5 66t69.5 31q33 0 59 -18t45 -36t37 -18q23 0 33 38q8 31 37 31q17 0 27.5 -11.5t10.5 -28.5q0 -6 -2 -20q-7 -35 -32.5 -66t-69.5 -31q-33 0 -58.5 18t-45 36t-37.5 18q-23 0 -33 -38q-8 -31 -37 -31z" />
    <glyph glyph-name="hungarumlaut" unicode="&#x2dd;" horiz-adv-x="570" 
d="M152 567q-22 0 -36.5 15t-14.5 37q0 19 15 39l42 66q21 29 52 29q24 0 40 -16.5t16 -39.5q0 -28 -28 -55l-45 -56q-19 -19 -41 -19zM354 567q-22 0 -36.5 15t-14.5 37q0 19 15 39l41 66q23 29 52 29q24 0 40.5 -16.5t16.5 -39.5q0 -28 -28 -55l-45 -56q-19 -19 -41 -19z
" />
    <glyph glyph-name="uni0394" unicode="&#x394;" horiz-adv-x="682" 
d="M87 0q-32 0 -53.5 20.5t-21.5 51.5q0 15 10 39l214 516q33 78 107 78q72 0 105 -78l210 -505q11 -27 11 -45q0 -34 -21 -55.5t-56 -21.5h-505zM186 137h303l-151 390z" />
    <glyph glyph-name="pi" unicode="&#x3c0;" horiz-adv-x="710" 
d="M565 -10q-72 0 -113.5 38.5t-41.5 110.5v257h-140v-329q0 -32 -20 -52t-52 -20t-52.5 20t-20.5 52v329h-50q-26 0 -43 17t-17 43t17 43.5t43 17.5h550q26 0 43 -17.5t17 -43.5t-17 -43t-43 -17h-70v-223q0 -53 49 -53q8 0 13.5 1.5t6.5 1.5q27 0 44 -17.5t17 -45.5
q0 -24 -16.5 -42t-43.5 -22q-34 -6 -60 -6z" />
    <glyph glyph-name="Wgrave" unicode="&#x1e80;" horiz-adv-x="973" 
d="M531 798q0 -22 -14 -36.5t-36 -14.5q-16 0 -33 13l-65 60q-29 20 -29 54q0 24 16 41.5t40 17.5q26 0 50 -26l52 -66q19 -21 19 -43zM12 626q0 34 22 56.5t57 22.5q27 0 47.5 -15.5t28.5 -41.5l131 -415l123 416q7 26 25 41t43 15t43.5 -14.5t25.5 -39.5l123 -418l132 418
q8 25 27.5 39.5t45.5 14.5q32 0 53 -21t21 -54q0 -18 -6 -32l-183 -540q-9 -28 -32 -45.5t-53 -17.5t-53.5 18t-32.5 48l-115 381l-113 -378q-10 -32 -33 -50.5t-54 -18.5q-30 0 -53 17.5t-32 46.5l-182 535q-6 18 -6 32z" />
    <glyph glyph-name="wgrave" unicode="&#x1e81;" horiz-adv-x="776" 
d="M441 618q0 -22 -14 -36.5t-36 -14.5q-16 0 -33 13l-65 60q-29 20 -29 54q0 24 16 41.5t40 17.5q26 0 50 -26l52 -66q19 -21 19 -43zM12 449q0 32 20.5 52.5t52.5 20.5q26 0 45 -14t26 -39l85 -273l82 272q16 54 69 54q25 0 43 -14.5t25 -39.5l81 -268l85 269
q8 24 26.5 38.5t42.5 14.5q31 0 50.5 -19.5t19.5 -50.5q0 -14 -6 -31l-124 -361q-22 -65 -87 -65q-67 0 -87 66l-74 235l-73 -236q-9 -31 -32 -48t-55 -17q-65 0 -87 65l-123 360q-5 15 -5 29z" />
    <glyph glyph-name="Wacute" unicode="&#x1e82;" horiz-adv-x="973" 
d="M448 798q0 22 19 43l52 66q24 26 50 26q24 0 40 -17.5t16 -41.5q0 -34 -29 -54l-65 -60q-17 -13 -33 -13q-22 0 -36 14.5t-14 36.5zM12 626q0 34 22 56.5t57 22.5q27 0 47.5 -15.5t28.5 -41.5l131 -415l123 416q7 26 25 41t43 15t43.5 -14.5t25.5 -39.5l123 -418l132 418
q8 25 27.5 39.5t45.5 14.5q32 0 53 -21t21 -54q0 -18 -6 -32l-183 -540q-9 -28 -32 -45.5t-53 -17.5t-53.5 18t-32.5 48l-115 381l-113 -378q-10 -32 -33 -50.5t-54 -18.5q-30 0 -53 17.5t-32 46.5l-182 535q-6 18 -6 32z" />
    <glyph glyph-name="wacute" unicode="&#x1e83;" horiz-adv-x="776" 
d="M356 618q0 22 19 43l52 66q24 26 50 26q24 0 40 -17.5t16 -41.5q0 -34 -29 -54l-65 -60q-17 -13 -33 -13q-22 0 -36 14.5t-14 36.5zM12 449q0 32 20.5 52.5t52.5 20.5q26 0 45 -14t26 -39l85 -273l82 272q16 54 69 54q25 0 43 -14.5t25 -39.5l81 -268l85 269
q8 24 26.5 38.5t42.5 14.5q31 0 50.5 -19.5t19.5 -50.5q0 -14 -6 -31l-124 -361q-22 -65 -87 -65q-67 0 -87 66l-74 235l-73 -236q-9 -31 -32 -48t-55 -17q-65 0 -87 65l-123 360q-5 15 -5 29z" />
    <glyph glyph-name="Wdieresis" unicode="&#x1e84;" horiz-adv-x="973" 
d="M378 762q-33 0 -54 21.5t-21 54.5t22 55t55 22t54 -21.5t21 -53.5q0 -33 -22 -55.5t-55 -22.5zM598 762q-33 0 -54 21.5t-21 54.5t22 55t55 22t54.5 -21.5t21.5 -53.5q0 -33 -22.5 -55.5t-55.5 -22.5zM12 626q0 34 22 56.5t57 22.5q27 0 47.5 -15.5t28.5 -41.5l131 -415
l123 416q7 26 25 41t43 15t43.5 -14.5t25.5 -39.5l123 -418l132 418q8 25 27.5 39.5t45.5 14.5q32 0 53 -21t21 -54q0 -18 -6 -32l-183 -540q-9 -28 -32 -45.5t-53 -17.5t-53.5 18t-32.5 48l-115 381l-113 -378q-10 -32 -33 -50.5t-54 -18.5q-30 0 -53 17.5t-32 46.5
l-182 535q-6 18 -6 32z" />
    <glyph glyph-name="wdieresis" unicode="&#x1e85;" horiz-adv-x="776" 
d="M290 582q-33 0 -54 21.5t-21 54.5t22 55t55 22t54 -21.5t21 -53.5q0 -33 -22 -55.5t-55 -22.5zM510 582q-33 0 -54 21.5t-21 54.5t22 55t55 22t54.5 -21.5t21.5 -53.5q0 -33 -22.5 -55.5t-55.5 -22.5zM12 449q0 32 20.5 52.5t52.5 20.5q26 0 45 -14t26 -39l85 -273
l82 272q16 54 69 54q25 0 43 -14.5t25 -39.5l81 -268l85 269q8 24 26.5 38.5t42.5 14.5q31 0 50.5 -19.5t19.5 -50.5q0 -14 -6 -31l-124 -361q-22 -65 -87 -65q-67 0 -87 66l-74 235l-73 -236q-9 -31 -32 -48t-55 -17q-65 0 -87 65l-123 360q-5 15 -5 29z" />
    <glyph glyph-name="uni1E9E" unicode="&#x1e9e;" horiz-adv-x="715" 
d="M414 -10q-12 0 -22 2q-37 0 -58.5 18.5t-21.5 48.5q0 29 19 47.5t50 18.5l7 -1q6 -1 13 -1q56 0 88.5 30t32.5 77q0 41 -30.5 69t-86.5 35q-61 13 -61 65q0 23 18 49l94 105q-43 24 -86 24q-66 0 -106.5 -45t-40.5 -123v-337q0 -34 -21.5 -55.5t-55.5 -21.5
q-33 0 -54.5 21.5t-21.5 55.5v330q0 139 84 223.5t219 84.5q110 0 196 -56q41 -24 41 -62q0 -27 -23 -54l-89 -101q81 -20 129 -77.5t48 -135.5q0 -100 -73 -167t-188 -67z" />
    <glyph glyph-name="Ygrave" unicode="&#x1ef2;" horiz-adv-x="624" 
d="M366 798q0 -22 -14 -36.5t-36 -14.5q-16 0 -33 13l-65 60q-29 20 -29 54q0 24 16 41.5t40 17.5q26 0 50 -26l52 -66q19 -21 19 -43zM12 631q0 32 21 53t54 21q43 0 67 -39l161 -261l161 262q21 38 65 38q31 0 50.5 -19.5t19.5 -51.5q0 -23 -13 -44l-211 -330v-188
q0 -34 -21.5 -55.5t-54.5 -21.5q-34 0 -55.5 21.5t-21.5 55.5v188l-209 326q-13 21 -13 45z" />
    <glyph glyph-name="ygrave" unicode="&#x1ef3;" horiz-adv-x="529" 
d="M317 618q0 -22 -14 -36.5t-36 -14.5q-16 0 -33 13l-65 60q-29 20 -29 54q0 24 16 41.5t40 17.5q26 0 50 -26l52 -66q19 -21 19 -43zM2 -94q0 27 17 44t44 17q9 0 26.5 -3.5t28.5 -3.5q51 0 72 48l-168 400q-10 28 -10 40q0 33 21 53.5t55 20.5q49 0 71 -60l108 -291
l109 296q20 55 70 55q31 0 51 -20t20 -49q0 -17 -9 -37l-178 -421q-36 -84 -85.5 -124.5t-123.5 -40.5q-39 0 -75 16q-44 18 -44 60z" />
    <glyph glyph-name="endash" unicode="&#x2013;" horiz-adv-x="570" 
d="M461 420q28 0 46 -18t18 -46t-18 -46.5t-46 -18.5h-352q-28 0 -46 18.5t-18 46.5t18 46t46 18h352z" />
    <glyph glyph-name="emdash" unicode="&#x2014;" horiz-adv-x="900" 
d="M791 420q28 0 46 -18t18 -46t-18 -46.5t-46 -18.5h-682q-28 0 -46 18.5t-18 46.5t18 46t46 18h682z" />
    <glyph glyph-name="quoteleft" unicode="&#x2018;" horiz-adv-x="263" 
d="M217 645q0 -21 -17 -180q-3 -31 -22.5 -51t-48.5 -20q-31 0 -51 20t-20 51q0 25 40 188q13 52 59 52q26 0 43 -17t17 -43z" />
    <glyph glyph-name="quoteright" unicode="&#x2019;" horiz-adv-x="263" 
d="M46 454q0 21 17 180q3 31 22.5 51t48.5 20q31 0 51 -19.5t20 -51.5q0 -27 -40 -187q-14 -53 -59 -53q-26 0 -43 17t-17 43z" />
    <glyph glyph-name="quotesinglbase" unicode="&#x201a;" horiz-adv-x="263" 
d="M46 -76q0 17 17 181q3 31 22.5 50.5t48.5 19.5q31 0 51 -19.5t20 -51.5q0 -24 -40 -187q-13 -52 -59 -52q-26 0 -43 16.5t-17 42.5z" />
    <glyph glyph-name="quotedblleft" unicode="&#x201c;" horiz-adv-x="483" 
d="M217 645q0 -21 -17 -180q-3 -31 -22.5 -51t-48.5 -20q-31 0 -51 20t-20 51q0 25 40 188q13 52 59 52q26 0 43 -17t17 -43zM438 645q0 -12 -18 -180q-3 -31 -22.5 -51t-48.5 -20q-30 0 -50.5 20t-20.5 51q0 25 40 188q13 52 59 52q27 0 44 -17t17 -43z" />
    <glyph glyph-name="quotedblright" unicode="&#x201d;" horiz-adv-x="483" 
d="M46 454q0 21 17 180q3 31 22.5 51t48.5 20q31 0 51 -19.5t20 -51.5q0 -27 -40 -187q-14 -53 -59 -53q-26 0 -43 17t-17 43zM266 454q0 21 17 180q3 31 22.5 51t48.5 20q31 0 51 -19.5t20 -51.5q0 -20 -39 -187q-14 -53 -60 -53q-26 0 -43 17t-17 43z" />
    <glyph glyph-name="quotedblbase" unicode="&#x201e;" horiz-adv-x="483" 
d="M46 -76q0 17 17 181q3 31 22.5 50.5t48.5 19.5q31 0 51 -19.5t20 -51.5q0 -24 -40 -187q-13 -52 -59 -52q-26 0 -43 16.5t-17 42.5zM266 -76q0 17 17 181q3 31 22.5 50.5t48.5 19.5q31 0 51 -19.5t20 -51.5q0 -17 -39 -187q-6 -24 -22 -38t-38 -14q-26 0 -43 16.5
t-17 42.5z" />
    <glyph glyph-name="dagger" unicode="&#x2020;" horiz-adv-x="415" 
d="M334 581q20 0 33 -12.5t13 -32.5t-13 -33t-33 -13h-76v-184q0 -22 -14 -36.5t-36 -14.5t-36.5 14.5t-14.5 36.5v184h-76q-20 0 -33 13t-13 33t13 32.5t33 12.5h76v74q0 22 14.5 36t36.5 14t36 -14t14 -36v-74h76z" />
    <glyph glyph-name="daggerdbl" unicode="&#x2021;" horiz-adv-x="415" 
d="M334 360q20 0 33 -12.5t13 -32.5t-13 -33t-33 -13h-76v-73q0 -22 -14 -36.5t-36 -14.5t-36.5 14.5t-14.5 36.5v73h-76q-20 0 -33 13t-13 33t13 32.5t33 12.5h76v130h-76q-20 0 -33 13t-13 33t13 32.5t33 12.5h76v74q0 22 14.5 36t36.5 14t36 -14t14 -36v-74h76
q20 0 33 -12.5t13 -32.5t-13 -33t-33 -13h-76v-130h76z" />
    <glyph glyph-name="bullet" unicode="&#x2022;" horiz-adv-x="403" 
d="M52 349q0 64 43 107t107 43t106.5 -42t42.5 -106t-43 -107t-107 -43t-106.5 42t-42.5 106z" />
    <glyph glyph-name="perthousand" unicode="&#x2030;" horiz-adv-x="1125" 
d="M199 303q-67 0 -112 43.5t-45 109.5t45.5 110t112.5 44t112 -43t45 -110q0 -66 -45.5 -110t-112.5 -44zM192 -5q-17 0 -27.5 11t-10.5 28q0 15 12 30l381 520q16 21 36 21q17 0 27.5 -11t10.5 -28q0 -14 -11 -30l-383 -520q-15 -21 -35 -21zM200 391q27 0 45 19t18 47
t-18 46.5t-45 18.5q-28 0 -46 -18.5t-18 -46.5q0 -29 18 -47.5t46 -18.5zM575 -10q-67 0 -112 43t-45 110q0 66 45.5 110t112.5 44t112 -43.5t45 -109.5t-45.5 -110t-112.5 -44zM925 -10q-67 0 -112 43t-45 110q0 66 45.5 110t112.5 44t112 -43.5t45 -109.5t-45.5 -110
t-112.5 -44zM576 78q27 0 45 18.5t18 46.5t-18 47t-45 19q-28 0 -46 -18.5t-18 -47.5q0 -28 18 -46.5t46 -18.5zM926 78q27 0 45 18.5t18 46.5t-18 47t-45 19q-28 0 -46 -18.5t-18 -47.5q0 -28 18 -46.5t46 -18.5z" />
    <glyph glyph-name="guilsinglleft" unicode="&#x2039;" horiz-adv-x="428" 
d="M54 350q0 26 22 46l202 188q20 18 42 18q24 0 39.5 -15.5t15.5 -39.5q0 -22 -16 -40l-152 -155l145 -148q23 -25 23 -47q0 -25 -16 -40.5t-41 -15.5q-23 0 -44 19l-198 184q-22 20 -22 46z" />
    <glyph glyph-name="guilsinglright" unicode="&#x203a;" horiz-adv-x="428" 
d="M375 352q0 -27 -23 -46l-202 -188q-17 -17 -42 -17q-23 0 -38.5 15t-15.5 39q0 23 15 40l153 156l-146 147q-22 24 -22 47q0 25 15.5 40.5t40.5 15.5q23 0 45 -19l197 -184q23 -19 23 -46z" />
    <glyph glyph-name="fraction" unicode="&#x2044;" horiz-adv-x="225" 
d="M-155 33q0 13 12 30l466 623q14 19 35 19q17 0 27.5 -10.5t10.5 -26.5q0 -15 -12 -30l-467 -623q-14 -20 -35 -20q-17 0 -27 10.5t-10 27.5z" />
    <glyph glyph-name="uni2070" unicode="&#x2070;" horiz-adv-x="394" 
d="M42 549q0 73 44 115t113 42q68 0 110 -40.5t42 -113.5v-121q0 -73 -43.5 -115t-112.5 -42q-68 0 -110.5 40.5t-42.5 113.5v121zM140 423q0 -28 15.5 -44t41.5 -16t41 16t15 44v134q0 28 -15 44t-41 16t-41.5 -16t-15.5 -44v-134z" />
    <glyph glyph-name="uni2074" unicode="&#x2074;" horiz-adv-x="391" 
d="M21 423q0 20 15 40l151 210q25 32 56 32q26 0 43 -17.5t17 -44.5v-198h30q17 0 27 -10.5t10 -27.5t-10.5 -27.5t-26.5 -10.5h-30v-49q0 -20 -12.5 -32.5t-31.5 -12.5q-20 0 -33 12.5t-13 32.5v49h-136q-25 0 -40.5 15t-15.5 39zM105 445h108v149z" />
    <glyph glyph-name="uni2075" unicode="&#x2075;" horiz-adv-x="361" 
d="M32 357q0 19 12.5 31t31.5 12q16 0 33 -14q28 -23 58 -23q29 0 46 16t17 43q0 23 -15.5 39.5t-41.5 16.5q-24 0 -47 -19q-19 -15 -37 -15q-22 0 -35 14t-13 37v156q0 22 13.5 35.5t35.5 13.5h181q18 0 29.5 -12t11.5 -30q0 -19 -11.5 -30.5t-29.5 -11.5h-143v-78
q26 21 66 21q58 0 96 -39.5t38 -95.5q0 -67 -44 -108.5t-115 -41.5q-76 0 -121 48q-16 18 -16 35z" />
    <glyph glyph-name="uni2076" unicode="&#x2076;" horiz-adv-x="383" 
d="M190 274q-66 0 -112 42t-46 106q0 61 48 127l95 133q16 23 38 23q19 0 30.5 -11.5t11.5 -30.5q0 -16 -11 -32l-60 -82q14 6 31 6q56 0 95.5 -37t39.5 -93q0 -66 -46 -108.5t-114 -42.5zM191 361q28 0 44.5 17t16.5 43t-16.5 43t-44.5 17q-27 0 -44 -17.5t-17 -42.5
t17 -42.5t44 -17.5z" />
    <glyph glyph-name="uni2077" unicode="&#x2077;" horiz-adv-x="341" 
d="M22 657q0 19 12.5 31t31.5 12h205q21 0 34.5 -13t13.5 -33q0 -11 -10 -34l-150 -313q-14 -32 -43 -32q-22 0 -35 13t-13 34q0 10 9 30l128 262h-139q-20 0 -32 12t-12 31z" />
    <glyph glyph-name="uni2078" unicode="&#x2078;" horiz-adv-x="383" 
d="M48 587q0 52 41 85.5t104 33.5q62 0 101.5 -32t39.5 -84q0 -51 -47 -85q63 -38 63 -99q0 -57 -45.5 -94.5t-114.5 -37.5q-70 0 -114 36t-44 92q0 64 63 100q-47 34 -47 85zM142 582q0 -19 14 -33t35 -14t35 14t14 33t-14 32.5t-35 13.5t-35 -13.5t-14 -32.5zM129 411
q0 -25 17.5 -42t44.5 -17t45 17t18 42t-18.5 42t-44.5 17q-27 0 -44.5 -17t-17.5 -42z" />
    <glyph glyph-name="uni2079" unicode="&#x2079;" horiz-adv-x="383" 
d="M193 706q66 0 112 -42t46 -106q0 -61 -48 -127l-95 -133q-16 -23 -38 -23q-19 0 -30.5 11.5t-11.5 30.5q0 16 11 32l60 82q-14 -6 -31 -6q-56 0 -95.5 37t-39.5 93q0 66 46 108.5t114 42.5zM192 619q-28 0 -44.5 -17t-16.5 -43t16.5 -43t44.5 -17q27 0 44 17.5t17 42.5
t-17 42.5t-44 17.5z" />
    <glyph glyph-name="uni2080" unicode="&#x2080;" horiz-adv-x="394" 
d="M42 269q0 73 44 115t113 42q68 0 110 -40.5t42 -113.5v-121q0 -73 -43.5 -115t-112.5 -42q-68 0 -110.5 40.5t-42.5 113.5v121zM140 143q0 -28 15.5 -44t41.5 -16t41 16t15 44v134q0 28 -15 44t-41 16t-41.5 -16t-15.5 -44v-134z" />
    <glyph glyph-name="uni2081" unicode="&#x2081;" horiz-adv-x="298" 
d="M22 298q0 21 22 37l105 75q20 15 41 15q24 0 39.5 -16t15.5 -41v-323q0 -22 -13 -36t-35 -14t-36 14t-14 36v260l-53 -36q-18 -12 -31 -12q-18 0 -29.5 11t-11.5 30z" />
    <glyph glyph-name="uni2082" unicode="&#x2082;" horiz-adv-x="358" 
d="M31 48q0 22 21 43l127 119q47 44 47 81q0 20 -15 34t-37 14q-35 0 -62 -31q-18 -20 -36 -20q-19 0 -31 11.5t-12 30.5q0 15 13 33q47 63 137 63q62 0 101.5 -35.5t39.5 -88.5q0 -40 -18.5 -71.5t-60.5 -70.5l-83 -76h122q19 0 30.5 -11.5t11.5 -29.5q0 -19 -11.5 -31
t-30.5 -12h-204q-22 0 -35.5 13.5t-13.5 34.5z" />
    <glyph glyph-name="uni2083" unicode="&#x2083;" horiz-adv-x="351" 
d="M20 83q0 18 12 29.5t31 11.5q17 0 34 -19q24 -28 63 -28q28 0 44.5 14t16.5 36q0 23 -17 38.5t-50 15.5h-12q-16 0 -25.5 10t-9.5 25t9.5 25t25.5 10h12q27 0 41 13t14 34t-14 33t-36 12q-33 0 -49 -21q-16 -18 -34 -18t-29.5 11.5t-11.5 29.5q0 14 13 29q43 52 118 52
q61 0 101 -31.5t40 -81.5q0 -60 -59 -94q71 -33 71 -102q0 -55 -44 -89t-113 -34q-81 0 -131 60q-11 15 -11 29z" />
    <glyph glyph-name="uni2084" unicode="&#x2084;" horiz-adv-x="391" 
d="M21 143q0 20 15 40l151 210q25 32 56 32q26 0 43 -17.5t17 -44.5v-198h30q17 0 27 -10.5t10 -27.5t-10.5 -27.5t-26.5 -10.5h-30v-49q0 -20 -12.5 -32.5t-31.5 -12.5q-20 0 -33 12.5t-13 32.5v49h-136q-25 0 -40.5 15t-15.5 39zM105 165h108v149z" />
    <glyph glyph-name="uni2085" unicode="&#x2085;" horiz-adv-x="361" 
d="M32 77q0 19 12.5 31t31.5 12q16 0 33 -14q28 -23 58 -23q29 0 46 16t17 43q0 23 -15.5 39.5t-41.5 16.5q-24 0 -47 -19q-19 -15 -37 -15q-22 0 -35 14t-13 37v156q0 22 13.5 35.5t35.5 13.5h181q18 0 29.5 -12t11.5 -30q0 -19 -11.5 -30.5t-29.5 -11.5h-143v-78
q26 21 66 21q58 0 96 -39.5t38 -95.5q0 -67 -44 -108.5t-115 -41.5q-76 0 -121 48q-16 18 -16 35z" />
    <glyph glyph-name="uni2086" unicode="&#x2086;" horiz-adv-x="383" 
d="M190 -6q-66 0 -112 42t-46 106q0 61 48 127l95 133q16 23 38 23q19 0 30.5 -11.5t11.5 -30.5q0 -16 -11 -32l-60 -82q14 6 31 6q56 0 95.5 -37t39.5 -93q0 -66 -46 -108.5t-114 -42.5zM191 81q28 0 44.5 17t16.5 43t-16.5 43t-44.5 17q-27 0 -44 -17.5t-17 -42.5
t17 -42.5t44 -17.5z" />
    <glyph glyph-name="uni2087" unicode="&#x2087;" horiz-adv-x="341" 
d="M22 377q0 19 12.5 31t31.5 12h205q21 0 34.5 -13t13.5 -33q0 -11 -10 -34l-150 -313q-14 -32 -43 -32q-22 0 -35 13t-13 34q0 10 9 30l128 262h-139q-20 0 -32 12t-12 31z" />
    <glyph glyph-name="uni2088" unicode="&#x2088;" horiz-adv-x="383" 
d="M48 307q0 52 41 85.5t104 33.5q62 0 101.5 -32t39.5 -84q0 -51 -47 -85q63 -38 63 -99q0 -57 -45.5 -94.5t-114.5 -37.5q-70 0 -114 36t-44 92q0 64 63 100q-47 34 -47 85zM142 302q0 -19 14 -33t35 -14t35 14t14 33t-14 32.5t-35 13.5t-35 -13.5t-14 -32.5zM129 131
q0 -25 17.5 -42t44.5 -17t45 17t18 42t-18.5 42t-44.5 17q-27 0 -44.5 -17t-17.5 -42z" />
    <glyph glyph-name="uni2089" unicode="&#x2089;" horiz-adv-x="383" 
d="M193 426q66 0 112 -42t46 -106q0 -61 -48 -127l-95 -133q-16 -23 -38 -23q-19 0 -30.5 11.5t-11.5 30.5q0 16 11 32l60 82q-14 -6 -31 -6q-56 0 -95.5 37t-39.5 93q0 66 46 108.5t114 42.5zM192 339q-28 0 -44.5 -17t-16.5 -43t16.5 -43t44.5 -17q27 0 44 17.5t17 42.5
t-17 42.5t-44 17.5z" />
    <glyph glyph-name="Euro" unicode="&#x20ac;" horiz-adv-x="611" 
d="M30 277q0 17 10.5 27.5t27.5 10.5h52v70h-52q-17 0 -27.5 10.5t-10.5 27.5t10.5 27.5t27.5 10.5h52v8q2 111 74 176t182 65t176 -72q27 -24 27 -57q0 -28 -17.5 -45.5t-44.5 -17.5q-24 0 -52 23q-36 39 -95 39q-48 0 -78 -30t-30 -79v-10h215q17 0 27.5 -10.5t10.5 -27.5
t-10.5 -27.5t-27.5 -10.5h-215v-70h195q17 0 27.5 -10.5t10.5 -27.5t-10.5 -27.5t-27.5 -10.5h-195v-10q0 -49 30 -79t78 -30q57 0 94 37q31 26 54 26q27 0 44 -17.5t17 -44.5q0 -30 -23 -55q-65 -76 -185 -76q-112 0 -181 63.5t-70 176.5v9h-52q-17 0 -27.5 10.5
t-10.5 27.5z" />
    <glyph glyph-name="trademark" unicode="&#x2122;" horiz-adv-x="786" 
d="M375 421v231q0 24 15 38.5t38 14.5q29 0 49 -34l78 -139l80 141q17 32 49 32q22 0 35.5 -14t13.5 -38v-231q0 -19 -11 -30.5t-30 -11.5q-18 0 -29.5 11.5t-11.5 30.5v147l-57 -100q-16 -29 -41 -29q-23 0 -40 29l-57 101v-149q0 -19 -11 -30t-29 -11q-19 0 -30 11t-11 30
zM47 663q0 16 10.5 26.5t27.5 10.5h205q17 0 27.5 -10.5t10.5 -26.5q0 -17 -10.5 -27.5t-27.5 -10.5h-60v-203q0 -19 -11.5 -30.5t-30.5 -11.5t-30.5 11.5t-11.5 30.5v203h-61q-17 0 -27.5 10.5t-10.5 27.5z" />
    <glyph glyph-name="minus" unicode="&#x2212;" 
d="M506 420q28 0 46 -18t18 -46t-18 -46.5t-46 -18.5h-397q-28 0 -46 18.5t-18 46.5t18 46t46 18h397z" />
    <glyph glyph-name="centsuperior" unicode="&#xf6e0;" horiz-adv-x="344" 
d="M32 543q0 60 38 103t99 54v36q0 13 8.5 21t21.5 8t21 -8t8 -21v-34q43 -4 71 -27q24 -20 24 -39t-12 -31t-31 -12q-11 0 -29 9q-21 15 -46 15q-33 0 -54 -20t-21 -52t21 -52t54 -20q28 0 50 17q15 10 27 10q18 0 30 -12t12 -30q0 -21 -20 -39q-33 -26 -76 -31v-33
q0 -13 -8 -21.5t-21 -8.5t-21.5 8.5t-8.5 21.5v34q-61 10 -99 51.5t-38 102.5z" />
    <glyph glyph-name="dollarsuperior" unicode="&#xf6e4;" horiz-adv-x="356" 
d="M30 370q0 19 12 30.5t31 11.5q17 0 36 -19q35 -38 73 -38q20 0 31.5 10t11.5 25q0 18 -17.5 34.5t-62.5 38.5q-96 45 -96 127q0 43 30 73t78 38v35q0 13 8 21t21 8t21 -8t8 -21v-35q52 -7 88 -43q17 -17 17 -35q0 -19 -11.5 -31t-29.5 -12t-36 18q-27 27 -56 27
q-19 0 -29 -9t-10 -23q0 -16 14.5 -29.5t51.5 -31.5q110 -52 110 -135q0 -46 -30.5 -77.5t-78.5 -39.5v-36q0 -13 -8 -21t-21 -8t-21 8t-8 21v34q-72 8 -112 57q-15 17 -15 35z" />
    <glyph glyph-name="fi" unicode="&#xfb01;" horiz-adv-x="713" 
d="M575 575q-39 0 -63.5 23.5t-24.5 60.5q0 36 24.5 60t63.5 24q38 0 62.5 -24t24.5 -60q0 -37 -24.5 -60.5t-62.5 -23.5zM336 592q-76 0 -76 -76v-29h101q26 0 42.5 -16.5t16.5 -42.5t-16.5 -42.5t-42.5 -16.5h-101v-301q0 -32 -20 -52.5t-52 -20.5t-52.5 20.5t-20.5 52.5
v301h-41q-26 0 -42.5 16.5t-16.5 42.5t16.5 42.5t42.5 16.5h41v40q0 87 48 135t132 48q51 0 81 -10q53 -13 53 -56q0 -25 -15.5 -40.5t-40.5 -15.5q-3 0 -15 2t-22 2zM575 522q32 0 52.5 -21t20.5 -53v-379q0 -32 -20.5 -53t-52.5 -21q-33 0 -53.5 21t-20.5 53v379
q0 32 20.5 53t53.5 21z" />
    <glyph glyph-name="fl" unicode="&#xfb02;" horiz-adv-x="713" 
d="M336 592q-76 0 -76 -76v-29h101q26 0 42.5 -16.5t16.5 -42.5t-16.5 -42.5t-42.5 -16.5h-101v-301q0 -32 -20 -52.5t-52 -20.5t-52.5 20.5t-20.5 52.5v301h-41q-26 0 -42.5 16.5t-16.5 42.5t16.5 42.5t42.5 16.5h41v40q0 87 48 135t132 48q51 0 81 -10q53 -13 53 -56
q0 -25 -15.5 -40.5t-40.5 -15.5q-3 0 -15 2t-22 2zM575 705q32 0 52.5 -20.5t20.5 -52.5v-563q0 -32 -20.5 -53t-52.5 -21q-33 0 -53.5 21t-20.5 53v563q0 32 20.5 52.5t53.5 20.5z" />
    <glyph glyph-name="one.onum" horiz-adv-x="463" 
d="M22 445q2 34 32 54l181 126q30 20 57 20q35 0 58.5 -24t23.5 -59v-496q0 -31 -20 -51t-51 -20t-51 20t-20 51v405l-112 -74q-22 -12 -38 -12q-26 1 -42.5 17.5t-17.5 42.5z" />
    <glyph glyph-name="two.onum" horiz-adv-x="525" 
d="M106 0q-32 0 -52 19.5t-20 50.5q0 33 30 60l213 196q35 33 50 58t15 54q0 38 -25.5 62t-65.5 24q-61 0 -105 -59q-24 -29 -52 -29q-27 0 -43 17t-16 44q0 22 16 46q15 22 36 43t70 42.5t108 21.5q94 0 156.5 -55.5t62.5 -138.5q0 -59 -29 -108t-92 -104l-136 -122h196
q27 0 44 -17t17 -44t-17 -44t-44 -17h-317z" />
    <glyph glyph-name="three.onum" horiz-adv-x="529" 
d="M245 -10q-74 0 -125.5 30.5t-80.5 71.5q-15 21 -15 43q0 28 17.5 45.5t44.5 17.5q33 0 55 -33q37 -58 105 -58q47 0 74 24t27 61t-30 62t-83 25h-15q-22 0 -35 13t-13 35t13 35t35 13h16q43 0 67.5 22t24.5 58t-23.5 57t-60.5 21q-49 0 -82 -45q-24 -32 -55 -32
q-26 0 -41.5 16.5t-15.5 42.5q0 20 15 44q64 91 186 91q92 0 155.5 -48.5t63.5 -126.5q0 -95 -91 -143q111 -45 111 -154q0 -84 -69 -136t-175 -52z" />
    <glyph glyph-name="four.onum" horiz-adv-x="575" 
d="M17 210q0 26 18 50l254 343q30 42 76 42q38 0 63 -25t25 -65v-316h54q22 0 36.5 -14.5t14.5 -36.5q0 -23 -14.5 -37.5t-36.5 -14.5h-54v-74q0 -29 -19 -48t-48 -19q-30 0 -48.5 19t-18.5 48v74h-226q-34 0 -55 20.5t-21 53.5zM139 239h180v241z" />
    <glyph glyph-name="five.onum" horiz-adv-x="554" 
d="M51 123q0 27 17.5 44.5t44.5 17.5q26 0 53 -27q43 -46 99 -46q48 0 77.5 28t29.5 74q0 41 -28 68t-71 27q-38 0 -75 -28q-32 -19 -52 -19q-34 0 -55.5 22t-21.5 57v227q0 32 20 52t52 20h282q27 0 44 -17t17 -44t-17 -44t-44 -17h-228v-127q44 33 105 33q94 0 154 -57.5
t60 -143.5q0 -104 -70 -168.5t-179 -64.5q-123 0 -196 89q-18 22 -18 44z" />
    <glyph glyph-name="six.onum" horiz-adv-x="575" 
d="M40 221q0 103 80 202l153 194q23 28 56 28q27 0 44 -17t17 -43t-19 -48l-97 -115q15 10 51 10q87 0 148.5 -57t61.5 -146q0 -104 -74 -171.5t-176 -67.5q-99 0 -172 66t-73 165zM182 222q0 -44 29.5 -72.5t76.5 -28.5q46 0 75.5 28.5t29.5 72.5t-29.5 72.5t-75.5 28.5
q-47 0 -76.5 -28.5t-29.5 -72.5z" />
    <glyph glyph-name="seven.onum" horiz-adv-x="495" 
d="M17 578q0 27 18 44.5t46 17.5h326q32 0 51.5 -19t19.5 -50q0 -16 -10 -38l-221 -485q-24 -53 -68 -53q-30 0 -49 18.5t-19 49.5q0 16 11 42l192 410h-233q-29 0 -46.5 17.5t-17.5 45.5z" />
    <glyph glyph-name="eight.onum" horiz-adv-x="575" 
d="M66 469q0 79 63.5 130t160.5 51q96 0 157.5 -49t61.5 -127q0 -80 -75 -129q47 -26 74 -66t27 -87q0 -88 -71 -145t-179 -57t-176.5 54.5t-68.5 142.5q0 46 27 86.5t74 67.5q-75 46 -75 128zM204 461q0 -32 23.5 -53.5t60.5 -21.5q36 0 59.5 21.5t23.5 53.5
q0 33 -23.5 54.5t-59.5 21.5q-37 0 -60.5 -21.5t-23.5 -54.5zM182 199q0 -41 29.5 -68.5t76.5 -27.5q46 0 75.5 27.5t29.5 68.5q0 42 -29.5 69.5t-75.5 27.5q-47 0 -76.5 -27.5t-29.5 -69.5z" />
    <glyph glyph-name="nine.onum" horiz-adv-x="575" 
d="M535 419q0 -103 -80 -202l-153 -194q-23 -28 -56 -28q-27 0 -44 17t-17 43t19 48l97 115q-15 -10 -51 -10q-87 0 -148.5 57t-61.5 146q0 104 74 171.5t176 67.5q99 0 172 -66t73 -165zM393 418q0 44 -29.5 72.5t-76.5 28.5q-46 0 -75.5 -28.5t-29.5 -72.5t29.5 -72.5
t75.5 -28.5q47 0 76.5 28.5t29.5 72.5z" />
    <glyph glyph-name="zero.onum" horiz-adv-x="575" 
d="M47 405q0 114 68.5 179.5t174.5 65.5t172 -63t66 -177v-175q0 -114 -68.5 -179.5t-174.5 -65.5t-172 63t-66 177v175zM189 220q0 -45 27.5 -72.5t71.5 -27.5t71 27.5t27 72.5v200q0 45 -27 72.5t-71 27.5t-71.5 -27.5t-27.5 -72.5v-200z" />
    <glyph glyph-name="numbersign.onum" horiz-adv-x="605" 
d="M30 178q0 20 12 31.5t31 11.5h66l26 118h-52q-20 0 -31.5 12t-11.5 32q0 19 12 31t31 12h70l22 99q8 40 47 40q21 0 33 -12.5t12 -32.5q0 -11 -2 -18l-16 -76h109l22 99q8 40 47 40q21 0 33 -12.5t12 -32.5q0 -11 -2 -18l-16 -76h48q20 0 31.5 -11.5t11.5 -31.5
t-11.5 -32t-31.5 -12h-67l-25 -118h52q20 0 31.5 -11.5t11.5 -31.5t-11.5 -32t-31.5 -12h-71l-19 -94q-10 -45 -48 -45q-22 0 -34 12.5t-12 34.5q0 8 3 19l15 73h-110l-19 -94q-10 -45 -48 -45q-22 0 -34 12.5t-12 34.5q0 8 3 19l15 73h-48q-20 0 -31.5 12t-11.5 32z
M235 221h109l26 118h-110z" />
    <glyph glyph-name="cent.onum" horiz-adv-x="514" 
d="M35 389q0 93 61.5 163.5t156.5 87.5v63q0 19 11.5 30.5t30.5 11.5t30.5 -11.5t11.5 -30.5v-59q68 -5 120 -45q30 -23 30 -54q0 -29 -17.5 -46.5t-46.5 -17.5q-18 0 -42 14q-32 25 -76 25q-54 0 -91 -37t-37 -91t37 -91.5t91 -37.5q47 0 84 29q19 14 38 14
q28 0 45.5 -17.5t17.5 -44.5q0 -33 -30 -54q-52 -44 -123 -51v-58q0 -20 -11.5 -31.5t-30.5 -11.5t-30.5 12t-11.5 31v60q-96 15 -157 84t-61 164z" />
    <glyph glyph-name="dollar.onum" horiz-adv-x="518" 
d="M34 129q0 26 16.5 43t43.5 17t49 -24q54 -60 122 -60q36 0 56.5 17t20.5 44q0 30 -25 52.5t-96 53.5q-73 32 -118 81.5t-45 113.5q0 69 46.5 116.5t122.5 58.5v62q0 18 11.5 29.5t30.5 11.5t30.5 -11.5t11.5 -29.5v-61q37 -5 70.5 -20t47.5 -26t23 -21q25 -25 25 -50
q0 -27 -16.5 -43t-42.5 -16q-27 0 -47 22q-46 46 -100 46q-34 0 -53 -16t-19 -40q0 -29 22.5 -49.5t79.5 -45.5q182 -78 182 -201q0 -73 -47.5 -122.5t-124.5 -62.5v-61q0 -19 -11.5 -30.5t-30.5 -11.5t-30.5 11.5t-11.5 30.5v58q-98 10 -170 84q-23 23 -23 50z" />
    <glyph glyph-name="sterling.onum" horiz-adv-x="560" 
d="M20 312q0 20 11 31t31 11h48v61q0 109 65.5 172t167.5 63q65 0 108.5 -24t59.5 -47q24 -29 24 -53q0 -28 -18.5 -46.5t-46.5 -18.5q-24 0 -52 24q-35 35 -78 35q-39 0 -63.5 -25t-24.5 -65v-76h152q19 0 30 -11.5t11 -30.5t-11 -30t-30 -11h-152v-149h217q27 0 44 -17
t17 -44t-17 -44t-44 -17h-288q-31 0 -51 19.5t-20 50.5v201h-48q-19 0 -30.5 11t-11.5 30z" />
    <glyph glyph-name="Euro.onum" horiz-adv-x="574" 
d="M20 254q0 16 10 26t26 10h54v60h-54q-17 0 -26.5 10t-9.5 27q0 16 10 25.5t26 9.5h54v5q3 102 71.5 162.5t171.5 60.5q116 0 173 -77q19 -23 19 -46q0 -25 -16 -40t-41 -15q-27 0 -48 21q-15 13 -24 19.5t-27 13t-39 6.5q-46 0 -74 -28.5t-28 -75.5v-6h202
q16 0 25.5 -9.5t9.5 -25.5q0 -17 -9.5 -27t-25.5 -10h-202v-60h182q16 0 25.5 -10t9.5 -26t-9.5 -26t-25.5 -10h-182v-6q0 -47 28 -75.5t74 -28.5t88 38q30 23 50 23q25 0 41 -15t16 -39q0 -27 -17 -46q-61 -79 -181 -79q-104 0 -170 59.5t-67 163.5v5h-54q-16 0 -26 10
t-10 26z" />
    <glyph glyph-name="yen.onum" horiz-adv-x="608" 
d="M22 164q0 17 11 27.5t28 10.5h170v53l-12 21h-158q-17 0 -28 10.5t-11 27.5t11 27.5t28 10.5h113l-109 175q-14 23 -14 46q0 32 20.5 52t52.5 20q47 0 69 -48l115 -209l114 209q24 48 68 48q30 0 49.5 -19t19.5 -50q0 -23 -14 -45l-112 -179h114q17 0 27.5 -10.5
t10.5 -27.5t-10.5 -27.5t-27.5 -10.5h-158l-12 -21v-53h170q17 0 27.5 -10.5t10.5 -27.5t-10.5 -27.5t-27.5 -10.5h-170v-58q0 -32 -20.5 -52.5t-52.5 -20.5t-52.5 20.5t-20.5 52.5v58h-170q-17 0 -28 10.5t-11 27.5z" />
    <glyph glyph-name="florin.onum" horiz-adv-x="576" 
d="M20 270q0 18 12.5 30.5t31.5 12.5h87l10 120q8 104 65.5 160.5t149.5 56.5q105 0 160 -80q18 -20 18 -44q0 -27 -17 -44t-44 -17q-29 0 -48 23q-21 32 -64 32q-71 0 -78 -85l-10 -122h143q19 0 31 -12.5t12 -30.5q0 -19 -12 -31.5t-31 -12.5h-150l-26 -321
q-2 -32 -21.5 -51t-48.5 -19q-32 0 -52.5 21t-18.5 54l25 316h-80q-20 0 -32 12t-12 32z" />
    <glyph glyph-name="percent.onum" horiz-adv-x="775" 
d="M197 267q-67 0 -111 43t-44 108t45 108.5t112 43.5q66 0 110 -43t44 -107q0 -65 -45 -109t-111 -44zM193 -5q-17 0 -27.5 10.5t-10.5 27.5q0 11 11 28l384 487q13 18 33 18q16 0 26.5 -10.5t10.5 -26.5q0 -17 -9 -27l-384 -488q-14 -19 -34 -19zM198 354q27 0 45 18.5
t18 46.5t-18 46.5t-45 18.5q-28 0 -45.5 -18.5t-17.5 -46.5q0 -29 17.5 -47t45.5 -18zM576 -10q-66 0 -110 43t-44 107q0 65 45 109t111 44q67 0 111 -43t44 -108t-45 -108.5t-112 -43.5zM577 76q28 0 45.5 18.5t17.5 46.5q0 29 -17.5 47t-45.5 18q-27 0 -45 -18.5
t-18 -46.5t18 -46.5t45 -18.5z" />
    <glyph glyph-name="perthousand.onum" horiz-adv-x="1125" 
d="M197 267q-67 0 -111 43t-44 108t45 108.5t112 43.5q66 0 110 -43t44 -107q0 -65 -45 -109t-111 -44zM193 -5q-17 0 -27.5 10.5t-10.5 27.5q0 11 11 28l384 487q13 18 33 18q16 0 26.5 -10.5t10.5 -26.5q0 -17 -9 -27l-384 -488q-14 -19 -34 -19zM198 354q27 0 45 18.5
t18 46.5t-18 46.5t-45 18.5q-28 0 -45.5 -18.5t-17.5 -46.5q0 -29 17.5 -47t45.5 -18zM576 -10q-66 0 -110 43t-44 107q0 65 45 109t111 44q67 0 111 -43t44 -108t-45 -108.5t-112 -43.5zM926 -10q-66 0 -110 43t-44 107q0 65 45 109t111 44q67 0 111 -43t44 -108
t-45 -108.5t-112 -43.5zM577 76q28 0 45.5 18.5t17.5 46.5q0 29 -17.5 47t-45.5 18q-27 0 -45 -18.5t-18 -46.5t18 -46.5t45 -18.5zM927 76q28 0 45.5 18.5t17.5 46.5q0 29 -17.5 47t-45.5 18q-27 0 -45 -18.5t-18 -46.5t18 -46.5t45 -18.5z" />
    <glyph glyph-name="one.lnum" 
d="M72 508q0 32 31 54l173 123q28 20 58 20q36 0 60 -24t24 -60v-503h110q26 0 42 -16.5t16 -42.5t-16 -42.5t-42 -16.5h-395q-27 0 -43 16.5t-16 42.5t16 42.5t43 16.5h139v411l-103 -68q-19 -13 -37 -13q-27 1 -43.5 17.5t-16.5 42.5z" />
    <glyph glyph-name="two.lnum" 
d="M62 73q0 33 31 62l217 200q48 45 67.5 78t19.5 71q0 40 -29 68t-78 28q-62 0 -109 -59q-22 -28 -53 -28q-28 0 -46 17.5t-18 46.5q0 19 19 48q75 105 221 105q104 0 171.5 -61t67.5 -148q0 -72 -32.5 -128.5t-107.5 -123.5l-136 -124h213q28 0 45.5 -17.5t17.5 -44.5
q0 -28 -17.5 -45.5t-45.5 -17.5h-343q-33 0 -54 20t-21 53z" />
    <glyph glyph-name="three.lnum" 
d="M51 133q0 28 17.5 45.5t45.5 17.5q27 0 55 -30q47 -50 110 -50q56 0 89 27t33 67q0 42 -34 68.5t-99 26.5h-21q-25 0 -40.5 15t-15.5 40t15.5 40t40.5 15h22q55 0 83.5 23t28.5 62q0 38 -28.5 61t-76.5 23t-90 -42q-27 -25 -51 -25q-26 0 -42.5 17t-16.5 43q0 23 18 46
q27 35 76.5 61t117.5 26q101 0 169.5 -52.5t68.5 -136.5q0 -102 -103 -156q58 -25 90.5 -69t32.5 -102q0 -91 -74 -147.5t-190 -56.5q-133 0 -211 93q-20 22 -20 50z" />
    <glyph glyph-name="four.lnum" 
d="M27 237q0 29 20 55l269 374q29 39 77 39q39 0 64.5 -25.5t25.5 -64.5v-346h48q25 0 41 -15.5t16 -41.5t-16 -41.5t-41 -15.5h-48v-91q0 -31 -19.5 -50t-49.5 -19q-31 0 -50 19t-19 50v91h-234q-38 0 -61 22.5t-23 59.5zM154 269h191v261z" />
    <glyph glyph-name="five.lnum" 
d="M72 121q0 29 18 47.5t47 18.5q26 0 50 -21q49 -43 107 -43q54 0 87.5 32t33.5 81q0 43 -30.5 73t-80.5 30q-42 0 -83 -31q-32 -23 -58 -23q-35 0 -56.5 22t-21.5 58v259q0 33 21.5 54.5t54.5 21.5h307q28 0 45 -17.5t17 -44.5q0 -28 -17 -45.5t-45 -17.5h-253v-146
q49 36 116 36q100 0 164.5 -65t64.5 -160q0 -109 -74 -179.5t-190 -70.5q-112 0 -197 76q-27 23 -27 55z" />
    <glyph glyph-name="six.lnum" 
d="M50 236q0 109 68 199l174 239q23 31 59 31q29 0 47 -18.5t18 -47.5q0 -25 -21 -51l-108 -142q22 12 54 12q93 0 158.5 -61.5t65.5 -155.5q0 -109 -75.5 -180t-184.5 -71q-105 0 -180 70t-75 176zM195 235q0 -48 31.5 -80t81.5 -32t81 32t31 80t-31 80t-81 32t-81.5 -32
t-31.5 -80z" />
    <glyph glyph-name="seven.lnum" 
d="M47 636q0 28 18.5 46t46.5 18h392q33 0 53.5 -20t20.5 -52q0 -18 -11 -40l-280 -546q-25 -47 -67 -47q-30 0 -49.5 19.5t-19.5 49.5q0 19 10 38l247 469h-296q-29 0 -47 18t-18 47z" />
    <glyph glyph-name="eight.lnum" 
d="M76 513q0 85 67 141t167 56t164.5 -53.5t64.5 -138.5q0 -87 -80 -143q49 -28 77.5 -71.5t28.5 -95.5q0 -94 -74 -156t-186 -62t-183.5 59.5t-71.5 153.5q0 51 28.5 95.5t77.5 72.5q-80 54 -80 142zM218 504q0 -37 25 -60.5t65 -23.5q39 0 64 23.5t25 60.5t-25 60.5
t-64 23.5q-40 0 -65 -23.5t-25 -60.5zM195 216q0 -46 31.5 -75t81.5 -29q49 0 80.5 29t31.5 75t-31.5 75.5t-80.5 29.5q-50 0 -81.5 -29.5t-31.5 -75.5z" />
    <glyph glyph-name="nine.lnum" 
d="M565 464q0 -109 -68 -199l-174 -239q-23 -31 -59 -31q-29 0 -47 18.5t-18 47.5q0 25 21 51l108 142q-22 -12 -54 -12q-93 0 -158.5 61.5t-65.5 155.5q0 109 75.5 180t184.5 71q105 0 180 -70t75 -176zM420 465q0 48 -31.5 80t-81.5 32t-81 -32t-31 -80t31 -80t81 -32
t81.5 32t31.5 80z" />
    <glyph glyph-name="zero.lnum" 
d="M57 455q0 118 71.5 186.5t181.5 68.5q111 0 179.5 -66t68.5 -184v-215q0 -118 -71.5 -186.5t-181.5 -68.5q-111 0 -179.5 66t-68.5 184v215zM203 230q0 -48 29 -77.5t76 -29.5t75.5 29.5t28.5 77.5v240q0 48 -28.5 77.5t-75.5 29.5t-76 -29.5t-29 -77.5v-240z" />
    <glyph glyph-name="numbersign.lnum" 
d="M35 238q0 20 11.5 31.5t31.5 11.5h67l24 138h-51q-20 0 -31.5 12t-11.5 32q0 19 11.5 31t31.5 12h66l28 159q7 40 47 40q21 0 33.5 -12.5t12.5 -32.5q0 -8 -3 -22l-23 -132h110l28 159q3 18 16 29t31 11q21 0 33.5 -12.5t12.5 -32.5q0 -8 -3 -22l-23 -132h53
q20 0 31.5 -11.5t11.5 -31.5t-11.5 -32t-31.5 -12h-68l-24 -138h52q20 0 31.5 -11.5t11.5 -31.5t-11.5 -32t-31.5 -12h-67l-26 -154q-3 -20 -16 -32.5t-31 -12.5q-22 0 -34.5 12.5t-12.5 34.5q0 10 3 23l22 129h-110l-26 -154q-3 -20 -16 -32.5t-31 -12.5q-22 0 -34.5 12.5
t-12.5 34.5q0 10 3 23l22 129h-52q-20 0 -31.5 12t-11.5 32zM240 281h110l24 138h-110z" />
    <glyph glyph-name="cent.lnum" 
d="M52 429q0 107 67.5 181.5t176.5 90.5v62q0 19 11.5 30.5t30.5 11.5t30.5 -11.5t11.5 -30.5v-59q75 -5 131 -46q35 -26 35 -60q0 -29 -18 -48t-46 -19q-21 0 -43 16q-44 30 -92 30q-66 0 -107.5 -41t-41.5 -104q0 -64 41.5 -104.5t107.5 -40.5q55 0 95 31q22 16 41 16
q29 0 47 -17.5t18 -45.5q0 -35 -37 -61q-53 -41 -131 -51v-58q0 -19 -11.5 -31t-30.5 -12t-30.5 11.5t-11.5 31.5v59q-110 15 -177 88t-67 181z" />
    <glyph glyph-name="dollar.lnum" 
d="M71 143q0 28 18 46t46 18q31 0 51 -23q62 -68 127 -68q36 0 58 19t22 48q0 33 -30 61.5t-107 65.5q-159 75 -159 207q0 73 49.5 123.5t129.5 61.5v61q0 18 11.5 30t30.5 12t30.5 -12t11.5 -30v-60q86 -10 148 -72q26 -24 26 -55q0 -28 -17.5 -46t-45.5 -18q-26 0 -51 25
q-40 47 -99 47q-34 0 -54.5 -17t-20.5 -43q0 -31 25.5 -54.5t89.5 -54.5q182 -87 182 -221q0 -78 -50.5 -130.5t-132.5 -65.5v-60q0 -19 -11.5 -31t-30.5 -12t-30.5 12t-11.5 31v57q-67 6 -115 36t-71 61q-19 27 -19 51z" />
    <glyph glyph-name="sterling.lnum" 
d="M37 342q0 19 11.5 30.5t30.5 11.5h48v81q0 114 68.5 179.5t174.5 65.5q64 0 108 -23t63 -47q29 -31 29 -59q0 -30 -18.5 -48t-48.5 -18q-28 0 -54 26q-33 36 -81 36q-43 0 -69 -26.5t-26 -70.5v-96h169q18 0 29.5 -11.5t11.5 -30.5t-11.5 -30t-29.5 -11h-169v-176h232
q28 0 45.5 -17t17.5 -45t-17.5 -45.5t-45.5 -17.5h-305q-32 0 -52.5 20.5t-20.5 52.5v228h-48q-19 0 -30.5 11t-11.5 30z" />
    <glyph glyph-name="Euro.lnum" 
d="M30 277q0 17 10.5 27.5t27.5 10.5h52v70h-52q-17 0 -27.5 10.5t-10.5 27.5t10.5 27.5t27.5 10.5h52v8q2 111 74 176t182 65t176 -72q27 -24 27 -57q0 -28 -17.5 -45.5t-44.5 -17.5q-24 0 -52 23q-36 39 -95 39q-48 0 -78 -30t-30 -79v-10h215q17 0 27.5 -10.5t10.5 -27.5
t-10.5 -27.5t-27.5 -10.5h-215v-70h195q17 0 27.5 -10.5t10.5 -27.5t-10.5 -27.5t-27.5 -10.5h-195v-10q0 -49 30 -79t78 -30q57 0 94 37q31 26 54 26q27 0 44 -17.5t17 -44.5q0 -30 -23 -55q-65 -76 -185 -76q-112 0 -181 63.5t-70 176.5v9h-52q-17 0 -27.5 10.5
t-10.5 27.5z" />
    <glyph glyph-name="yen.lnum" 
d="M308 -5q-34 0 -55.5 21.5t-21.5 55.5v106h-168q-17 0 -27.5 10.5t-10.5 27.5t10.5 27.5t27.5 10.5h168v50l-14 24h-154q-17 0 -27.5 10.5t-10.5 27.5t10.5 27.5t27.5 10.5h109l-109 179q-14 23 -14 48q0 32 20.5 53t53.5 21q47 0 71 -49l118 -215l118 219q21 45 68 45
q32 0 51.5 -19.5t19.5 -51.5q0 -22 -13 -43l-114 -187h110q17 0 27.5 -10.5t10.5 -27.5t-10.5 -27.5t-27.5 -10.5h-155l-13 -21v-53h168q17 0 27.5 -10.5t10.5 -27.5t-10.5 -27.5t-27.5 -10.5h-168v-106q0 -34 -21.5 -55.5t-54.5 -21.5z" />
    <glyph glyph-name="florin.lnum" 
d="M30 331q0 19 12.5 31t31.5 12h88l9 116q9 105 68.5 162.5t156.5 57.5q107 0 172 -83q18 -23 18 -47q0 -28 -17.5 -45t-45.5 -17q-22 0 -51 25q-34 34 -71 34t-59 -23t-25 -63l-10 -117h145q19 0 31 -12t12 -31t-12 -31.5t-31 -12.5h-151l-31 -384q-2 -30 -21.5 -49
t-50.5 -19q-32 0 -52.5 20.5t-20.5 51.5q0 4 7 88.5l14.5 178.5t8.5 113h-81q-20 0 -32 12.5t-12 31.5z" />
    <glyph glyph-name="percent.lnum" horiz-adv-x="855" 
d="M219 363q-76 0 -126.5 49t-50.5 124t51.5 124.5t127.5 49.5t126 -48.5t50 -123.5t-51 -125t-127 -50zM196 -5q-18 0 -29 11t-11 28q0 14 12 31l453 617q17 23 39 23q17 0 28 -11t11 -28t-11 -31l-456 -619q-15 -21 -36 -21zM220 455q34 0 57 23.5t23 58.5t-23 58.5
t-57 23.5t-57 -23.5t-23 -58.5t23 -58.5t57 -23.5zM634 -10q-76 0 -126 48.5t-50 123.5t51 125t127 50t126.5 -49t50.5 -124t-51.5 -124.5t-127.5 -49.5zM635 82q34 0 57 23t23 58t-23 58.5t-57 23.5t-57 -23.5t-23 -58.5t23 -58t57 -23z" />
    <glyph glyph-name="perthousand.lnum" horiz-adv-x="1253" 
d="M219 363q-76 0 -126.5 49t-50.5 124t51.5 124.5t127.5 49.5t126 -48.5t50 -123.5t-51 -125t-127 -50zM196 -5q-18 0 -29 11t-11 28q0 14 12 31l453 617q17 23 39 23q17 0 28 -11t11 -28t-11 -31l-456 -619q-15 -21 -36 -21zM220 455q34 0 57 23.5t23 58.5t-23 58.5
t-57 23.5t-57 -23.5t-23 -58.5t23 -58.5t57 -23.5zM634 -10q-76 0 -126 48.5t-50 123.5t51 125t127 50t126.5 -49t50.5 -124t-51.5 -124.5t-127.5 -49.5zM1032 -10q-76 0 -126 48.5t-50 123.5t51 125t127 50t126 -49t50 -124t-51 -124.5t-127 -49.5zM635 82q34 0 57 23
t23 58t-23 58.5t-57 23.5t-57 -23.5t-23 -58.5t23 -58t57 -23zM1033 82q34 0 57 23t23 58t-23 58.5t-57 23.5t-57 -23.5t-23 -58.5t23 -58t57 -23z" />
    <glyph glyph-name="numbersignsuperior" horiz-adv-x="376" 
d="M96 275q-14 0 -23 10t-6 27l13 82h-29q-13 0 -21 8t-8 21q0 12 8 20t21 8h39l13 78h-28q-13 0 -21 8t-8 21q0 12 8 20t21 8h38l16 92q6 27 31 27q14 0 23 -10.5t6 -26.5l-14 -82h58l17 92q5 27 30 27q14 0 23 -10t6 -27l-13 -82h29q13 0 21 -8t8 -20q0 -13 -8 -21t-21 -8
h-40l-12 -78h28q13 0 21 -8t8 -20q0 -13 -8 -21t-21 -8h-39l-15 -92q-6 -27 -31 -27q-14 0 -23 10.5t-6 26.5l13 82h-58l-16 -92q-5 -27 -30 -27zM152 451h58l13 78h-58z" />
    <glyph glyph-name="sterlingsuperior" horiz-adv-x="385" 
d="M27 485q0 14 8.5 22t22.5 8h22v44q0 68 43 107.5t107 39.5q66 0 108 -45q14 -18 14 -33q0 -19 -12 -31.5t-30 -12.5q-20 0 -36 15q-18 18 -44 18q-24 0 -38 -14.5t-14 -39.5v-48h93q13 0 21.5 -8.5t8.5 -21.5t-8.5 -21t-21.5 -8h-93v-98h135q17 0 28 -10.5t11 -27.5
q0 -18 -11 -29t-28 -11h-183q-22 0 -36 14t-14 36v126h-22q-14 0 -22.5 8t-8.5 21z" />
    <glyph glyph-name="Eurosuperior" horiz-adv-x="391" 
d="M27 446q0 11 7.5 18t18.5 7h27v38h-27q-11 0 -18.5 7.5t-7.5 18.5t7.5 18t18.5 7h27v3q2 68 46.5 105.5t111.5 37.5t109 -46q14 -14 14 -33q0 -18 -12 -29.5t-30 -11.5q-17 0 -35 16q-18 20 -50 20q-28 0 -43.5 -15.5t-15.5 -42.5v-4h128q11 0 18 -7t7 -18t-7 -18.5
t-18 -7.5h-128v-38h116q11 0 18 -7t7 -18t-7 -18.5t-18 -7.5h-116v-4q0 -27 15.5 -42.5t43.5 -15.5q31 0 50 21q19 17 33 17q19 0 31.5 -11.5t12.5 -30.5q0 -18 -14 -32q-43 -48 -113 -48q-68 0 -110.5 36.5t-43.5 105.5v4h-27q-11 0 -18.5 7.5t-7.5 18.5z" />
    <glyph glyph-name="yensuperior" horiz-adv-x="397" 
d="M14 408q0 11 7.5 18.5t18.5 7.5h107v30l-7 13h-100q-11 0 -18.5 7.5t-7.5 18.5t7.5 18t18.5 7h68l-64 99q-10 16 -10 31q0 20 13.5 33.5t33.5 13.5q29 0 46 -31l75 -127l73 127q16 31 44 31q19 0 32 -12.5t13 -31.5q0 -18 -10 -32l-65 -101h69q11 0 18 -7t7 -18t-7 -18.5
t-18 -7.5h-101l-7 -13v-30h108q11 0 18 -7.5t7 -18.5q0 -25 -25 -25h-108v-57q0 -22 -14.5 -36.5t-36.5 -14.5t-37 14.5t-15 36.5v57h-107q-11 0 -18.5 7t-7.5 18z" />
    <glyph glyph-name="florinsuperior" horiz-adv-x="376" 
d="M17 479q0 13 9 21.5t22 8.5h47l6 65q5 63 42 97.5t98 34.5q62 0 101 -48q13 -14 13 -32t-12 -29.5t-30 -11.5q-16 0 -32 14q-18 18 -37 18q-43 0 -46 -46l-5 -62h80q13 0 21.5 -8.5t8.5 -21.5t-8.5 -22t-21.5 -9h-85l-16 -221q-5 -48 -50 -48q-23 0 -36.5 15.5
t-11.5 36.5l17 217h-43q-14 0 -22.5 9t-8.5 22z" />
    <glyph glyph-name="percentsuperior" horiz-adv-x="542" 
d="M141 495q-47 0 -78 29.5t-31 75.5t31.5 76t78.5 30q46 0 76.5 -29.5t30.5 -75.5t-31 -76t-77 -30zM132 275q-12 0 -19.5 7.5t-7.5 18.5q0 9 8 20l272 369q12 15 24 15q27 0 27 -26q0 -11 -7 -20l-274 -370q-10 -14 -23 -14zM141 555q19 0 32 13t13 33q0 19 -13 32.5
t-32 13.5t-32.5 -13.5t-13.5 -32.5q0 -20 13 -33t33 -13zM401 274q-46 0 -77 29.5t-31 74.5q0 46 31.5 76.5t77.5 30.5q47 0 77.5 -30t30.5 -76q0 -45 -31.5 -75t-77.5 -30zM401 333q19 0 32.5 13.5t13.5 32.5q0 20 -13 33t-33 13q-19 0 -32 -13t-13 -33q0 -19 13 -32.5
t32 -13.5z" />
    <glyph glyph-name="perthousandsuperior" horiz-adv-x="783" 
d="M141 495q-47 0 -78 29.5t-31 75.5t31.5 76t78.5 30q46 0 76.5 -29.5t30.5 -75.5t-31 -76t-77 -30zM132 275q-12 0 -19.5 7.5t-7.5 18.5q0 9 8 20l272 369q12 15 24 15q27 0 27 -26q0 -11 -7 -20l-274 -370q-10 -14 -23 -14zM141 555q19 0 32 13t13 33q0 19 -13 32.5
t-32 13.5t-32.5 -13.5t-13.5 -32.5q0 -20 13 -33t33 -13zM401 274q-47 0 -77.5 29t-30.5 75t31 76.5t78 30.5q46 0 77 -30t31 -76q0 -45 -31.5 -75t-77.5 -30zM642 274q-47 0 -77.5 29t-30.5 75t31 76.5t78 30.5q46 0 77 -30t31 -76q0 -45 -31.5 -75t-77.5 -30zM401 333
q19 0 32.5 13.5t13.5 32.5q0 20 -13 33t-33 13q-19 0 -32 -13t-13 -33q0 -19 13 -32.5t32 -13.5zM642 333q20 0 33 13.5t13 32.5q0 20 -13 33t-33 13q-19 0 -32 -13t-13 -33q0 -19 13 -32.5t32 -13.5z" />
    <glyph glyph-name="G.ss01" horiz-adv-x="775" 
d="M45 347q0 152 107 257.5t263 105.5q121 0 215 -63q36 -25 36 -64q0 -31 -21 -53t-52 -22q-22 0 -46 15q-69 46 -135 46q-92 0 -153 -63t-61 -158t61 -158t153 -63q50 0 90.5 14.5t55.5 28.5l15 14v86h-117q-25 0 -40.5 15.5t-15.5 40.5q0 23 15.5 38.5t40.5 15.5h189
q31 0 50.5 -20t19.5 -51v-144q0 -57 -47 -92q-111 -83 -258 -83q-156 0 -260.5 102.5t-104.5 254.5z" />
    <glyph glyph-name="Gbreve.ss01" horiz-adv-x="775" 
d="M412 752q-67 0 -114 37.5t-49 86.5q-1 22 12.5 35.5t35.5 13.5q28 0 44 -33q17 -55 72 -55t69 53q15 35 45 35q22 0 35.5 -14t12.5 -34q-2 -49 -49 -87t-114 -38zM45 347q0 152 107 257.5t263 105.5q121 0 215 -63q36 -25 36 -64q0 -31 -21 -53t-52 -22q-22 0 -46 15
q-69 46 -135 46q-92 0 -153 -63t-61 -158t61 -158t153 -63q50 0 90.5 14.5t55.5 28.5l15 14v86h-117q-25 0 -40.5 15.5t-15.5 40.5q0 23 15.5 38.5t40.5 15.5h189q31 0 50.5 -20t19.5 -51v-144q0 -57 -47 -92q-111 -83 -258 -83q-156 0 -260.5 102.5t-104.5 254.5z" />
    <glyph glyph-name="Gcommaaccent.ss01" horiz-adv-x="775" 
d="M45 347q0 152 107 257.5t263 105.5q121 0 215 -63q36 -25 36 -64q0 -31 -21 -53t-52 -22q-22 0 -46 15q-69 46 -135 46q-92 0 -153 -63t-61 -158t61 -158t153 -63q50 0 90.5 14.5t55.5 28.5l15 14v86h-117q-25 0 -40.5 15.5t-15.5 40.5q0 23 15.5 38.5t40.5 15.5h189
q31 0 50.5 -20t19.5 -51v-144q0 -57 -47 -92q-111 -83 -258 -83q-156 0 -260.5 102.5t-104.5 254.5zM275 -180q0 22 19 43l52 66q24 26 50 26q24 0 40 -17.5t16 -41.5q0 -34 -29 -54l-65 -60q-17 -13 -33 -13q-22 0 -36 14.5t-14 36.5z" />
    <glyph glyph-name="Gdotaccent.ss01" horiz-adv-x="775" 
d="M335 838q0 33 22.5 55t55.5 22q32 0 53.5 -21.5t21.5 -53.5q0 -33 -22 -55.5t-55 -22.5t-54.5 21.5t-21.5 54.5zM45 347q0 152 107 257.5t263 105.5q121 0 215 -63q36 -25 36 -64q0 -31 -21 -53t-52 -22q-22 0 -46 15q-69 46 -135 46q-92 0 -153 -63t-61 -158t61 -158
t153 -63q50 0 90.5 14.5t55.5 28.5l15 14v86h-117q-25 0 -40.5 15.5t-15.5 40.5q0 23 15.5 38.5t40.5 15.5h189q31 0 50.5 -20t19.5 -51v-144q0 -57 -47 -92q-111 -83 -258 -83q-156 0 -260.5 102.5t-104.5 254.5z" />
    <glyph glyph-name="Gcircumflex.ss01" horiz-adv-x="775" 
d="M587 799q0 -22 -14.5 -37t-35.5 -15q-20 0 -37 14l-89 76l-90 -77q-16 -13 -34 -13q-21 0 -35.5 14.5t-14.5 36.5q0 26 21 43l63 58q40 34 91 34t92 -34l62 -57q21 -18 21 -43zM45 347q0 152 107 257.5t263 105.5q121 0 215 -63q36 -25 36 -64q0 -31 -21 -53t-52 -22
q-22 0 -46 15q-69 46 -135 46q-92 0 -153 -63t-61 -158t61 -158t153 -63q50 0 90.5 14.5t55.5 28.5l15 14v86h-117q-25 0 -40.5 15.5t-15.5 40.5q0 23 15.5 38.5t40.5 15.5h189q31 0 50.5 -20t19.5 -51v-144q0 -57 -47 -92q-111 -83 -258 -83q-156 0 -260.5 102.5
t-104.5 254.5z" />
    <glyph glyph-name="a.ss01" horiz-adv-x="649" 
d="M522 522q29 0 48 -19t19 -49v-392q0 -29 -19 -48t-48 -19q-30 0 -48.5 19t-18.5 48v13q-66 -85 -171 -85q-103 0 -176 77t-73 189q0 113 75 192t179 79q100 0 166 -80v7q0 30 18.5 49t48.5 19zM314 123q57 0 95.5 39t38.5 96t-38.5 96t-95.5 39t-95.5 -39t-38.5 -96
t38.5 -96t95.5 -39z" />
    <glyph glyph-name="agrave.ss01" horiz-adv-x="649" 
d="M221 640q-29 20 -29 54q0 24 16 41.5t40 17.5q26 0 50 -26l52 -66q19 -21 19 -43t-14 -36.5t-36 -14.5q-16 0 -33 13zM522 522q29 0 48 -19t19 -49v-392q0 -29 -19 -48t-48 -19q-30 0 -48.5 19t-18.5 48v13q-66 -85 -171 -85q-103 0 -176 77t-73 189q0 113 75 192t179 79
q100 0 166 -80v7q0 30 18.5 49t48.5 19zM314 123q57 0 95.5 39t38.5 96t-38.5 96t-95.5 39t-95.5 -39t-38.5 -96t38.5 -96t95.5 -39z" />
    <glyph glyph-name="aacute.ss01" horiz-adv-x="649" 
d="M291 567q-22 0 -36 14.5t-14 36.5t19 43l52 66q24 26 50 26q24 0 40 -17.5t16 -41.5q0 -34 -29 -54l-65 -60q-17 -13 -33 -13zM522 522q29 0 48 -19t19 -49v-392q0 -29 -19 -48t-48 -19q-30 0 -48.5 19t-18.5 48v13q-66 -85 -171 -85q-103 0 -176 77t-73 189
q0 113 75 192t179 79q100 0 166 -80v7q0 30 18.5 49t48.5 19zM314 123q57 0 95.5 39t38.5 96t-38.5 96t-95.5 39t-95.5 -39t-38.5 -96t38.5 -96t95.5 -39z" />
    <glyph glyph-name="acircumflex.ss01" horiz-adv-x="649" 
d="M202 567q-21 0 -35.5 14.5t-14.5 36.5q0 26 21 43l63 58q40 34 91 34t92 -34l62 -57q21 -18 21 -43q0 -22 -14.5 -37t-35.5 -15q-20 0 -37 14l-89 76l-90 -77q-16 -13 -34 -13zM522 522q29 0 48 -19t19 -49v-392q0 -29 -19 -48t-48 -19q-30 0 -48.5 19t-18.5 48v13
q-66 -85 -171 -85q-103 0 -176 77t-73 189q0 113 75 192t179 79q100 0 166 -80v7q0 30 18.5 49t48.5 19zM314 123q57 0 95.5 39t38.5 96t-38.5 96t-95.5 39t-95.5 -39t-38.5 -96t38.5 -96t95.5 -39z" />
    <glyph glyph-name="atilde.ss01" horiz-adv-x="649" 
d="M199 578q-17 0 -27.5 11.5t-10.5 28.5q0 6 2 20q7 35 32.5 66t69.5 31q33 0 59 -18t45 -36t37 -18q23 0 33 38q8 31 37 31q17 0 27.5 -11.5t10.5 -28.5q0 -6 -2 -20q-7 -35 -32.5 -66t-69.5 -31q-33 0 -58.5 18t-45 36t-37.5 18q-23 0 -33 -38q-8 -31 -37 -31zM522 522
q29 0 48 -19t19 -49v-392q0 -29 -19 -48t-48 -19q-30 0 -48.5 19t-18.5 48v13q-66 -85 -171 -85q-103 0 -176 77t-73 189q0 113 75 192t179 79q100 0 166 -80v7q0 30 18.5 49t48.5 19zM314 123q57 0 95.5 39t38.5 96t-38.5 96t-95.5 39t-95.5 -39t-38.5 -96t38.5 -96
t95.5 -39z" />
    <glyph glyph-name="adieresis.ss01" horiz-adv-x="649" 
d="M216 582q-33 0 -54 21.5t-21 54.5t22 55t55 22t54 -21.5t21 -53.5q0 -33 -22 -55.5t-55 -22.5zM436 582q-33 0 -54 21.5t-21 54.5t22 55t55 22t54.5 -21.5t21.5 -53.5q0 -33 -22.5 -55.5t-55.5 -22.5zM522 522q29 0 48 -19t19 -49v-392q0 -29 -19 -48t-48 -19
q-30 0 -48.5 19t-18.5 48v13q-66 -85 -171 -85q-103 0 -176 77t-73 189q0 113 75 192t179 79q100 0 166 -80v7q0 30 18.5 49t48.5 19zM314 123q57 0 95.5 39t38.5 96t-38.5 96t-95.5 39t-95.5 -39t-38.5 -96t38.5 -96t95.5 -39z" />
    <glyph glyph-name="aring.ss01" horiz-adv-x="649" 
d="M327 562q-47 0 -78 29.5t-31 74.5t31 74.5t78 29.5t78 -29.5t31 -74.5t-31 -74.5t-78 -29.5zM327 714q-21 0 -35 -14t-14 -34t14 -34.5t35 -14.5t34.5 14t13.5 35q0 20 -13.5 34t-34.5 14zM522 522q29 0 48 -19t19 -49v-392q0 -29 -19 -48t-48 -19q-30 0 -48.5 19
t-18.5 48v13q-66 -85 -171 -85q-103 0 -176 77t-73 189q0 113 75 192t179 79q100 0 166 -80v7q0 30 18.5 49t48.5 19zM314 123q57 0 95.5 39t38.5 96t-38.5 96t-95.5 39t-95.5 -39t-38.5 -96t38.5 -96t95.5 -39z" />
    <glyph glyph-name="abreve.ss01" horiz-adv-x="649" 
d="M327 572q-67 0 -114 37.5t-49 86.5q-1 22 12.5 35.5t35.5 13.5q28 0 44 -33q17 -55 72 -55t69 53q15 35 45 35q22 0 35.5 -14t12.5 -34q-2 -49 -49 -87t-114 -38zM522 522q29 0 48 -19t19 -49v-392q0 -29 -19 -48t-48 -19q-30 0 -48.5 19t-18.5 48v13q-66 -85 -171 -85
q-103 0 -176 77t-73 189q0 113 75 192t179 79q100 0 166 -80v7q0 30 18.5 49t48.5 19zM314 123q57 0 95.5 39t38.5 96t-38.5 96t-95.5 39t-95.5 -39t-38.5 -96t38.5 -96t95.5 -39z" />
    <glyph glyph-name="amacron.ss01" horiz-adv-x="649" 
d="M184 613q-19 0 -30.5 12t-11.5 30t11.5 30t30.5 12h286q19 0 30.5 -12t11.5 -30t-11.5 -30t-30.5 -12h-286zM522 522q29 0 48 -19t19 -49v-392q0 -29 -19 -48t-48 -19q-30 0 -48.5 19t-18.5 48v13q-66 -85 -171 -85q-103 0 -176 77t-73 189q0 113 75 192t179 79
q100 0 166 -80v7q0 30 18.5 49t48.5 19zM314 123q57 0 95.5 39t38.5 96t-38.5 96t-95.5 39t-95.5 -39t-38.5 -96t38.5 -96t95.5 -39z" />
    <glyph glyph-name="aogonek.ss01" horiz-adv-x="649" 
d="M602 -86q19 0 32 -13t13 -33q0 -31 -34 -44q-21 -9 -55 -9q-60 0 -101 35.5t-41 93.5q0 55 44 91q-5 13 -5 27v13q-66 -85 -171 -85q-103 0 -176 77t-73 189q0 113 75 192t179 79q100 0 166 -80v7q0 30 18.5 49t48.5 19q29 0 48 -19t19 -49v-392q0 -28 -17.5 -46.5
t-45.5 -20.5q-14 -14 -14 -36q0 -21 17 -35t43 -14q8 0 18 2t12 2zM314 123q57 0 95.5 39t38.5 96t-38.5 96t-95.5 39t-95.5 -39t-38.5 -96t38.5 -96t95.5 -39z" />
    <glyph glyph-name="aringacute.ss01" horiz-adv-x="649" 
d="M522 522q29 0 48 -19t19 -49v-392q0 -29 -19 -48t-48 -19q-30 0 -48.5 19t-18.5 48v13q-66 -85 -171 -85q-103 0 -176 77t-73 189q0 93 53 165t134 96q-19 27 -19 61q0 38 22.5 65.5t58.5 35.5l53 62q21 25 49 25q24 0 40.5 -17t16.5 -41q0 -33 -30 -54l-13 -13
q21 -27 21 -63q0 -46 -33 -76q37 -18 67 -55v7q0 30 18.5 49t48.5 19zM312 626q-22 0 -35.5 -14t-13.5 -34q0 -21 14 -35t35 -14t34.5 14t13.5 35q0 20 -13.5 34t-34.5 14zM314 123q57 0 95.5 39t38.5 96t-38.5 96t-95.5 39t-95.5 -39t-38.5 -96t38.5 -96t95.5 -39z" />
    <glyph glyph-name="K.ss01" horiz-adv-x="676" 
d="M80 72v557q0 33 21.5 54.5t54.5 21.5q34 0 55.5 -21.5t21.5 -54.5v-247l273 295q24 28 59 28q30 0 49 -19t19 -48q0 -28 -20 -51l-186 -194l215 -271q19 -25 19 -52q0 -33 -20.5 -54t-53.5 -21q-41 0 -65 34l-206 267l-83 -85v-139q0 -34 -21.5 -55.5t-55.5 -21.5
q-33 0 -54.5 21.5t-21.5 55.5z" />
    <glyph glyph-name="Kcommaaccent.ss01" horiz-adv-x="676" 
d="M80 72v557q0 33 21.5 54.5t54.5 21.5q34 0 55.5 -21.5t21.5 -54.5v-247l273 295q24 28 59 28q30 0 49 -19t19 -48q0 -28 -20 -51l-186 -194l215 -271q19 -25 19 -52q0 -33 -20.5 -54t-53.5 -21q-41 0 -65 34l-206 267l-83 -85v-139q0 -34 -21.5 -55.5t-55.5 -21.5
q-33 0 -54.5 21.5t-21.5 55.5zM246 -180q0 22 19 43l52 66q24 26 50 26q24 0 40 -17.5t16 -41.5q0 -34 -29 -54l-65 -60q-17 -13 -33 -13q-22 0 -36 14.5t-14 36.5z" />
    <glyph glyph-name="k.ss01" horiz-adv-x="565" 
d="M60 68v565q0 32 20.5 52t52.5 20q31 0 51.5 -20.5t20.5 -51.5v-328l207 185q34 32 61 32q29 0 47 -18t18 -47q0 -32 -32 -59l-118 -98l141 -180q21 -27 21 -54q0 -31 -19.5 -51t-50.5 -20q-38 0 -63 36l-142 186l-70 -56v-93q0 -32 -20 -52.5t-52 -20.5t-52.5 20.5
t-20.5 52.5z" />
    <glyph glyph-name="kcommaaccent.ss01" horiz-adv-x="565" 
d="M60 68v565q0 32 20.5 52t52.5 20q31 0 51.5 -20.5t20.5 -51.5v-328l207 185q34 32 61 32q29 0 47 -18t18 -47q0 -32 -32 -59l-118 -98l141 -180q21 -27 21 -54q0 -31 -19.5 -51t-50.5 -20q-38 0 -63 36l-142 186l-70 -56v-93q0 -32 -20 -52.5t-52 -20.5t-52.5 20.5
t-20.5 52.5zM184 -180q0 22 19 43l52 66q24 26 50 26q24 0 40 -17.5t16 -41.5q0 -34 -29 -54l-65 -60q-17 -13 -33 -13q-22 0 -36 14.5t-14 36.5z" />
    <glyph glyph-name="Sarcasm" horiz-adv-x="612" 
d="M220 229q-40 0 -58 43l-121 314q-9 23 -9 40q0 34 25 56.5t60 22.5q61 0 77 -64l82 -329q3 -12 3 -22q0 -28 -17 -44.5t-42 -16.5zM392 229q-25 0 -42 16.5t-17 44.5q0 10 3 22l82 329q16 64 77 64q35 0 60 -22.5t25 -56.5q0 -17 -9 -40l-120 -314q-19 -43 -59 -43z
M306 -4q-38 0 -65 27t-27 65t27 64.5t65 26.5t64.5 -26.5t26.5 -64.5t-26.5 -65t-64.5 -27z" />
    </font>
</defs>
</svg>
